SplineFontDB: 3.0
FontName: SpurceSans-Semibold
FullName: Spurce Sans Semibold
FamilyName: Spurce Sans
Weight: Bold
Copyright: Copyright 2020 Nicholas Auler, with font name 'Spurce'.\n\nBased on Source Sans, Copyright 2010, 2012, 2014 Adobe Systems Incorporated (http://www.adobe.com/), with Reserved Font Name `Source'.
UComments: "This font is still in beta. If you find any issues, contact me at nicholas.auler@gmail.com+AAoA"
Version: 0.6
ItalicAngle: 0
UnderlinePosition: -100
UnderlineWidth: 50
Ascent: 750
Descent: 250
InvalidEm: 0
sfntRevision: 0x0000999a
LayerCount: 2
Layer: 0 1 "Back" 1
Layer: 1 1 "Fore" 0
XUID: [1021 316 771282308 19937]
StyleMap: 0x0040
FSType: 0
OS2Version: 3
OS2_WeightWidthSlopeOnly: 0
OS2_UseTypoMetrics: 0
CreationTime: 1441032316
ModificationTime: 1588187834
PfmFamily: 33
TTFWeight: 600
TTFWidth: 5
LineGap: 0
VLineGap: 0
Panose: 2 11 6 3 3 4 3 2 2 4
OS2TypoAscent: 750
OS2TypoAOffset: 0
OS2TypoDescent: -250
OS2TypoDOffset: 0
OS2TypoLinegap: 0
OS2WinAscent: 984
OS2WinAOffset: 0
OS2WinDescent: 273
OS2WinDOffset: 0
HheadAscent: 984
HheadAOffset: 0
HheadDescent: -273
HheadDOffset: 0
OS2SubXSize: 650
OS2SubYSize: 600
OS2SubXOff: 0
OS2SubYOff: 75
OS2SupXSize: 650
OS2SupYSize: 600
OS2SupXOff: 0
OS2SupYOff: 350
OS2StrikeYSize: 50
OS2StrikeYPos: 294
OS2CapHeight: 660
OS2XHeight: 491
OS2Vendor: 'ADBO'
OS2CodePages: 2000019f.00000000
OS2UnicodeRanges: 600002f7.02000001.00000000.00000000
Lookup: 1 0 0 "'aalt' Access All Alternates lookup 0" { "'aalt' Access All Alternates lookup 0 subtable"  } ['aalt' ('DFLT' <'dflt' > 'cyrl' <'SRB ' 'dflt' > 'grek' <'dflt' > 'latn' <'AZE ' 'CRT ' 'NSM ' 'SKS ' 'TRK ' 'dflt' > ) ]
Lookup: 3 0 0 "'aalt' Access All Alternates lookup 1" { "'aalt' Access All Alternates lookup 1 subtable"  } ['aalt' ('DFLT' <'dflt' > 'cyrl' <'SRB ' 'dflt' > 'grek' <'dflt' > 'latn' <'AZE ' 'CRT ' 'NSM ' 'SKS ' 'TRK ' 'dflt' > ) ]

StartChar: .notdef
Encoding: 1114112 -1 0
Width: 672
Flags: W
LayerCount: 2
Fore
SplineSet
84 0 m 1,0,-1
 84 660 l 1,1,-1
 588 660 l 1,2,-1
 588 0 l 1,3,-1
 84 0 l 1,0,-1
230 75 m 1,4,-1
 440 75 l 1,5,-1
 384 179 l 1,6,-1
 338 279 l 1,7,-1
 334 279 l 1,8,-1
 287 179 l 1,9,-1
 230 75 l 1,4,-1
334 401 m 1,10,-1
 338 401 l 1,11,-1
 384 495 l 1,12,-1
 432 584 l 1,13,-1
 239 584 l 1,14,-1
 288 495 l 1,15,-1
 334 401 l 1,10,-1
166 133 m 1,16,-1
 277 340 l 1,17,-1
 166 549 l 1,18,-1
 166 133 l 1,16,-1
505 133 m 1,19,-1
 505 549 l 1,20,-1
 395 340 l 1,21,-1
 505 133 l 1,19,-1
EndSplineSet
Validated: 1
EndChar

StartChar: A
Encoding: 65 65 2
Width: 558
GlyphClass: 2
Flags: W
AnchorPoint: "Anchor-8" 473 0 basechar 0
AnchorPoint: "Anchor-4" 277 -22 basechar 0
AnchorPoint: "Anchor-1" 277 676 basechar 0
LayerCount: 2
Fore
SplineSet
217 348 m 2,0,-1
 194 268 l 1,1,-1
 361 268 l 1,2,-1
 338 348 l 2,3,4
 322 400 322 400 307.5 455 c 128,-1,5
 293 510 293 510 279 564 c 1,6,-1
 275 564 l 1,7,8
 261 509 261 509 247 454.5 c 128,-1,9
 233 400 233 400 217 348 c 2,0,-1
-2 0 m 1,10,-1
 211 654 l 1,11,-1
 347 654 l 1,12,-1
 560 0 l 1,13,-1
 438 0 l 1,14,-1
 387 177 l 1,15,-1
 167 177 l 1,16,-1
 116 0 l 1,17,-1
 -2 0 l 1,10,-1
EndSplineSet
Validated: 1
Substitution2: "'sups' Superscript lookup 27 subtable" A.sups
Substitution2: "'c2sc' Capitals to Small Capitals lookup 17 subtable" A.sc
AlternateSubs2: "'aalt' Access All Alternates lookup 1 subtable" A.sc A.sups
EndChar

StartChar: B
Encoding: 66 66 3
Width: 597
GlyphClass: 2
Flags: W
AnchorPoint: "Anchor-4" 309 -22 basechar 0
AnchorPoint: "Anchor-1" 293 676 basechar 0
LayerCount: 2
Fore
SplineSet
83 0 m 1,0,-1
 83 654 l 1,1,-1
 292 654 l 2,2,3
 343 654 343 654 385.5 645.5 c 128,-1,4
 428 637 428 637 459.5 618.5 c 128,-1,5
 491 600 491 600 508.5 569 c 128,-1,6
 526 538 526 538 526 493 c 0,7,8
 526 446 526 446 502 406 c 128,-1,9
 478 366 478 366 435 351 c 1,10,-1
 435 347 l 1,11,12
 489 335 489 335 524.5 296.5 c 128,-1,13
 560 258 560 258 560 192 c 0,14,15
 560 143 560 143 541 107 c 128,-1,16
 522 71 522 71 488.5 47 c 128,-1,17
 455 23 455 23 409 11.5 c 128,-1,18
 363 0 363 0 309 0 c 2,19,-1
 83 0 l 1,0,-1
199 384 m 1,20,-1
 282 384 l 2,21,22
 351 384 351 384 381.5 409 c 128,-1,23
 412 434 412 434 412 476 c 0,24,25
 412 524 412 524 380 544 c 128,-1,26
 348 564 348 564 284 564 c 2,27,-1
 199 564 l 1,28,-1
 199 384 l 1,20,-1
199 90 m 1,29,-1
 297 90 l 2,30,31
 369 90 369 90 408 116.5 c 128,-1,32
 447 143 447 143 447 198 c 0,33,34
 447 250 447 250 409 273.5 c 128,-1,35
 371 297 371 297 297 297 c 2,36,-1
 199 297 l 1,37,-1
 199 90 l 1,29,-1
EndSplineSet
Validated: 1
Substitution2: "'sups' Superscript lookup 27 subtable" B.sups
Substitution2: "'c2sc' Capitals to Small Capitals lookup 17 subtable" B.sc
AlternateSubs2: "'aalt' Access All Alternates lookup 1 subtable" B.sc B.sups
EndChar

StartChar: C
Encoding: 67 67 4
Width: 576
GlyphClass: 2
Flags: W
AnchorPoint: "Anchor-4" 346 -22 basechar 0
AnchorPoint: "Anchor-3" 346 0 basechar 0
AnchorPoint: "Anchor-1" 336 676 basechar 0
LayerCount: 2
Fore
SplineSet
344 -12 m 0,0,1
 282 -12 282 -12 228 10 c 128,-1,2
 174 32 174 32 134.5 75 c 128,-1,3
 95 118 95 118 72 181 c 128,-1,4
 49 244 49 244 49 325 c 0,5,6
 49 405 49 405 72.5 468.5 c 128,-1,7
 96 532 96 532 136.5 576 c 128,-1,8
 177 620 177 620 231.5 643 c 128,-1,9
 286 666 286 666 348 666 c 256,10,11
 410 666 410 666 458 641 c 128,-1,12
 506 616 506 616 537 583 c 1,13,-1
 475 508 l 1,14,15
 449 534 449 534 419 549.5 c 128,-1,16
 389 565 389 565 351 565 c 0,17,18
 311 565 311 565 277.5 548.5 c 128,-1,19
 244 532 244 532 219.5 501.5 c 128,-1,20
 195 471 195 471 181.5 427 c 128,-1,21
 168 383 168 383 168 328 c 0,22,23
 168 216 168 216 216.5 152.5 c 128,-1,24
 265 89 265 89 348 89 c 0,25,26
 392 89 392 89 426 107.5 c 128,-1,27
 460 126 460 126 488 156 c 1,28,-1
 550 83 l 1,29,30
 510 37 510 37 458.5 12.5 c 128,-1,31
 407 -12 407 -12 344 -12 c 0,0,1
EndSplineSet
Validated: 1
Substitution2: "'sups' Superscript lookup 27 subtable" C.sups
Substitution2: "'c2sc' Capitals to Small Capitals lookup 17 subtable" C.sc
AlternateSubs2: "'aalt' Access All Alternates lookup 1 subtable" C.sc C.sups
EndChar

StartChar: D
Encoding: 68 68 5
Width: 625
GlyphClass: 2
Flags: W
AnchorPoint: "Anchor-4" 309 -22 basechar 0
AnchorPoint: "Anchor-1" 313 676 basechar 0
LayerCount: 2
Fore
SplineSet
83 0 m 1,0,-1
 83 654 l 1,1,-1
 258 654 l 2,2,3
 408 654 408 654 492 573 c 128,-1,4
 576 492 576 492 576 330 c 0,5,6
 576 249 576 249 554.5 187 c 128,-1,7
 533 125 533 125 492.5 83.5 c 128,-1,8
 452 42 452 42 394.5 21 c 128,-1,9
 337 0 337 0 264 0 c 2,10,-1
 83 0 l 1,0,-1
199 94 m 1,11,-1
 250 94 l 2,12,13
 350 94 350 94 403.5 151.5 c 128,-1,14
 457 209 457 209 457 330 c 0,15,16
 457 450 457 450 403 505 c 128,-1,17
 349 560 349 560 250 560 c 2,18,-1
 199 560 l 1,19,-1
 199 94 l 1,11,-1
EndSplineSet
Validated: 1
Substitution2: "'sups' Superscript lookup 27 subtable" D.sups
Substitution2: "'c2sc' Capitals to Small Capitals lookup 17 subtable" D.sc
AlternateSubs2: "'aalt' Access All Alternates lookup 1 subtable" D.sc D.sups
EndChar

StartChar: E
Encoding: 69 69 6
Width: 538
GlyphClass: 2
Flags: W
AnchorPoint: "Anchor-8" 391 0 basechar 0
AnchorPoint: "Anchor-4" 296 -22 basechar 0
AnchorPoint: "Anchor-1" 287 676 basechar 0
LayerCount: 2
Fore
SplineSet
83 0 m 1,0,-1
 83 654 l 1,1,-1
 477 654 l 1,2,-1
 477 556 l 1,3,-1
 199 556 l 1,4,-1
 199 389 l 1,5,-1
 434 389 l 1,6,-1
 434 291 l 1,7,-1
 199 291 l 1,8,-1
 199 98 l 1,9,-1
 487 98 l 1,10,-1
 487 0 l 1,11,-1
 83 0 l 1,0,-1
EndSplineSet
Validated: 1
Substitution2: "'sups' Superscript lookup 27 subtable" E.sups
Substitution2: "'c2sc' Capitals to Small Capitals lookup 17 subtable" E.sc
AlternateSubs2: "'aalt' Access All Alternates lookup 1 subtable" E.sc E.sups
EndChar

StartChar: F
Encoding: 70 70 7
Width: 510
GlyphClass: 2
Flags: W
AnchorPoint: "Anchor-4" 147 -22 basechar 0
AnchorPoint: "Anchor-1" 288 676 basechar 0
LayerCount: 2
Fore
SplineSet
83 0 m 1,0,-1
 83 654 l 1,1,-1
 478 654 l 1,2,-1
 478 556 l 1,3,-1
 199 556 l 1,4,-1
 199 371 l 1,5,-1
 437 371 l 1,6,-1
 437 273 l 1,7,-1
 199 273 l 1,8,-1
 199 0 l 1,9,-1
 83 0 l 1,0,-1
EndSplineSet
Validated: 1
Substitution2: "'sups' Superscript lookup 27 subtable" F.sups
Substitution2: "'c2sc' Capitals to Small Capitals lookup 17 subtable" F.sc
AlternateSubs2: "'aalt' Access All Alternates lookup 1 subtable" F.sc F.sups
EndChar

StartChar: G
Encoding: 71 71 8
Width: 628
GlyphClass: 2
Flags: W
AnchorPoint: "Anchor-4" 355 -22 basechar 0
AnchorPoint: "Anchor-1" 360 676 basechar 0
LayerCount: 2
Fore
SplineSet
357 -12 m 0,0,1
 291 -12 291 -12 234.5 10 c 128,-1,2
 178 32 178 32 136.5 75 c 128,-1,3
 95 118 95 118 72 181 c 128,-1,4
 49 244 49 244 49 325 c 0,5,6
 49 405 49 405 73 468.5 c 128,-1,7
 97 532 97 532 138.5 576 c 128,-1,8
 180 620 180 620 236.5 643 c 128,-1,9
 293 666 293 666 358 666 c 0,10,11
 428 666 428 666 476.5 640.5 c 128,-1,12
 525 615 525 615 556 583 c 1,13,-1
 494 508 l 1,14,15
 469 532 469 532 438.5 548.5 c 128,-1,16
 408 565 408 565 362 565 c 0,17,18
 318 565 318 565 282.5 548.5 c 128,-1,19
 247 532 247 532 221.5 501.5 c 128,-1,20
 196 471 196 471 182 427 c 128,-1,21
 168 383 168 383 168 328 c 0,22,23
 168 216 168 216 218.5 152.5 c 128,-1,24
 269 89 269 89 368 89 c 0,25,26
 396 89 396 89 421 96.5 c 128,-1,27
 446 104 446 104 462 118 c 1,28,-1
 462 259 l 1,29,-1
 338 259 l 1,30,-1
 338 354 l 1,31,-1
 566 354 l 1,32,-1
 566 66 l 1,33,34
 533 33 533 33 478.5 10.5 c 128,-1,35
 424 -12 424 -12 357 -12 c 0,0,1
EndSplineSet
Validated: 1
Substitution2: "'sups' Superscript lookup 27 subtable" G.sups
Substitution2: "'c2sc' Capitals to Small Capitals lookup 17 subtable" G.sc
AlternateSubs2: "'aalt' Access All Alternates lookup 1 subtable" G.sc G.sups
EndChar

StartChar: H
Encoding: 72 72 9
Width: 663
GlyphClass: 2
Flags: W
AnchorPoint: "Anchor-4" 330 -22 basechar 0
AnchorPoint: "Anchor-1" 330 676 basechar 0
LayerCount: 2
Fore
SplineSet
83 0 m 1,0,-1
 83 654 l 1,1,-1
 199 654 l 1,2,-1
 199 391 l 1,3,-1
 464 391 l 1,4,-1
 464 654 l 1,5,-1
 580 654 l 1,6,-1
 580 0 l 1,7,-1
 464 0 l 1,8,-1
 464 290 l 1,9,-1
 199 290 l 1,10,-1
 199 0 l 1,11,-1
 83 0 l 1,0,-1
EndSplineSet
Validated: 1
Substitution2: "'sups' Superscript lookup 27 subtable" H.sups
Substitution2: "'c2sc' Capitals to Small Capitals lookup 17 subtable" H.sc
AlternateSubs2: "'aalt' Access All Alternates lookup 1 subtable" H.sc H.sups
EndChar

StartChar: I
Encoding: 73 73 10
Width: 370
GlyphClass: 2
Flags: W
LayerCount: 2
Fore
SplineSet
49 0 m 1,0,-1
 49 98 l 1,1,-1
 127 98 l 1,2,-1
 127 556 l 1,3,-1
 49 556 l 1,4,-1
 49 654 l 1,5,-1
 320 654 l 1,6,-1
 320 556 l 1,7,-1
 243 556 l 1,8,-1
 243 98 l 1,9,-1
 320 98 l 1,10,-1
 320 0 l 1,11,-1
 49 0 l 1,0,-1
EndSplineSet
Validated: 1
Substitution2: "'ss04' Style Set 4 lookup 43 subtable" I.a
Substitution2: "'sups' Superscript lookup 27 subtable" I.sups
Substitution2: "'c2sc' Capitals to Small Capitals lookup 17 subtable" I.sc
AlternateSubs2: "'aalt' Access All Alternates lookup 1 subtable" I.sc I.sups I.a
EndChar

StartChar: J
Encoding: 74 74 11
Width: 494
GlyphClass: 2
Flags: W
AnchorPoint: "Anchor-4" 262 -22 basechar 0
AnchorPoint: "Anchor-1" 354 676 basechar 0
LayerCount: 2
Fore
SplineSet
219 -12 m 0,0,1
 150 -12 150 -12 102.5 16 c 128,-1,2
 55 44 55 44 24 99 c 1,3,-1
 104 158 l 1,4,5
 124 122 124 122 150 105.5 c 128,-1,6
 176 89 176 89 206 89 c 0,7,8
 252 89 252 89 275 117 c 128,-1,9
 298 145 298 145 298 215 c 2,10,-1
 298 654 l 1,11,-1
 414 654 l 1,12,-1
 414 205 l 2,13,14
 414 160 414 160 403 120.5 c 128,-1,15
 392 81 392 81 368 51.5 c 128,-1,16
 344 22 344 22 307 5 c 128,-1,17
 270 -12 270 -12 219 -12 c 0,0,1
EndSplineSet
Validated: 1
Substitution2: "'sups' Superscript lookup 27 subtable" J.sups
Substitution2: "'c2sc' Capitals to Small Capitals lookup 17 subtable" J.sc
AlternateSubs2: "'aalt' Access All Alternates lookup 1 subtable" J.sc J.sups
EndChar

StartChar: K
Encoding: 75 75 12
Width: 597
GlyphClass: 2
Flags: W
AnchorPoint: "Anchor-4" 330 -22 basechar 0
AnchorPoint: "Anchor-1" 315 676 basechar 0
LayerCount: 2
Fore
SplineSet
83 0 m 1,0,-1
 83 654 l 1,1,-1
 199 654 l 1,2,-1
 199 357 l 1,3,-1
 202 357 l 1,4,-1
 435 654 l 1,5,-1
 564 654 l 1,6,-1
 363 399 l 1,7,-1
 598 0 l 1,8,-1
 470 0 l 1,9,-1
 293 308 l 1,10,-1
 199 191 l 1,11,-1
 199 0 l 1,12,-1
 83 0 l 1,0,-1
EndSplineSet
Validated: 1
Substitution2: "'sups' Superscript lookup 27 subtable" K.sups
Substitution2: "'c2sc' Capitals to Small Capitals lookup 17 subtable" K.sc
AlternateSubs2: "'aalt' Access All Alternates lookup 1 subtable" K.sc K.sups
EndChar

StartChar: L
Encoding: 76 76 13
Width: 502
GlyphClass: 2
Flags: W
AnchorPoint: "Anchor-4" 290 -22 basechar 0
AnchorPoint: "Anchor-1" 144 676 basechar 0
LayerCount: 2
Fore
SplineSet
83 0 m 1,0,-1
 83 654 l 1,1,-1
 199 654 l 1,2,-1
 199 98 l 1,3,-1
 471 98 l 1,4,-1
 471 0 l 1,5,-1
 83 0 l 1,0,-1
EndSplineSet
Validated: 1
Substitution2: "'sups' Superscript lookup 27 subtable" L.sups
Substitution2: "'c2sc' Capitals to Small Capitals lookup 17 subtable" L.sc
AlternateSubs2: "'aalt' Access All Alternates lookup 1 subtable" L.sc L.sups
EndChar

StartChar: M
Encoding: 77 77 14
Width: 745
GlyphClass: 2
Flags: W
AnchorPoint: "Anchor-4" 374 -22 basechar 0
AnchorPoint: "Anchor-1" 372 676 basechar 0
LayerCount: 2
Fore
SplineSet
83 0 m 1,0,-1
 83 654 l 1,1,-1
 214 654 l 1,2,-1
 330 334 l 2,3,4
 341 303 341 303 351 270.5 c 128,-1,5
 361 238 361 238 372 206 c 1,6,-1
 376 206 l 1,7,8
 387 238 387 238 396.5 270.5 c 128,-1,9
 406 303 406 303 417 334 c 2,10,-1
 530 654 l 1,11,-1
 662 654 l 1,12,-1
 662 0 l 1,13,-1
 555 0 l 1,14,-1
 555 299 l 2,15,16
 555 322 555 322 556.5 349 c 128,-1,17
 558 376 558 376 560 403.5 c 128,-1,18
 562 431 562 431 565 457.5 c 128,-1,19
 568 484 568 484 570 507 c 1,20,-1
 566 507 l 1,21,-1
 513 355 l 1,22,-1
 406 61 l 1,23,-1
 337 61 l 1,24,-1
 229 355 l 1,25,-1
 177 507 l 1,26,-1
 173 507 l 1,27,28
 175 484 175 484 177.5 457.5 c 128,-1,29
 180 431 180 431 182.5 403.5 c 128,-1,30
 185 376 185 376 186.5 349 c 128,-1,31
 188 322 188 322 188 299 c 2,32,-1
 188 0 l 1,33,-1
 83 0 l 1,0,-1
EndSplineSet
Validated: 1
Substitution2: "'sups' Superscript lookup 27 subtable" M.sups
Substitution2: "'c2sc' Capitals to Small Capitals lookup 17 subtable" M.sc
AlternateSubs2: "'aalt' Access All Alternates lookup 1 subtable" M.sc M.sups
EndChar

StartChar: N
Encoding: 78 78 15
Width: 656
GlyphClass: 2
Flags: W
AnchorPoint: "Anchor-4" 336 -22 basechar 0
AnchorPoint: "Anchor-1" 330 676 basechar 0
LayerCount: 2
Fore
SplineSet
83 0 m 1,0,-1
 83 654 l 1,1,-1
 202 654 l 1,2,-1
 406 286 l 1,3,-1
 473 147 l 1,4,-1
 477 147 l 1,5,6
 473 198 473 198 467.5 256.5 c 128,-1,7
 462 315 462 315 462 370 c 2,8,-1
 462 654 l 1,9,-1
 573 654 l 1,10,-1
 573 0 l 1,11,-1
 454 0 l 1,12,-1
 250 368 l 1,13,-1
 183 507 l 1,14,-1
 179 507 l 1,15,16
 183 455 183 455 188.5 398 c 128,-1,17
 194 341 194 341 194 286 c 2,18,-1
 194 0 l 1,19,-1
 83 0 l 1,0,-1
EndSplineSet
Validated: 1
Substitution2: "'sups' Superscript lookup 27 subtable" N.sups
Substitution2: "'c2sc' Capitals to Small Capitals lookup 17 subtable" N.sc
AlternateSubs2: "'aalt' Access All Alternates lookup 1 subtable" N.sc N.sups
EndChar

StartChar: O
Encoding: 79 79 16
Width: 674
GlyphClass: 2
Flags: W
AnchorPoint: "Anchor-8" 337 0 basechar 0
AnchorPoint: "Anchor-6" 476 644 basechar 0
AnchorPoint: "Anchor-4" 337 -22 basechar 0
AnchorPoint: "Anchor-1" 337 676 basechar 0
LayerCount: 2
Fore
SplineSet
337 -12 m 256,0,1
 273 -12 273 -12 220 11.5 c 128,-1,2
 167 35 167 35 129 79.5 c 128,-1,3
 91 124 91 124 70 187 c 128,-1,4
 49 250 49 250 49 330 c 0,5,6
 49 409 49 409 70 471.5 c 128,-1,7
 91 534 91 534 129 577 c 128,-1,8
 167 620 167 620 220 643 c 128,-1,9
 273 666 273 666 337 666 c 256,10,11
 401 666 401 666 454 643 c 128,-1,12
 507 620 507 620 545.5 577 c 128,-1,13
 584 534 584 534 605 471.5 c 128,-1,14
 626 409 626 409 626 330 c 0,15,16
 626 250 626 250 605 187 c 128,-1,17
 584 124 584 124 545.5 79.5 c 128,-1,18
 507 35 507 35 454 11.5 c 128,-1,19
 401 -12 401 -12 337 -12 c 256,0,1
337 89 m 256,20,21
 376 89 376 89 407 106 c 128,-1,22
 438 123 438 123 460 154.5 c 128,-1,23
 482 186 482 186 494 230.5 c 128,-1,24
 506 275 506 275 506 330 c 0,25,26
 506 440 506 440 460.5 502.5 c 128,-1,27
 415 565 415 565 337 565 c 256,28,29
 259 565 259 565 213.5 502.5 c 128,-1,30
 168 440 168 440 168 330 c 0,31,32
 168 275 168 275 180 230.5 c 128,-1,33
 192 186 192 186 214 154.5 c 128,-1,34
 236 123 236 123 267 106 c 128,-1,35
 298 89 298 89 337 89 c 256,20,21
EndSplineSet
Validated: 1
Substitution2: "'sups' Superscript lookup 27 subtable" O.sups
Substitution2: "'c2sc' Capitals to Small Capitals lookup 17 subtable" O.sc
AlternateSubs2: "'aalt' Access All Alternates lookup 1 subtable" O.sc O.sups
EndChar

StartChar: P
Encoding: 80 80 17
Width: 582
GlyphClass: 2
Flags: W
AnchorPoint: "Anchor-4" 149 -22 basechar 0
AnchorPoint: "Anchor-1" 309 676 basechar 0
LayerCount: 2
Fore
SplineSet
83 0 m 1,0,-1
 83 654 l 1,1,-1
 289 654 l 2,2,3
 343 654 343 654 389.5 644 c 128,-1,4
 436 634 436 634 470 610 c 128,-1,5
 504 586 504 586 523 547.5 c 128,-1,6
 542 509 542 509 542 452 c 0,7,8
 542 398 542 398 523 358 c 128,-1,9
 504 318 504 318 470.5 291.5 c 128,-1,10
 437 265 437 265 391.5 252.5 c 128,-1,11
 346 240 346 240 293 240 c 2,12,-1
 199 240 l 1,13,-1
 199 0 l 1,14,-1
 83 0 l 1,0,-1
199 333 m 1,15,-1
 284 333 l 2,16,17
 428 333 428 333 428 452 c 0,18,19
 428 514 428 514 390.5 537.5 c 128,-1,20
 353 561 353 561 280 561 c 2,21,-1
 199 561 l 1,22,-1
 199 333 l 1,15,-1
EndSplineSet
Validated: 1
Substitution2: "'sups' Superscript lookup 27 subtable" P.sups
Substitution2: "'c2sc' Capitals to Small Capitals lookup 17 subtable" P.sc
AlternateSubs2: "'aalt' Access All Alternates lookup 1 subtable" P.sc P.sups
EndChar

StartChar: Q
Encoding: 81 81 18
Width: 674
GlyphClass: 2
Flags: W
AnchorPoint: "Anchor-1" 337 676 basechar 0
LayerCount: 2
Fore
SplineSet
337 83 m 256,0,1
 376 83 376 83 407 100 c 128,-1,2
 438 117 438 117 460 149 c 128,-1,3
 482 181 482 181 494 227 c 128,-1,4
 506 273 506 273 506 330 c 0,5,6
 506 440 506 440 460.5 502.5 c 128,-1,7
 415 565 415 565 337 565 c 256,8,9
 259 565 259 565 213.5 502.5 c 128,-1,10
 168 440 168 440 168 330 c 0,11,12
 168 273 168 273 180 227 c 128,-1,13
 192 181 192 181 214 149 c 128,-1,14
 236 117 236 117 267 100 c 128,-1,15
 298 83 298 83 337 83 c 256,0,1
545 -174 m 0,16,17
 447 -174 447 -174 381 -127 c 128,-1,18
 315 -80 315 -80 283 -7 c 1,19,20
 230 2 230 2 187 29.5 c 128,-1,21
 144 57 144 57 113 100 c 128,-1,22
 82 143 82 143 65.5 201 c 128,-1,23
 49 259 49 259 49 330 c 0,24,25
 49 409 49 409 70 471.5 c 128,-1,26
 91 534 91 534 129 577 c 128,-1,27
 167 620 167 620 220 643 c 128,-1,28
 273 666 273 666 337 666 c 256,29,30
 401 666 401 666 454 643 c 128,-1,31
 507 620 507 620 545.5 577 c 128,-1,32
 584 534 584 534 605 471.5 c 128,-1,33
 626 409 626 409 626 330 c 0,34,35
 626 262 626 262 610.5 205.5 c 128,-1,36
 595 149 595 149 566 106 c 128,-1,37
 537 63 537 63 496.5 35 c 128,-1,38
 456 7 456 7 406 -4 c 1,39,40
 429 -43 429 -43 469.5 -61 c 128,-1,41
 510 -79 510 -79 558 -79 c 0,42,43
 580 -79 580 -79 597.5 -76.5 c 128,-1,44
 615 -74 615 -74 629 -69 c 1,45,-1
 650 -155 l 1,46,47
 633 -163 633 -163 606 -168.5 c 128,-1,48
 579 -174 579 -174 545 -174 c 0,16,17
EndSplineSet
Validated: 1
Substitution2: "'sups' Superscript lookup 27 subtable" Q.sups
Substitution2: "'c2sc' Capitals to Small Capitals lookup 17 subtable" Q.sc
AlternateSubs2: "'aalt' Access All Alternates lookup 1 subtable" Q.sc Q.sups
EndChar

StartChar: R
Encoding: 82 82 19
Width: 592
GlyphClass: 2
Flags: W
AnchorPoint: "Anchor-4" 319 -22 basechar 0
AnchorPoint: "Anchor-1" 302 676 basechar 0
LayerCount: 2
Fore
SplineSet
83 0 m 1,0,-1
 83 654 l 1,1,-1
 304 654 l 2,2,3
 355 654 355 654 399 644 c 128,-1,4
 443 634 443 634 475 611.5 c 128,-1,5
 507 589 507 589 525.5 552 c 128,-1,6
 544 515 544 515 544 460 c 0,7,8
 544 385 544 385 508.5 339 c 128,-1,9
 473 293 473 293 414 273 c 1,10,-1
 570 0 l 1,11,-1
 440 0 l 1,12,-1
 299 256 l 1,13,-1
 199 256 l 1,14,-1
 199 0 l 1,15,-1
 83 0 l 1,0,-1
199 348 m 1,16,-1
 292 348 l 2,17,18
 359 348 359 348 394.5 376 c 128,-1,19
 430 404 430 404 430 460 c 0,20,21
 430 517 430 517 394.5 539 c 128,-1,22
 359 561 359 561 292 561 c 2,23,-1
 199 561 l 1,24,-1
 199 348 l 1,16,-1
EndSplineSet
Validated: 1
Substitution2: "'sups' Superscript lookup 27 subtable" R.sups
Substitution2: "'c2sc' Capitals to Small Capitals lookup 17 subtable" R.sc
AlternateSubs2: "'aalt' Access All Alternates lookup 1 subtable" R.sc R.sups
EndChar

StartChar: S
Encoding: 83 83 20
Width: 545
GlyphClass: 2
Flags: W
AnchorPoint: "Anchor-4" 276 -22 basechar 0
AnchorPoint: "Anchor-3" 276 0 basechar 0
AnchorPoint: "Anchor-1" 285 676 basechar 0
LayerCount: 2
Fore
SplineSet
274 -12 m 0,0,1
 208 -12 208 -12 146.5 13 c 128,-1,2
 85 38 85 38 38 84 c 1,3,-1
 106 163 l 1,4,5
 141 130 141 130 186 109.5 c 128,-1,6
 231 89 231 89 276 89 c 0,7,8
 332 89 332 89 361 112 c 128,-1,9
 390 135 390 135 390 173 c 0,10,11
 390 193 390 193 382.5 207 c 128,-1,12
 375 221 375 221 361.5 231.5 c 128,-1,13
 348 242 348 242 329.5 251 c 128,-1,14
 311 260 311 260 289 269 c 2,15,-1
 199 308 l 2,16,17
 175 318 175 318 151.5 333 c 128,-1,18
 128 348 128 348 109 369 c 128,-1,19
 90 390 90 390 78.5 418 c 128,-1,20
 67 446 67 446 67 482 c 0,21,22
 67 521 67 521 83.5 554.5 c 128,-1,23
 100 588 100 588 129 613 c 128,-1,24
 158 638 158 638 198.5 652 c 128,-1,25
 239 666 239 666 287 666 c 0,26,27
 344 666 344 666 397 643.5 c 128,-1,28
 450 621 450 621 488 583 c 1,29,-1
 429 509 l 1,30,31
 397 535 397 535 363 550 c 128,-1,32
 329 565 329 565 287 565 c 0,33,34
 240 565 240 565 212 544.5 c 128,-1,35
 184 524 184 524 184 488 c 0,36,37
 184 469 184 469 192.5 455.5 c 128,-1,38
 201 442 201 442 215.5 431.5 c 128,-1,39
 230 421 230 421 249 412.5 c 128,-1,40
 268 404 268 404 288 396 c 2,41,-1
 377 359 l 2,42,43
 406 347 406 347 430 331 c 128,-1,44
 454 315 454 315 471.5 294 c 128,-1,45
 489 273 489 273 499 245.5 c 128,-1,46
 509 218 509 218 509 182 c 0,47,48
 509 142 509 142 493 107 c 128,-1,49
 477 72 477 72 446.5 45.5 c 128,-1,50
 416 19 416 19 372.5 3.5 c 128,-1,51
 329 -12 329 -12 274 -12 c 0,0,1
EndSplineSet
Validated: 1
Substitution2: "'sups' Superscript lookup 27 subtable" S.sups
Substitution2: "'c2sc' Capitals to Small Capitals lookup 17 subtable" S.sc
AlternateSubs2: "'aalt' Access All Alternates lookup 1 subtable" S.sc S.sups
EndChar

StartChar: T
Encoding: 84 84 21
Width: 546
GlyphClass: 2
Flags: W
AnchorPoint: "Anchor-4" 273 -22 basechar 0
AnchorPoint: "Anchor-3" 273 0 basechar 0
AnchorPoint: "Anchor-1" 272 676 basechar 0
LayerCount: 2
Fore
SplineSet
215 0 m 1,0,-1
 215 556 l 1,1,-1
 26 556 l 1,2,-1
 26 654 l 1,3,-1
 520 654 l 1,4,-1
 520 556 l 1,5,-1
 331 556 l 1,6,-1
 331 0 l 1,7,-1
 215 0 l 1,0,-1
EndSplineSet
Validated: 1
Substitution2: "'sups' Superscript lookup 27 subtable" T.sups
Substitution2: "'c2sc' Capitals to Small Capitals lookup 17 subtable" T.sc
AlternateSubs2: "'aalt' Access All Alternates lookup 1 subtable" T.sc T.sups
EndChar

StartChar: U
Encoding: 85 85 22
Width: 655
GlyphClass: 2
Flags: W
AnchorPoint: "Anchor-8" 327 0 basechar 0
AnchorPoint: "Anchor-6" 535 664 basechar 0
AnchorPoint: "Anchor-4" 327 -22 basechar 0
AnchorPoint: "Anchor-1" 327 676 basechar 0
LayerCount: 2
Fore
SplineSet
328 -12 m 256,0,1
 271 -12 271 -12 225.5 4.5 c 128,-1,2
 180 21 180 21 147.5 57 c 128,-1,3
 115 93 115 93 97.5 149.5 c 128,-1,4
 80 206 80 206 80 287 c 2,5,-1
 80 654 l 1,6,-1
 196 654 l 1,7,-1
 196 278 l 2,8,9
 196 225 196 225 205.5 188.5 c 128,-1,10
 215 152 215 152 232.5 130 c 128,-1,11
 250 108 250 108 274 98.5 c 128,-1,12
 298 89 298 89 328 89 c 256,13,14
 358 89 358 89 383 98.5 c 128,-1,15
 408 108 408 108 426 130 c 128,-1,16
 444 152 444 152 454 188.5 c 128,-1,17
 464 225 464 225 464 278 c 2,18,-1
 464 654 l 1,19,-1
 575 654 l 1,20,-1
 575 287 l 2,21,22
 575 206 575 206 558 149.5 c 128,-1,23
 541 93 541 93 508.5 57 c 128,-1,24
 476 21 476 21 430.5 4.5 c 128,-1,25
 385 -12 385 -12 328 -12 c 256,0,1
EndSplineSet
Validated: 1
Substitution2: "'sups' Superscript lookup 27 subtable" U.sups
Substitution2: "'c2sc' Capitals to Small Capitals lookup 17 subtable" U.sc
AlternateSubs2: "'aalt' Access All Alternates lookup 1 subtable" U.sc U.sups
EndChar

StartChar: V
Encoding: 86 86 23
Width: 536
GlyphClass: 2
Flags: W
AnchorPoint: "Anchor-4" 267 -22 basechar 0
AnchorPoint: "Anchor-1" 268 676 basechar 0
LayerCount: 2
Fore
SplineSet
200 0 m 1,0,-1
 -4 654 l 1,1,-1
 119 654 l 1,2,-1
 211 325 l 2,3,4
 227 269 227 269 239.5 219 c 128,-1,5
 252 169 252 169 269 112 c 1,6,-1
 273 112 l 1,7,8
 290 169 290 169 302.5 219 c 128,-1,9
 315 269 315 269 330 325 c 2,10,-1
 421 654 l 1,11,-1
 540 654 l 1,12,-1
 337 0 l 1,13,-1
 200 0 l 1,0,-1
EndSplineSet
Validated: 1
Substitution2: "'sups' Superscript lookup 27 subtable" V.sups
Substitution2: "'c2sc' Capitals to Small Capitals lookup 17 subtable" V.sc
AlternateSubs2: "'aalt' Access All Alternates lookup 1 subtable" V.sc V.sups
EndChar

StartChar: W
Encoding: 87 87 24
Width: 800
GlyphClass: 2
Flags: W
AnchorPoint: "Anchor-4" 403 -22 basechar 0
AnchorPoint: "Anchor-1" 400 676 basechar 0
LayerCount: 2
Fore
SplineSet
148 0 m 1,0,-1
 18 654 l 1,1,-1
 137 654 l 1,2,-1
 194 324 l 2,3,4
 202 271 202 271 210 219 c 128,-1,5
 218 167 218 167 226 115 c 1,6,-1
 230 115 l 1,7,8
 241 167 241 167 251.5 219.5 c 128,-1,9
 262 272 262 272 273 324 c 2,10,-1
 353 654 l 1,11,-1
 454 654 l 1,12,-1
 534 324 l 2,13,14
 545 273 545 273 556 220.5 c 128,-1,15
 567 168 567 168 578 115 c 1,16,-1
 582 115 l 1,17,18
 590 168 590 168 597.5 220 c 128,-1,19
 605 272 605 272 613 324 c 2,20,-1
 670 654 l 1,21,-1
 781 654 l 1,22,-1
 656 0 l 1,23,-1
 512 0 l 1,24,-1
 431 344 l 2,25,26
 423 382 423 382 415.5 419.5 c 128,-1,27
 408 457 408 457 402 495 c 1,28,-1
 398 495 l 1,29,30
 391 457 391 457 383.5 419.5 c 128,-1,31
 376 382 376 382 368 344 c 2,32,-1
 289 0 l 1,33,-1
 148 0 l 1,0,-1
EndSplineSet
Validated: 1
Substitution2: "'sups' Superscript lookup 27 subtable" W.sups
Substitution2: "'c2sc' Capitals to Small Capitals lookup 17 subtable" W.sc
AlternateSubs2: "'aalt' Access All Alternates lookup 1 subtable" W.sc W.sups
EndChar

StartChar: X
Encoding: 88 88 25
Width: 541
GlyphClass: 2
Flags: W
AnchorPoint: "Anchor-4" 263 -22 basechar 0
AnchorPoint: "Anchor-1" 271 676 basechar 0
LayerCount: 2
Fore
SplineSet
13 0 m 1,0,-1
 199 337 l 1,1,-1
 25 654 l 1,2,-1
 154 654 l 1,3,-1
 226 509 l 2,4,5
 238 486 238 486 249.5 462 c 128,-1,6
 261 438 261 438 276 409 c 1,7,-1
 280 409 l 1,8,9
 292 438 292 438 302.5 462 c 128,-1,10
 313 486 313 486 324 509 c 2,11,-1
 393 654 l 1,12,-1
 516 654 l 1,13,-1
 342 332 l 1,14,-1
 528 0 l 1,15,-1
 399 0 l 1,16,-1
 319 154 l 2,17,18
 306 180 306 180 293.5 205.5 c 128,-1,19
 281 231 281 231 266 261 c 1,20,-1
 262 261 l 1,21,22
 249 231 249 231 237.5 205.5 c 128,-1,23
 226 180 226 180 214 154 c 2,24,-1
 136 0 l 1,25,-1
 13 0 l 1,0,-1
EndSplineSet
Validated: 1
Substitution2: "'sups' Superscript lookup 27 subtable" X.sups
Substitution2: "'c2sc' Capitals to Small Capitals lookup 17 subtable" X.sc
AlternateSubs2: "'aalt' Access All Alternates lookup 1 subtable" X.sc X.sups
EndChar

StartChar: Y
Encoding: 89 89 26
Width: 501
GlyphClass: 2
Flags: W
AnchorPoint: "Anchor-4" 252 -22 basechar 0
AnchorPoint: "Anchor-1" 250 676 basechar 0
LayerCount: 2
Fore
SplineSet
192 0 m 1,0,-1
 192 243 l 1,1,-1
 -4 654 l 1,2,-1
 120 654 l 1,3,-1
 191 487 l 2,4,5
 205 450 205 450 219 415.5 c 128,-1,6
 233 381 233 381 249 343 c 1,7,-1
 253 343 l 1,8,9
 269 381 269 381 284 415.5 c 128,-1,10
 299 450 299 450 313 487 c 2,11,-1
 384 654 l 1,12,-1
 505 654 l 1,13,-1
 308 243 l 1,14,-1
 308 0 l 1,15,-1
 192 0 l 1,0,-1
EndSplineSet
Validated: 1
Substitution2: "'sups' Superscript lookup 27 subtable" Y.sups
Substitution2: "'c2sc' Capitals to Small Capitals lookup 17 subtable" Y.sc
AlternateSubs2: "'aalt' Access All Alternates lookup 1 subtable" Y.sc Y.sups
EndChar

StartChar: Z
Encoding: 90 90 27
Width: 540
GlyphClass: 2
Flags: W
AnchorPoint: "Anchor-4" 282 -22 basechar 0
AnchorPoint: "Anchor-1" 282 676 basechar 0
LayerCount: 2
Fore
SplineSet
40 0 m 1,0,-1
 40 70 l 1,1,-1
 356 556 l 1,2,-1
 69 556 l 1,3,-1
 69 654 l 1,4,-1
 500 654 l 1,5,-1
 500 584 l 1,6,-1
 183 98 l 1,7,-1
 502 98 l 1,8,-1
 502 0 l 1,9,-1
 40 0 l 1,0,-1
EndSplineSet
Validated: 1
Substitution2: "'sups' Superscript lookup 27 subtable" Z.sups
Substitution2: "'c2sc' Capitals to Small Capitals lookup 17 subtable" Z.sc
AlternateSubs2: "'aalt' Access All Alternates lookup 1 subtable" Z.sc Z.sups
EndChar

StartChar: a
Encoding: 97 97 28
Width: 564
GlyphClass: 2
Flags: W
LayerCount: 2
Fore
SplineSet
245 -12 m 0,0,1
 152 -12 152 -12 97.5 55.5 c 128,-1,2
 43 123 43 123 43 245 c 0,3,4
 43 305 43 305 61 353 c 128,-1,5
 79 401 79 401 108 434 c 128,-1,6
 137 467 137 467 175 485 c 128,-1,7
 213 503 213 503 254 503 c 0,8,9
 293 503 293 503 324.5 488.5 c 128,-1,10
 356 474 356 474 387 443 c 1,11,-1
 390 443 l 1,12,-1
 399 491 l 1,13,-1
 491 491 l 1,14,-1
 491 226 l 1,15,-1
 491 147 l 1,16,-1
 491 120 l 2,17,18
 491 99 491 99 499 90.5 c 128,-1,19
 507 82 507 82 516 82 c 0,20,21
 520 82 520 82 523.5 82 c 128,-1,22
 527 82 527 82 534 84 c 1,23,-1
 549 -2 l 1,24,25
 526 -12 526 -12 488 -12 c 0,26,27
 426 -12 426 -12 401 25 c 0,28,29
 392.576183068 37.4672490592 392.576183068 37.4672490592 386.990793804 53 c 1,30,-1
 384 53 l 1,31,32
 357 26 357 26 321 7 c 128,-1,33
 285 -12 285 -12 245 -12 c 0,0,1
376 226 m 1,34,-1
 376 367 l 1,35,36
 350 390 350 390 325.5 399 c 128,-1,37
 301 408 301 408 276 408 c 0,38,39
 228 408 228 408 195 366 c 128,-1,40
 162 324 162 324 162 246 c 0,41,42
 162 166 162 166 190.5 124.5 c 128,-1,43
 219 83 219 83 273 83 c 0,44,45
 328 83 328 83 376 138 c 1,46,-1
 376 226 l 1,34,-1
EndSplineSet
Validated: 1
Substitution2: "'ss02' Style Set 2 lookup 39 subtable" a.a
Substitution2: "'sups' Superscript lookup 26 subtable" a.sups
Substitution2: "'smcp' Lowercase to Small Capitals lookup 20 subtable" A.sc
AlternateSubs2: "'aalt' Access All Alternates lookup 1 subtable" A.sc a.sups a.a
EndChar

StartChar: b
Encoding: 98 98 29
Width: 563
GlyphClass: 2
Flags: W
AnchorPoint: "Anchor-4" 289 -22 basechar 0
AnchorPoint: "Anchor-0" 133 730 basechar 0
LayerCount: 2
Fore
SplineSet
311 -12 m 0,0,1
 277 -12 277 -12 242.5 4.5 c 128,-1,2
 208 21 208 21 177 52 c 1,3,-1
 174 52 l 1,4,-1
 164 0 l 1,5,-1
 73 0 l 1,6,-1
 73 706 l 1,7,-1
 188 706 l 1,8,-1
 188 524 l 1,9,-1
 185 442 l 1,10,11
 216 469 216 469 252.5 486 c 128,-1,12
 289 503 289 503 327 503 c 0,13,14
 373 503 373 503 409 485.5 c 128,-1,15
 445 468 445 468 470 435.5 c 128,-1,16
 495 403 495 403 508 357 c 128,-1,17
 521 311 521 311 521 254 c 0,18,19
 521 191 521 191 503.5 141.5 c 128,-1,20
 486 92 486 92 457 58 c 128,-1,21
 428 24 428 24 390 6 c 128,-1,22
 352 -12 352 -12 311 -12 c 0,0,1
287 83 m 0,23,24
 336 83 336 83 369 125.5 c 128,-1,25
 402 168 402 168 402 252 c 0,26,27
 402 326 402 326 377 367 c 128,-1,28
 352 408 352 408 296 408 c 0,29,30
 244 408 244 408 188 353 c 1,31,-1
 188 124 l 1,32,33
 214 101 214 101 239.5 92 c 128,-1,34
 265 83 265 83 287 83 c 0,23,24
EndSplineSet
Validated: 1
Substitution2: "'sups' Superscript lookup 26 subtable" b.sups
Substitution2: "'smcp' Lowercase to Small Capitals lookup 20 subtable" B.sc
AlternateSubs2: "'aalt' Access All Alternates lookup 1 subtable" B.sc b.sups
EndChar

StartChar: c
Encoding: 99 99 30
Width: 462
GlyphClass: 2
Flags: W
AnchorPoint: "Anchor-4" 272 -22 basechar 0
AnchorPoint: "Anchor-3" 272 0 basechar 0
AnchorPoint: "Anchor-0" 275 514 basechar 0
LayerCount: 2
Fore
SplineSet
278 -12 m 0,0,1
 228 -12 228 -12 184.5 5 c 128,-1,2
 141 22 141 22 109 55 c 128,-1,3
 77 88 77 88 59 136 c 128,-1,4
 41 184 41 184 41 245 c 256,5,6
 41 306 41 306 61 354 c 128,-1,7
 81 402 81 402 115 435 c 128,-1,8
 149 468 149 468 193.5 485.5 c 128,-1,9
 238 503 238 503 287 503 c 0,10,11
 335 503 335 503 369.5 487 c 128,-1,12
 404 471 404 471 431 448 c 1,13,-1
 375 373 l 1,14,15
 355 390 355 390 335.5 399.5 c 128,-1,16
 316 409 316 409 293 409 c 0,17,18
 233 409 233 409 196 364.5 c 128,-1,19
 159 320 159 320 159 245 c 0,20,21
 159 171 159 171 195.5 126.5 c 128,-1,22
 232 82 232 82 290 82 c 0,23,24
 319 82 319 82 344.5 94.5 c 128,-1,25
 370 107 370 107 391 124 c 1,26,-1
 438 48 l 1,27,28
 403 18 403 18 361.5 3 c 128,-1,29
 320 -12 320 -12 278 -12 c 0,0,1
EndSplineSet
Validated: 1
Substitution2: "'sups' Superscript lookup 26 subtable" c.sups
Substitution2: "'smcp' Lowercase to Small Capitals lookup 20 subtable" C.sc
AlternateSubs2: "'aalt' Access All Alternates lookup 1 subtable" C.sc c.sups
EndChar

StartChar: d
Encoding: 100 100 31
Width: 564
GlyphClass: 2
Flags: W
AnchorPoint: "Anchor-4" 306 -22 basechar 0
AnchorPoint: "Anchor-0" 400 730 basechar 0
LayerCount: 2
Fore
SplineSet
245 -12 m 0,0,1
 152 -12 152 -12 97.5 55.5 c 128,-1,2
 43 123 43 123 43 245 c 0,3,4
 43 305 43 305 60.5 353 c 128,-1,5
 78 401 78 401 107 434 c 128,-1,6
 136 467 136 467 173.5 485 c 128,-1,7
 211 503 211 503 251 503 c 0,8,9
 293 503 293 503 322 488.5 c 128,-1,10
 351 474 351 474 380 449 c 1,11,-1
 376 528 l 1,12,-1
 376 706 l 1,13,-1
 491 706 l 1,14,-1
 491 226 l 1,15,-1
 491 120 l 2,16,17
 491 99 491 99 499 90.5 c 128,-1,18
 507 82 507 82 516 82 c 0,19,20
 520 82 520 82 523.5 82 c 128,-1,21
 527 82 527 82 534 84 c 1,22,-1
 549 -2 l 2,23,24
 548.013671875 -2.4287109375 548.013671875 -2.4287109375 547 -2.8388671875 c 0,25,26
 524.37109375 -12 524.37109375 -12 488 -12 c 0,27,28
 426 -12 426 -12 401 25 c 0,29,30
 392.576183068 37.4672490592 392.576183068 37.4672490592 386.990793804 53 c 1,31,-1
 384 53 l 1,32,33
 357 26 357 26 321 7 c 128,-1,34
 285 -12 285 -12 245 -12 c 0,0,1
376 226 m 1,35,-1
 376 367 l 1,36,37
 350 390 350 390 325.5 399 c 128,-1,38
 301 408 301 408 276 408 c 0,39,40
 228 408 228 408 195 366 c 128,-1,41
 162 324 162 324 162 246 c 0,42,43
 162 166 162 166 190.5 124.5 c 128,-1,44
 219 83 219 83 273 83 c 0,45,46
 328 83 328 83 376 138 c 1,47,-1
 376 226 l 1,35,-1
EndSplineSet
Validated: 1
Substitution2: "'sups' Superscript lookup 26 subtable" d.sups
Substitution2: "'smcp' Lowercase to Small Capitals lookup 20 subtable" D.sc
AlternateSubs2: "'aalt' Access All Alternates lookup 1 subtable" D.sc d.sups
EndChar

StartChar: e
Encoding: 101 101 32
Width: 507
GlyphClass: 2
Flags: W
AnchorPoint: "Anchor-7" 393 0 basechar 0
AnchorPoint: "Anchor-4" 266 -22 basechar 0
AnchorPoint: "Anchor-0" 267 514 basechar 0
LayerCount: 2
Fore
SplineSet
283 -12 m 0,0,1
 232 -12 232 -12 188 5.5 c 128,-1,2
 144 23 144 23 111 56 c 128,-1,3
 78 89 78 89 59.5 136.5 c 128,-1,4
 41 184 41 184 41 245 c 0,5,6
 41 305 41 305 60 353 c 128,-1,7
 79 401 79 401 110.5 434 c 128,-1,8
 142 467 142 467 183 485 c 128,-1,9
 224 503 224 503 267 503 c 0,10,11
 317 503 317 503 355 486 c 128,-1,12
 393 469 393 469 418.5 438 c 128,-1,13
 444 407 444 407 457 364 c 128,-1,14
 470 321 470 321 470 270 c 0,15,16
 470 253 470 253 468.5 238 c 128,-1,17
 467 223 467 223 465 214 c 1,18,-1
 153 214 l 1,19,20
 161 148 161 148 199.5 112.5 c 128,-1,21
 238 77 238 77 298 77 c 0,22,23
 330 77 330 77 357.5 86.5 c 128,-1,24
 385 96 385 96 412 113 c 1,25,-1
 451 41 l 1,26,27
 416 18 416 18 373 3 c 128,-1,28
 330 -12 330 -12 283 -12 c 0,0,1
152 292 m 1,29,-1
 370 292 l 1,30,31
 370 349 370 349 345.5 381.5 c 128,-1,32
 321 414 321 414 270 414 c 0,33,34
 226 414 226 414 193 383 c 128,-1,35
 160 352 160 352 152 292 c 1,29,-1
EndSplineSet
Validated: 1
Substitution2: "'sups' Superscript lookup 26 subtable" e.sups
Substitution2: "'smcp' Lowercase to Small Capitals lookup 20 subtable" E.sc
AlternateSubs2: "'aalt' Access All Alternates lookup 1 subtable" E.sc e.sups
EndChar

StartChar: f
Encoding: 102 102 33
Width: 317
GlyphClass: 2
Flags: W
AnchorPoint: "Anchor-4" 151 -22 basechar 0
AnchorPoint: "Anchor-0" 223 741 basechar 0
LayerCount: 2
Fore
SplineSet
93 0 m 1,0,-1
 93 400 l 1,1,-1
 27 400 l 1,2,-1
 27 486 l 1,3,-1
 93 491 l 1,4,-1
 93 542 l 2,5,6
 93 580 93 580 102 612.5 c 128,-1,7
 111 645 111 645 131 668.5 c 128,-1,8
 151 692 151 692 181.5 705 c 128,-1,9
 212 718 212 718 256 718 c 0,10,11
 282 718 282 718 305.5 713 c 128,-1,12
 329 708 329 708 346 701 c 1,13,-1
 324 615 l 1,14,15
 297 627 297 627 270 627 c 0,16,17
 208 627 208 627 208 544 c 2,18,-1
 208 491 l 1,19,-1
 304 491 l 1,20,-1
 304 400 l 1,21,-1
 208 400 l 1,22,-1
 208 0 l 1,23,-1
 93 0 l 1,0,-1
EndSplineSet
Validated: 1
Substitution2: "'sups' Superscript lookup 26 subtable" f.sups
Substitution2: "'smcp' Lowercase to Small Capitals lookup 20 subtable" F.sc
AlternateSubs2: "'aalt' Access All Alternates lookup 1 subtable" F.sc f.sups
EndChar

StartChar: g
Encoding: 103 103 34
Width: 571
GlyphClass: 2
Flags: W
LayerCount: 2
Fore
SplineSet
260 -205 m 0,0,1
 217 -205 217 -205 169 -191 c 128,-1,2
 121 -177 121 -177 80 -151 c 1,3,-1
 120 -73 l 1,4,5
 155 -95 155 -95 191.5 -104.5 c 128,-1,6
 228 -114 228 -114 260 -114 c 0,7,8
 321 -114 321 -114 349 -86 c 128,-1,9
 377 -58 377 -58 379 -10 c 2,10,-1
 382 66 l 1,11,12
 356 41 356 41 321.5 25 c 128,-1,13
 287 9 287 9 248 9 c 0,14,15
 202 9 202 9 165 26.5 c 128,-1,16
 128 44 128 44 101.5 76 c 128,-1,17
 75 108 75 108 61 153 c 128,-1,18
 47 198 47 198 47 254 c 0,19,20
 47 311 47 311 65 357 c 128,-1,21
 83 403 83 403 112 435.5 c 128,-1,22
 141 468 141 468 179 485.5 c 128,-1,23
 217 503 217 503 257 503 c 0,24,25
 296 503 296 503 327.5 489 c 128,-1,26
 359 475 359 475 388 446 c 1,27,-1
 392 446 l 1,28,-1
 400 491 l 1,29,-1
 494 491 l 1,30,-1
 494 -10 l 2,31,32
 494 -104 494 -104 433.5 -154.5 c 128,-1,33
 373 -205 373 -205 260 -205 c 0,0,1
277 103 m 0,34,35
 306 103 306 103 330 116.5 c 128,-1,36
 354 130 354 130 379 159 c 1,37,-1
 379 367 l 1,38,39
 354 390 354 390 329 399 c 128,-1,40
 304 408 304 408 279 408 c 0,41,42
 255 408 255 408 234.5 397.5 c 128,-1,43
 214 387 214 387 198 367 c 128,-1,44
 182 347 182 347 173 318.5 c 128,-1,45
 164 290 164 290 164 255 c 0,46,47
 164 183 164 183 193.5 143 c 128,-1,48
 223 103 223 103 277 103 c 0,34,35
EndSplineSet
Validated: 1
Substitution2: "'ss03' Style Set 3 lookup 41 subtable" g.a
Substitution2: "'sups' Superscript lookup 26 subtable" g.sups
Substitution2: "'smcp' Lowercase to Small Capitals lookup 20 subtable" G.sc
AlternateSubs2: "'aalt' Access All Alternates lookup 1 subtable" G.sc g.sups g.a
EndChar

StartChar: h
Encoding: 104 104 35
Width: 558
GlyphClass: 2
Flags: W
AnchorPoint: "Anchor-4" 290 -22 basechar 0
AnchorPoint: "Anchor-0" 130 730 basechar 0
LayerCount: 2
Fore
SplineSet
73 0 m 1,0,-1
 73 706 l 1,1,-1
 188 706 l 1,2,-1
 188 524 l 1,3,-1
 184 429 l 1,4,5
 215 458 215 458 252.5 480.5 c 128,-1,6
 290 503 290 503 341 503 c 0,7,8
 420 503 420 503 456 452.5 c 128,-1,9
 492 402 492 402 492 308 c 2,10,-1
 492 226 l 1,11,-1
 492 120 l 2,12,13
 492 99 492 99 500 90.5 c 128,-1,14
 508 82 508 82 517 82 c 0,15,16
 521 82 521 82 524.5 82 c 128,-1,17
 528 82 528 82 535 84 c 1,18,-1
 550 -2 l 1,19,20
 527 -12 527 -12 489 -12 c 0,21,22
 427 -12 427 -12 402 25 c 128,-1,23
 377 62 377 62 377 126 c 2,24,-1
 377 150 l 1,25,-1
 377 226 l 1,26,-1
 377 293 l 2,27,28
 377 354 377 354 359 379 c 128,-1,29
 341 404 341 404 300 404 c 0,30,31
 268 404 268 404 243.5 388.5 c 128,-1,32
 219 373 219 373 188 343 c 1,33,-1
 188 0 l 1,34,-1
 73 0 l 1,0,-1
EndSplineSet
Substitution2: "'sups' Superscript lookup 26 subtable" h.sups
Substitution2: "'smcp' Lowercase to Small Capitals lookup 20 subtable" H.sc
AlternateSubs2: "'aalt' Access All Alternates lookup 1 subtable" H.sc h.sups
EndChar

StartChar: i
Encoding: 105 105 36
Width: 262
GlyphClass: 2
Flags: W
AnchorPoint: "Anchor-7" 166 0 basechar 0
AnchorPoint: "Anchor-4" 130 -22 basechar 0
AnchorPoint: "Anchor-0" 130 709 basechar 0
LayerCount: 2
Fore
SplineSet
73 0 m 1,0,-1
 73 491 l 1,1,-1
 188 491 l 1,2,-1
 188 0 l 1,3,-1
 73 0 l 1,0,-1
131 577 m 256,4,5
 100 577 100 577 80 595 c 128,-1,6
 60 613 60 613 60 642 c 256,7,8
 60 671 60 671 80 689.5 c 128,-1,9
 100 708 100 708 131 708 c 256,10,11
 162 708 162 708 182 689.5 c 128,-1,12
 202 671 202 671 202 642 c 256,13,14
 202 613 202 613 182 595 c 128,-1,15
 162 577 162 577 131 577 c 256,4,5
EndSplineSet
Validated: 1
Substitution2: "'sups' Superscript lookup 26 subtable" i.sups
Substitution2: "'smcp' Lowercase to Small Capitals lookup 20 subtable" I.sc
Substitution2: "'locl' Localized Forms in Latin lookup 2 subtable" i.trk
AlternateSubs2: "'aalt' Access All Alternates lookup 1 subtable" i.trk I.sc i.sups
EndChar

StartChar: j
Encoding: 106 106 37
Width: 263
GlyphClass: 2
Flags: W
AnchorPoint: "Anchor-4" 69 -233 basechar 0
AnchorPoint: "Anchor-0" 133 709 basechar 0
LayerCount: 2
Fore
SplineSet
34 -206 m 0,0,1
 7 -206 7 -206 -12.5 -202 c 128,-1,2
 -32 -198 -32 -198 -46 -193 c 1,3,-1
 -24 -107 l 1,4,5
 -14 -110 -14 -110 -3.5 -112.5 c 128,-1,6
 7 -115 7 -115 18 -115 c 0,7,8
 51 -115 51 -115 62.5 -92.5 c 128,-1,9
 74 -70 74 -70 74 -27 c 2,10,-1
 74 491 l 1,11,-1
 190 491 l 1,12,-1
 190 -25 l 2,13,14
 190 -64 190 -64 182 -97 c 128,-1,15
 174 -130 174 -130 155.5 -154.5 c 128,-1,16
 137 -179 137 -179 107 -192.5 c 128,-1,17
 77 -206 77 -206 34 -206 c 0,0,1
132 577 m 0,18,19
 102 577 102 577 81.5 595 c 128,-1,20
 61 613 61 613 61 642 c 256,21,22
 61 671 61 671 81.5 689.5 c 128,-1,23
 102 708 102 708 132 708 c 0,24,25
 163 708 163 708 183.5 689.5 c 128,-1,26
 204 671 204 671 204 642 c 256,27,28
 204 613 204 613 183.5 595 c 128,-1,29
 163 577 163 577 132 577 c 0,18,19
EndSplineSet
Validated: 1
Substitution2: "'sups' Superscript lookup 26 subtable" j.sups
Substitution2: "'smcp' Lowercase to Small Capitals lookup 20 subtable" J.sc
AlternateSubs2: "'aalt' Access All Alternates lookup 1 subtable" J.sc j.sups
EndChar

StartChar: k
Encoding: 107 107 38
Width: 522
GlyphClass: 2
Flags: W
AnchorPoint: "Anchor-4" 283 -22 basechar 0
AnchorPoint: "Anchor-0" 133 730 basechar 0
LayerCount: 2
Fore
SplineSet
73 0 m 1,0,-1
 73 706 l 1,1,-1
 186 706 l 1,2,-1
 186 265 l 1,3,-1
 189 265 l 1,4,-1
 371 491 l 1,5,-1
 497 491 l 1,6,-1
 329 291 l 1,7,-1
 514 0 l 1,8,-1
 389 0 l 1,9,-1
 263 213 l 1,10,-1
 186 125 l 1,11,-1
 186 0 l 1,12,-1
 73 0 l 1,0,-1
EndSplineSet
Validated: 1
Substitution2: "'sups' Superscript lookup 26 subtable" k.sups
Substitution2: "'smcp' Lowercase to Small Capitals lookup 20 subtable" K.sc
AlternateSubs2: "'aalt' Access All Alternates lookup 1 subtable" K.sc k.sups
EndChar

StartChar: l
Encoding: 108 108 39
Width: 271
GlyphClass: 2
Flags: W
AnchorPoint: "Anchor-4" 130 -22 basechar 0
AnchorPoint: "Anchor-0" 130 730 basechar 0
LayerCount: 2
Fore
SplineSet
185 -12 m 4,0,1
 123 -12 123 -12 98 25 c 132,-1,2
 73 62 73 62 73 126 c 6,3,-1
 73 706 l 5,4,-1
 188 706 l 5,5,-1
 188 120 l 6,6,7
 188 99 188 99 196 90.5 c 132,-1,8
 204 82 204 82 213 82 c 4,9,10
 217 82 217 82 220.5 82 c 132,-1,11
 224 82 224 82 231 84 c 5,12,-1
 246 -2 l 5,13,14
 223 -12 223 -12 185 -12 c 4,0,1
EndSplineSet
Validated: 1
Substitution2: "'ss01' Style Set 1 lookup 36 subtable" l.a
Substitution2: "'sups' Superscript lookup 26 subtable" l.sups
Substitution2: "'smcp' Lowercase to Small Capitals lookup 20 subtable" L.sc
AlternateSubs2: "'aalt' Access All Alternates lookup 1 subtable" L.sc l.sups l.a
EndChar

StartChar: m
Encoding: 109 109 40
Width: 843
GlyphClass: 2
Flags: W
AnchorPoint: "Anchor-4" 432 -22 basechar 0
AnchorPoint: "Anchor-0" 429 514 basechar 0
LayerCount: 2
Fore
SplineSet
73 0 m 1,0,-1
 73 491 l 1,1,-1
 168 491 l 1,2,-1
 176 424 l 1,3,-1
 180 424 l 1,4,5
 211 457 211 457 247.5 480 c 128,-1,6
 284 503 284 503 330 503 c 0,7,8
 384 503 384 503 416.5 480 c 128,-1,9
 449 457 449 457 466 415 c 1,10,11
 501 453 501 453 539 478 c 128,-1,12
 577 503 577 503 624 503 c 0,13,14
 702 503 702 503 739 452.5 c 128,-1,15
 776 402 776 402 776 308 c 2,16,-1
 776 226 l 1,17,-1
 776 120 l 2,18,19
 776 99 776 99 784 90.5 c 128,-1,20
 792 82 792 82 801 82 c 0,21,22
 805 82 805 82 808.5 82 c 128,-1,23
 812 82 812 82 819 84 c 1,24,-1
 834 -2 l 1,25,26
 811 -12 811 -12 773 -12 c 0,27,28
 711 -12 711 -12 685.5 25 c 128,-1,29
 660 62 660 62 660 126 c 2,30,-1
 660 140 l 1,31,-1
 660 226 l 1,32,-1
 660 293 l 2,33,34
 660 354 660 354 641.5 379 c 128,-1,35
 623 404 623 404 585 404 c 0,36,37
 539 404 539 404 482 343 c 1,38,-1
 482 0 l 1,39,-1
 367 0 l 1,40,-1
 367 293 l 2,41,42
 367 354 367 354 348.5 379 c 128,-1,43
 330 404 330 404 291 404 c 0,44,45
 245 404 245 404 188 343 c 1,46,-1
 188 0 l 1,47,-1
 73 0 l 1,0,-1
EndSplineSet
Validated: 1
Substitution2: "'sups' Superscript lookup 26 subtable" m.sups
Substitution2: "'smcp' Lowercase to Small Capitals lookup 20 subtable" M.sc
AlternateSubs2: "'aalt' Access All Alternates lookup 1 subtable" M.sc m.sups
EndChar

StartChar: n
Encoding: 110 110 41
Width: 560
GlyphClass: 2
Flags: W
AnchorPoint: "Anchor-4" 285 -22 basechar 0
AnchorPoint: "Anchor-0" 300 514 basechar 0
LayerCount: 2
Fore
SplineSet
73 0 m 1,0,-1
 73 491 l 1,1,-1
 168 491 l 1,2,-1
 176 425 l 1,3,-1
 180 425 l 1,4,5
 213 457 213 457 251.5 480 c 128,-1,6
 290 503 290 503 341 503 c 0,7,8
 420 503 420 503 456 452.5 c 128,-1,9
 492 402 492 402 492 308 c 2,10,-1
 492 226 l 1,11,-1
 492 120 l 2,12,13
 492 99 492 99 500 90.5 c 128,-1,14
 508 82 508 82 517 82 c 0,15,16
 521 82 521 82 524.5 82 c 128,-1,17
 528 82 528 82 535 84 c 1,18,-1
 550 -2 l 1,19,20
 527 -12 527 -12 489 -12 c 0,21,22
 427 -12 427 -12 402 25 c 128,-1,23
 377 62 377 62 377 126 c 2,24,-1
 377 150 l 1,25,-1
 377 226 l 1,26,-1
 377 293 l 2,27,28
 377 354 377 354 359 379 c 128,-1,29
 341 404 341 404 300 404 c 0,30,31
 268 404 268 404 243.5 388.5 c 128,-1,32
 219 373 219 373 188 343 c 1,33,-1
 188 0 l 1,34,-1
 73 0 l 1,0,-1
EndSplineSet
Validated: 1
Substitution2: "'sups' Superscript lookup 26 subtable" n.sups
Substitution2: "'smcp' Lowercase to Small Capitals lookup 20 subtable" N.sc
AlternateSubs2: "'aalt' Access All Alternates lookup 1 subtable" N.sc n.sups
EndChar

StartChar: o
Encoding: 111 111 42
Width: 549
GlyphClass: 2
Flags: W
AnchorPoint: "Anchor-7" 325 0 basechar 0
AnchorPoint: "Anchor-6" 368 491 basechar 0
AnchorPoint: "Anchor-4" 274 -22 basechar 0
AnchorPoint: "Anchor-0" 274 514 basechar 0
LayerCount: 2
Fore
SplineSet
274 -12 m 256,0,1
 228 -12 228 -12 186 5 c 128,-1,2
 144 22 144 22 111.5 55 c 128,-1,3
 79 88 79 88 60 136 c 128,-1,4
 41 184 41 184 41 245 c 256,5,6
 41 306 41 306 60 354 c 128,-1,7
 79 402 79 402 111.5 435 c 128,-1,8
 144 468 144 468 186 485.5 c 128,-1,9
 228 503 228 503 274 503 c 256,10,11
 320 503 320 503 362.5 485.5 c 128,-1,12
 405 468 405 468 437 435 c 128,-1,13
 469 402 469 402 488.5 354 c 128,-1,14
 508 306 508 306 508 245 c 256,15,16
 508 184 508 184 488.5 136 c 128,-1,17
 469 88 469 88 437 55 c 128,-1,18
 405 22 405 22 362.5 5 c 128,-1,19
 320 -12 320 -12 274 -12 c 256,0,1
274 82 m 256,20,21
 328 82 328 82 359 126.5 c 128,-1,22
 390 171 390 171 390 245 c 0,23,24
 390 320 390 320 359 364.5 c 128,-1,25
 328 409 328 409 274 409 c 256,26,27
 220 409 220 409 189.5 364.5 c 128,-1,28
 159 320 159 320 159 245 c 0,29,30
 159 171 159 171 189.5 126.5 c 128,-1,31
 220 82 220 82 274 82 c 256,20,21
EndSplineSet
Validated: 1
Substitution2: "'sups' Superscript lookup 26 subtable" o.sups
Substitution2: "'smcp' Lowercase to Small Capitals lookup 20 subtable" O.sc
AlternateSubs2: "'aalt' Access All Alternates lookup 1 subtable" O.sc o.sups
EndChar

StartChar: p
Encoding: 112 112 43
Width: 564
GlyphClass: 2
Flags: W
AnchorPoint: "Anchor-4" 123 -218 basechar 0
AnchorPoint: "Anchor-0" 300 514 basechar 0
LayerCount: 2
Fore
SplineSet
73 -194 m 1,0,-1
 73 491 l 1,1,-1
 168 491 l 1,2,-1
 176 439 l 1,3,-1
 180 439 l 1,4,5
 211 465 211 465 249 484 c 128,-1,6
 287 503 287 503 328 503 c 0,7,8
 374 503 374 503 409.5 485.5 c 128,-1,9
 445 468 445 468 470 435 c 128,-1,10
 495 402 495 402 508 356 c 128,-1,11
 521 310 521 310 521 253 c 0,12,13
 521 190 521 190 503.5 140.5 c 128,-1,14
 486 91 486 91 457 57.5 c 128,-1,15
 428 24 428 24 390 6 c 128,-1,16
 352 -12 352 -12 311 -12 c 0,17,18
 279 -12 279 -12 247 2 c 128,-1,19
 215 16 215 16 185 42 c 1,20,-1
 188 -40 l 1,21,-1
 188 -194 l 1,22,-1
 73 -194 l 1,0,-1
287 83 m 0,23,24
 336 83 336 83 369 125.5 c 128,-1,25
 402 168 402 168 402 252 c 0,26,27
 402 326 402 326 377 367 c 128,-1,28
 352 408 352 408 296 408 c 0,29,30
 244 408 244 408 188 353 c 1,31,-1
 188 124 l 1,32,33
 215 101 215 101 240 92 c 128,-1,34
 265 83 265 83 287 83 c 0,23,24
EndSplineSet
Validated: 1
Substitution2: "'sups' Superscript lookup 26 subtable" p.sups
Substitution2: "'smcp' Lowercase to Small Capitals lookup 20 subtable" P.sc
AlternateSubs2: "'aalt' Access All Alternates lookup 1 subtable" P.sc p.sups
EndChar

StartChar: q
Encoding: 113 113 44
Width: 564
GlyphClass: 2
Flags: W
AnchorPoint: "Anchor-4" 428 -218 basechar 0
AnchorPoint: "Anchor-0" 285 514 basechar 0
LayerCount: 2
Fore
SplineSet
273 83 m 0,0,1
 328 83 328 83 376 138 c 1,2,-1
 376 367 l 1,3,4
 350 390 350 390 325.5 399 c 128,-1,5
 301 408 301 408 276 408 c 0,6,7
 228 408 228 408 195 366 c 128,-1,8
 162 324 162 324 162 246 c 0,9,10
 162 166 162 166 190.5 124.5 c 128,-1,11
 219 83 219 83 273 83 c 0,0,1
488 -204 m 0,12,13
 426 -204 426 -204 401 -167 c 128,-1,14
 376 -130 376 -130 376 -66 c 2,15,-1
 376 -54 l 1,16,-1
 376 -46 l 1,17,-1
 376 -33 l 1,18,-1
 380 49 l 1,19,20
 353 23 353 23 318 5.5 c 128,-1,21
 283 -12 283 -12 245 -12 c 0,22,23
 152 -12 152 -12 97.5 55.5 c 128,-1,24
 43 123 43 123 43 245 c 0,25,26
 43 305 43 305 60.5 353 c 128,-1,27
 78 401 78 401 107 434 c 128,-1,28
 136 467 136 467 173.5 485 c 128,-1,29
 211 503 211 503 251 503 c 0,30,31
 293 503 293 503 324.5 488.5 c 128,-1,32
 356 474 356 474 387 444 c 1,33,-1
 390 444 l 1,34,-1
 400 491 l 1,35,-1
 491 491 l 1,36,-1
 491 34 l 1,37,-1
 491 -72 l 2,38,39
 491 -93 491 -93 499 -101.5 c 128,-1,40
 507 -110 507 -110 516 -110 c 0,41,42
 520 -110 520 -110 523.5 -110 c 128,-1,43
 527 -110 527 -110 534 -108 c 1,44,-1
 549 -194 l 1,45,46
 526 -204 526 -204 488 -204 c 0,12,13
EndSplineSet
Validated: 1
Substitution2: "'sups' Superscript lookup 26 subtable" q.sups
Substitution2: "'smcp' Lowercase to Small Capitals lookup 20 subtable" Q.sc
AlternateSubs2: "'aalt' Access All Alternates lookup 1 subtable" Q.sc q.sups
EndChar

StartChar: r
Encoding: 114 114 45
Width: 373
GlyphClass: 2
Flags: W
AnchorPoint: "Anchor-4" 130 -22 basechar 0
AnchorPoint: "Anchor-0" 232 514 basechar 0
LayerCount: 2
Fore
SplineSet
73 0 m 1,0,-1
 73 491 l 1,1,-1
 168 491 l 1,2,-1
 176 404 l 1,3,-1
 180 404 l 1,4,5
 206 452 206 452 243 477.5 c 128,-1,6
 280 503 280 503 319 503 c 0,7,8
 354 503 354 503 375 493 c 1,9,-1
 355 393 l 1,10,11
 342 397 342 397 331 399 c 128,-1,12
 320 401 320 401 304 401 c 0,13,14
 275 401 275 401 243 378.5 c 128,-1,15
 211 356 211 356 188 300 c 1,16,-1
 188 0 l 1,17,-1
 73 0 l 1,0,-1
EndSplineSet
Validated: 1
Substitution2: "'sups' Superscript lookup 26 subtable" r.sups
Substitution2: "'smcp' Lowercase to Small Capitals lookup 20 subtable" R.sc
AlternateSubs2: "'aalt' Access All Alternates lookup 1 subtable" R.sc r.sups
EndChar

StartChar: s
Encoding: 115 115 46
Width: 431
GlyphClass: 2
Flags: W
AnchorPoint: "Anchor-4" 228 -22 basechar 0
AnchorPoint: "Anchor-3" 228 0 basechar 0
AnchorPoint: "Anchor-0" 228 514 basechar 0
LayerCount: 2
Fore
SplineSet
210 -12 m 0,0,1
 159 -12 159 -12 109.5 7.5 c 128,-1,2
 60 27 60 27 24 56 c 1,3,-1
 78 130 l 1,4,5
 111 104 111 104 143.5 89.5 c 128,-1,6
 176 75 176 75 214 75 c 0,7,8
 254 75 254 75 273 91.5 c 128,-1,9
 292 108 292 108 292 134 c 0,10,11
 292 149 292 149 283 160.5 c 128,-1,12
 274 172 274 172 259 181 c 128,-1,13
 244 190 244 190 225 197.5 c 128,-1,14
 206 205 206 205 187 213 c 0,15,16
 163 222 163 222 138 234 c 128,-1,17
 113 246 113 246 93.5 263 c 128,-1,18
 74 280 74 280 61.5 302.5 c 128,-1,19
 49 325 49 325 49 356 c 0,20,21
 49 421 49 421 97 462 c 128,-1,22
 145 503 145 503 228 503 c 0,23,24
 279 503 279 503 320 485 c 128,-1,25
 361 467 361 467 391 444 c 1,26,-1
 338 374 l 1,27,28
 312 393 312 393 285.5 404.5 c 128,-1,29
 259 416 259 416 230 416 c 0,30,31
 193 416 193 416 175.5 400.5 c 128,-1,32
 158 385 158 385 158 362 c 0,33,34
 158 347 158 347 166.5 336.5 c 128,-1,35
 175 326 175 326 189 318 c 128,-1,36
 203 310 203 310 221.5 303 c 128,-1,37
 240 296 240 296 260 289 c 0,38,39
 285 280 285 280 310 268.5 c 128,-1,40
 335 257 335 257 355.5 240 c 128,-1,41
 376 223 376 223 388.5 198.5 c 128,-1,42
 401 174 401 174 401 140 c 0,43,44
 401 108 401 108 388.5 80.5 c 128,-1,45
 376 53 376 53 352 32.5 c 128,-1,46
 328 12 328 12 292 0 c 128,-1,47
 256 -12 256 -12 210 -12 c 0,0,1
EndSplineSet
Validated: 1
Substitution2: "'sups' Superscript lookup 26 subtable" s.sups
Substitution2: "'smcp' Lowercase to Small Capitals lookup 20 subtable" S.sc
AlternateSubs2: "'aalt' Access All Alternates lookup 1 subtable" S.sc s.sups
EndChar

StartChar: t
Encoding: 116 116 47
Width: 361
GlyphClass: 2
Flags: W
AnchorPoint: "Anchor-4" 224 -22 basechar 0
AnchorPoint: "Anchor-3" 227 0 basechar 0
AnchorPoint: "Anchor-0" 155 650 basechar 0
LayerCount: 2
Fore
SplineSet
246 -12 m 0,0,1
 203 -12 203 -12 173.5 1 c 128,-1,2
 144 14 144 14 125.5 37.5 c 128,-1,3
 107 61 107 61 98.5 93.5 c 128,-1,4
 90 126 90 126 90 166 c 2,5,-1
 90 400 l 1,6,-1
 20 400 l 1,7,-1
 20 486 l 1,8,-1
 96 491 l 1,9,-1
 110 625 l 1,10,-1
 206 625 l 1,11,-1
 206 491 l 1,12,-1
 331 491 l 1,13,-1
 331 400 l 1,14,-1
 206 400 l 1,15,-1
 206 166 l 2,16,17
 206 80 206 80 275 80 c 0,18,19
 288 80 288 80 301.5 83 c 128,-1,20
 315 86 315 86 326 91 c 1,21,-1
 346 6 l 1,22,23
 326 -1 326 -1 300.5 -6.5 c 128,-1,24
 275 -12 275 -12 246 -12 c 0,0,1
EndSplineSet
Validated: 1
Substitution2: "'sups' Superscript lookup 26 subtable" t.sups
Substitution2: "'smcp' Lowercase to Small Capitals lookup 20 subtable" T.sc
AlternateSubs2: "'aalt' Access All Alternates lookup 1 subtable" T.sc t.sups
EndChar

StartChar: u
Encoding: 117 117 48
Width: 556
GlyphClass: 2
Flags: W
AnchorPoint: "Anchor-7" 442 0 basechar 0
AnchorPoint: "Anchor-6" 421 501 basechar 0
AnchorPoint: "Anchor-4" 297 -22 basechar 0
AnchorPoint: "Anchor-0" 279 514 basechar 0
LayerCount: 2
Fore
SplineSet
219 -12 m 0,0,1
 140 -12 140 -12 104 38.5 c 128,-1,2
 68 89 68 89 68 183 c 2,3,-1
 68 491 l 1,4,-1
 183 491 l 1,5,-1
 183 198 l 2,6,7
 183 137 183 137 201 112 c 128,-1,8
 219 87 219 87 259 87 c 0,9,10
 291 87 291 87 315.5 103 c 128,-1,11
 340 119 340 119 368 155 c 1,12,-1
 368 491 l 1,13,-1
 483 491 l 1,14,-1
 483 226 l 1,15,-1
 483 120 l 2,16,17
 483 99 483 99 491 90.5 c 128,-1,18
 499 82 499 82 508 82 c 0,19,20
 512 82 512 82 515.5 82 c 128,-1,21
 519 82 519 82 526 84 c 1,22,-1
 541 -2 l 1,23,24
 518 -12 518 -12 485 -12 c 0,25,26
 423 -12 423 -12 398 25 c 0,27,28
 384.702348006 44.6805249512 384.702348006 44.6805249512 378.477797954 72 c 1,29,-1
 377 72 l 1,30,31
 345 34 345 34 307.5 11 c 128,-1,32
 270 -12 270 -12 219 -12 c 0,0,1
EndSplineSet
Validated: 1
Substitution2: "'sups' Superscript lookup 26 subtable" u.sups
Substitution2: "'smcp' Lowercase to Small Capitals lookup 20 subtable" U.sc
AlternateSubs2: "'aalt' Access All Alternates lookup 1 subtable" U.sc u.sups
EndChar

StartChar: v
Encoding: 118 118 49
Width: 495
GlyphClass: 2
Flags: W
AnchorPoint: "Anchor-4" 249 -22 basechar 0
AnchorPoint: "Anchor-0" 249 514 basechar 0
LayerCount: 2
Fore
SplineSet
183 0 m 1,0,-1
 12 491 l 1,1,-1
 129 491 l 1,2,-1
 207 236 l 2,3,4
 217 200 217 200 227.5 163 c 128,-1,5
 238 126 238 126 248 88 c 1,6,-1
 252 88 l 1,7,8
 263 126 263 126 273 163 c 128,-1,9
 283 200 283 200 294 236 c 2,10,-1
 372 491 l 1,11,-1
 483 491 l 1,12,-1
 316 0 l 1,13,-1
 183 0 l 1,0,-1
EndSplineSet
Validated: 1
Substitution2: "'sups' Superscript lookup 26 subtable" v.sups
Substitution2: "'smcp' Lowercase to Small Capitals lookup 20 subtable" V.sc
AlternateSubs2: "'aalt' Access All Alternates lookup 1 subtable" V.sc v.sups
EndChar

StartChar: w
Encoding: 119 119 50
Width: 748
GlyphClass: 2
Flags: W
AnchorPoint: "Anchor-4" 374 -22 basechar 0
AnchorPoint: "Anchor-0" 374 514 basechar 0
LayerCount: 2
Fore
SplineSet
154 0 m 1,0,-1
 24 491 l 1,1,-1
 140 491 l 1,2,-1
 199 236 l 2,3,4
 207 201 207 201 212.5 166 c 128,-1,5
 218 131 218 131 225 95 c 1,6,-1
 229 95 l 1,7,8
 236 131 236 131 243.5 166 c 128,-1,9
 251 201 251 201 260 236 c 2,10,-1
 324 491 l 1,11,-1
 429 491 l 1,12,-1
 494 236 l 2,13,14
 503 201 503 201 511 166 c 128,-1,15
 519 131 519 131 527 95 c 1,16,-1
 531 95 l 1,17,18
 538 131 538 131 544 166 c 128,-1,19
 550 201 550 201 557 236 c 2,20,-1
 616 491 l 1,21,-1
 724 491 l 1,22,-1
 599 0 l 1,23,-1
 462 0 l 1,24,-1
 405 229 l 2,25,26
 397 264 397 264 390 298.5 c 128,-1,27
 383 333 383 333 375 372 c 1,28,-1
 371 372 l 1,29,30
 364 333 364 333 357 298 c 128,-1,31
 350 263 350 263 342 228 c 2,32,-1
 286 0 l 1,33,-1
 154 0 l 1,0,-1
EndSplineSet
Validated: 1
Substitution2: "'sups' Superscript lookup 26 subtable" w.sups
Substitution2: "'smcp' Lowercase to Small Capitals lookup 20 subtable" W.sc
AlternateSubs2: "'aalt' Access All Alternates lookup 1 subtable" W.sc w.sups
EndChar

StartChar: x
Encoding: 120 120 51
Width: 481
GlyphClass: 2
Flags: W
AnchorPoint: "Anchor-4" 240 -22 basechar 0
AnchorPoint: "Anchor-0" 240 514 basechar 0
LayerCount: 2
Fore
SplineSet
14 0 m 1,0,-1
 170 256 l 1,1,-1
 24 491 l 1,2,-1
 148 491 l 1,3,-1
 203 398 l 2,4,5
 214 378 214 378 225.5 356.5 c 128,-1,6
 237 335 237 335 248 315 c 1,7,-1
 252 315 l 1,8,9
 261 335 261 335 271 356.5 c 128,-1,10
 281 378 281 378 290 398 c 2,11,-1
 337 491 l 1,12,-1
 456 491 l 1,13,-1
 311 243 l 1,14,-1
 467 0 l 1,15,-1
 343 0 l 1,16,-1
 283 97 l 2,17,18
 271 119 271 119 258.5 141 c 128,-1,19
 246 163 246 163 233 184 c 1,20,-1
 229 184 l 1,21,22
 218 163 218 163 207.5 141.5 c 128,-1,23
 197 120 197 120 186 97 c 2,24,-1
 134 0 l 1,25,-1
 14 0 l 1,0,-1
EndSplineSet
Validated: 1
Substitution2: "'sups' Superscript lookup 26 subtable" x.sups
Substitution2: "'smcp' Lowercase to Small Capitals lookup 20 subtable" X.sc
AlternateSubs2: "'aalt' Access All Alternates lookup 1 subtable" X.sc x.sups
EndChar

StartChar: y
Encoding: 121 121 52
Width: 495
GlyphClass: 2
Flags: W
AnchorPoint: "Anchor-4" 214 -241 basechar 0
AnchorPoint: "Anchor-0" 255 514 basechar 0
LayerCount: 2
Fore
SplineSet
106 -202 m 0,0,1
 86 -202 86 -202 71 -199.5 c 128,-1,2
 56 -197 56 -197 42 -192 c 1,3,-1
 63 -102 l 1,4,5
 70 -104 70 -104 79.5 -106.5 c 128,-1,6
 89 -109 89 -109 98 -109 c 0,7,8
 137 -109 137 -109 160.5 -85.5 c 128,-1,9
 184 -62 184 -62 196 -25 c 2,10,-1
 205 6 l 1,11,-1
 12 491 l 1,12,-1
 129 491 l 1,13,-1
 214 250 l 2,14,15
 225 218 225 218 235.5 182.5 c 128,-1,16
 246 147 246 147 257 112 c 1,17,-1
 261 112 l 1,18,19
 270 146 270 146 279.5 181.5 c 128,-1,20
 289 217 289 217 298 250 c 2,21,-1
 372 491 l 1,22,-1
 483 491 l 1,23,-1
 305 -22 l 2,24,25
 290 -64 290 -64 272 -97 c 128,-1,26
 254 -130 254 -130 230.5 -153.5 c 128,-1,27
 207 -177 207 -177 176.5 -189.5 c 128,-1,28
 146 -202 146 -202 106 -202 c 0,0,1
EndSplineSet
Validated: 1
Substitution2: "'sups' Superscript lookup 26 subtable" y.sups
Substitution2: "'smcp' Lowercase to Small Capitals lookup 20 subtable" Y.sc
AlternateSubs2: "'aalt' Access All Alternates lookup 1 subtable" Y.sc y.sups
EndChar

StartChar: z
Encoding: 122 122 53
Width: 443
GlyphClass: 2
Flags: W
AnchorPoint: "Anchor-4" 237 -22 basechar 0
AnchorPoint: "Anchor-0" 238 514 basechar 0
LayerCount: 2
Fore
SplineSet
34 0 m 1,0,-1
 34 62 l 1,1,-1
 266 400 l 1,2,-1
 60 400 l 1,3,-1
 60 491 l 1,4,-1
 410 491 l 1,5,-1
 410 430 l 1,6,-1
 179 92 l 1,7,-1
 418 92 l 1,8,-1
 418 0 l 1,9,-1
 34 0 l 1,0,-1
EndSplineSet
Validated: 1
Substitution2: "'sups' Superscript lookup 26 subtable" z.sups
Substitution2: "'smcp' Lowercase to Small Capitals lookup 20 subtable" Z.sc
AlternateSubs2: "'aalt' Access All Alternates lookup 1 subtable" Z.sc z.sups
EndChar

StartChar: Aogonek
Encoding: 260 260 75
Width: 558
GlyphClass: 2
Flags: W
AnchorPoint: "Anchor-1" 279 676 basechar 0
LayerCount: 2
Fore
SplineSet
494 -218 m 0,0,1
 450 -218 450 -218 419.5 -195 c 128,-1,2
 389 -172 389 -172 389 -127 c 0,3,4
 389 -105 389 -105 396.5 -85.5 c 128,-1,5
 404 -66 404 -66 415.5 -49.5 c 128,-1,6
 427 -33 427 -33 441 -20.5 c 128,-1,7
 455 -8 455 -8 467 0 c 1,8,-1
 438 0 l 1,9,-1
 387 177 l 1,10,-1
 167 177 l 1,11,-1
 116 0 l 1,12,-1
 -2 0 l 1,13,-1
 211 654 l 1,14,-1
 347 654 l 1,15,-1
 560 0 l 1,16,17
 541 -5 541 -5 525.5 -15 c 128,-1,18
 510 -25 510 -25 498.5 -38.5 c 128,-1,19
 487 -52 487 -52 481 -67.5 c 128,-1,20
 475 -83 475 -83 475 -98 c 0,21,22
 475 -119 475 -119 488 -129.5 c 128,-1,23
 501 -140 501 -140 518 -140 c 0,24,25
 541 -140 541 -140 558 -126 c 1,26,-1
 586 -186 l 1,27,28
 569 -200 569 -200 543 -209 c 128,-1,29
 517 -218 517 -218 494 -218 c 0,0,1
217 348 m 2,30,-1
 194 268 l 1,31,-1
 361 268 l 1,32,-1
 338 348 l 2,33,34
 322 400 322 400 307.5 455 c 128,-1,35
 293 510 293 510 279 564 c 1,36,-1
 275 564 l 1,37,38
 261 509 261 509 247 454.5 c 128,-1,39
 233 400 233 400 217 348 c 2,30,-1
EndSplineSet
Validated: 1
Substitution2: "'c2sc' Capitals to Small Capitals lookup 17 subtable" Aogonek.sc
Ligature2: "'ccmp' Glyph Composition/Decomposition lookup 11 subtable" A uni0328
Substitution2: "'aalt' Access All Alternates lookup 0 subtable" Aogonek.sc
EndChar

StartChar: AE
Encoding: 198 198 76
Width: 834
GlyphClass: 2
Flags: W
AnchorPoint: "Anchor-1" 550 694 basechar 0
LayerCount: 2
Fore
SplineSet
297 366 m 2,0,-1
 246 261 l 1,1,-1
 394 261 l 1,2,-1
 394 565 l 1,3,-1
 390 565 l 1,4,5
 366 514 366 514 343 464 c 128,-1,6
 320 414 320 414 297 366 c 2,0,-1
-3 0 m 1,7,-1
 324 654 l 1,8,-1
 773 654 l 1,9,-1
 773 556 l 1,10,-1
 510 556 l 1,11,-1
 510 389 l 1,12,-1
 731 389 l 1,13,-1
 731 291 l 1,14,-1
 510 291 l 1,15,-1
 510 98 l 1,16,-1
 783 98 l 1,17,-1
 783 0 l 1,18,-1
 394 0 l 1,19,-1
 394 170 l 1,20,-1
 202 170 l 1,21,-1
 119 0 l 1,22,-1
 -3 0 l 1,7,-1
EndSplineSet
Validated: 1
Substitution2: "'c2sc' Capitals to Small Capitals lookup 17 subtable" AE.sc
Substitution2: "'aalt' Access All Alternates lookup 0 subtable" AE.sc
EndChar

StartChar: uni0243
Encoding: 579 579 79
Width: 616
Flags: W
LayerCount: 2
Fore
SplineSet
104 0 m 1,0,-1
 104 176 l 1,1,-1
 28 176 l 1,2,-1
 28 230 l 1,3,-1
 104 235 l 1,4,-1
 104 654 l 1,5,-1
 313 654 l 2,6,7
 363 654 363 654 406 645.5 c 128,-1,8
 449 637 449 637 480 618.5 c 128,-1,9
 511 600 511 600 528.5 569.5 c 128,-1,10
 546 539 546 539 546 496 c 0,11,12
 546 451 546 451 519 414.5 c 128,-1,13
 492 378 492 378 434 363 c 1,14,-1
 434 359 l 1,15,16
 505 346 505 346 543 306.5 c 128,-1,17
 581 267 581 267 581 198 c 0,18,19
 581 147 581 147 562 110 c 128,-1,20
 543 73 543 73 509.5 48.5 c 128,-1,21
 476 24 476 24 430 12 c 128,-1,22
 384 0 384 0 330 0 c 2,23,-1
 104 0 l 1,0,-1
220 389 m 1,24,-1
 302 389 l 2,25,26
 371 389 371 389 403 414 c 128,-1,27
 435 439 435 439 435 485 c 0,28,29
 435 530 435 530 402 550 c 128,-1,30
 369 570 369 570 305 570 c 2,31,-1
 220 570 l 1,32,-1
 220 389 l 1,24,-1
220 84 m 1,33,-1
 318 84 l 2,34,35
 390 84 390 84 430 114.5 c 128,-1,36
 470 145 470 145 470 206 c 0,37,38
 470 264 470 264 430.5 291 c 128,-1,39
 391 318 391 318 318 318 c 2,40,-1
 220 318 l 1,41,-1
 220 235 l 1,42,-1
 358 235 l 1,43,-1
 358 176 l 1,44,-1
 220 176 l 1,45,-1
 220 84 l 1,33,-1
EndSplineSet
Validated: 1
Substitution2: "'c2sc' Capitals to Small Capitals lookup 17 subtable" uni0243.sc
Substitution2: "'aalt' Access All Alternates lookup 0 subtable" uni0243.sc
EndChar

StartChar: Eogonek
Encoding: 280 280 106
Width: 538
GlyphClass: 2
Flags: W
AnchorPoint: "Anchor-1" 287 676 basechar 0
LayerCount: 2
Fore
SplineSet
412 -218 m 0,0,1
 368 -218 368 -218 337.5 -195 c 128,-1,2
 307 -172 307 -172 307 -127 c 0,3,4
 307 -105 307 -105 314 -85.5 c 128,-1,5
 321 -66 321 -66 332 -50 c 128,-1,6
 343 -34 343 -34 356.5 -21 c 128,-1,7
 370 -8 370 -8 384 0 c 1,8,-1
 83 0 l 1,9,-1
 83 654 l 1,10,-1
 477 654 l 1,11,-1
 477 556 l 1,12,-1
 199 556 l 1,13,-1
 199 389 l 1,14,-1
 434 389 l 1,15,-1
 434 291 l 1,16,-1
 199 291 l 1,17,-1
 199 98 l 1,18,-1
 487 98 l 1,19,-1
 487 0 l 1,20,-1
 482 0 l 2,21,22
 465 -2 465 -2 449 -10.5 c 128,-1,23
 433 -19 433 -19 421 -32.5 c 128,-1,24
 409 -46 409 -46 401.5 -63 c 128,-1,25
 394 -80 394 -80 394 -98 c 0,26,27
 394 -120 394 -120 407.5 -130 c 128,-1,28
 421 -140 421 -140 438 -140 c 0,29,30
 449 -140 449 -140 458.5 -136 c 128,-1,31
 468 -132 468 -132 476 -126 c 1,32,-1
 505 -186 l 1,33,34
 488 -200 488 -200 461.5 -209 c 128,-1,35
 435 -218 435 -218 412 -218 c 0,0,1
EndSplineSet
Validated: 1
Substitution2: "'c2sc' Capitals to Small Capitals lookup 17 subtable" Eogonek.sc
Ligature2: "'ccmp' Glyph Composition/Decomposition lookup 11 subtable" E uni0328
Substitution2: "'aalt' Access All Alternates lookup 0 subtable" Eogonek.sc
EndChar

StartChar: uni0193
Encoding: 403 403 116
Width: 628
Flags: W
LayerCount: 2
Fore
SplineSet
357 -12 m 0,0,1
 291 -12 291 -12 234.5 10 c 128,-1,2
 178 32 178 32 136.5 75 c 128,-1,3
 95 118 95 118 72 181 c 128,-1,4
 49 244 49 244 49 325 c 0,5,6
 49 405 49 405 73 468.5 c 128,-1,7
 97 532 97 532 138.5 576 c 128,-1,8
 180 620 180 620 236.5 643 c 128,-1,9
 293 666 293 666 358 666 c 0,10,11
 378 666 378 666 395.5 664 c 128,-1,12
 413 662 413 662 429 659 c 1,13,14
 426 672 426 672 426 686 c 0,15,16
 426 739 426 739 460.5 775 c 128,-1,17
 495 811 495 811 555 811 c 0,18,19
 581 811 581 811 598 807 c 128,-1,20
 615 803 615 803 629 798 c 1,21,-1
 608 712 l 1,22,23
 600 715 600 715 593 717.5 c 128,-1,24
 586 720 586 720 577 720 c 0,25,26
 553 720 553 720 538.5 706 c 128,-1,27
 524 692 524 692 524 669 c 0,28,29
 524 648 524 648 533 632.5 c 128,-1,30
 542 617 542 617 556 597 c 1,31,-1
 494 522 l 1,32,33
 469 540 469 540 438.5 552.5 c 128,-1,34
 408 565 408 565 362 565 c 0,35,36
 318 565 318 565 282.5 548.5 c 128,-1,37
 247 532 247 532 221.5 501.5 c 128,-1,38
 196 471 196 471 182 427 c 128,-1,39
 168 383 168 383 168 328 c 0,40,41
 168 216 168 216 218.5 152.5 c 128,-1,42
 269 89 269 89 368 89 c 0,43,44
 396 89 396 89 421 96.5 c 128,-1,45
 446 104 446 104 462 118 c 1,46,-1
 462 259 l 1,47,-1
 338 259 l 1,48,-1
 338 354 l 1,49,-1
 566 354 l 1,50,-1
 566 66 l 1,51,52
 533 33 533 33 478.5 10.5 c 128,-1,53
 424 -12 424 -12 357 -12 c 0,0,1
EndSplineSet
Validated: 1
Substitution2: "'c2sc' Capitals to Small Capitals lookup 17 subtable" uni0193.sc
Substitution2: "'aalt' Access All Alternates lookup 0 subtable" uni0193.sc
EndChar

StartChar: Hbar
Encoding: 294 294 120
Width: 700
Flags: W
LayerCount: 2
Fore
SplineSet
28 489 m 1,0,-1
 28 543 l 1,1,-1
 103 548 l 1,2,-1
 103 654 l 1,3,-1
 219 654 l 1,4,-1
 219 548 l 1,5,-1
 484 548 l 1,6,-1
 484 654 l 1,7,-1
 600 654 l 1,8,-1
 600 548 l 1,9,-1
 671 548 l 1,10,-1
 671 489 l 1,11,-1
 600 489 l 1,12,-1
 600 0 l 1,13,-1
 484 0 l 1,14,-1
 484 290 l 1,15,-1
 219 290 l 1,16,-1
 219 0 l 1,17,-1
 103 0 l 1,18,-1
 103 489 l 1,19,-1
 28 489 l 1,0,-1
219 391 m 1,20,-1
 484 391 l 1,21,-1
 484 489 l 1,22,-1
 219 489 l 1,23,-1
 219 391 l 1,20,-1
EndSplineSet
Validated: 1
Substitution2: "'c2sc' Capitals to Small Capitals lookup 17 subtable" Hbar.sc
Substitution2: "'aalt' Access All Alternates lookup 0 subtable" Hbar.sc
EndChar

StartChar: Iogonek
Encoding: 302 302 131
Width: 370
GlyphClass: 2
Flags: W
AnchorPoint: "Anchor-1" 179 676 basechar 0
LayerCount: 2
Fore
SplineSet
191 -218 m 0,0,1
 146 -218 146 -218 116 -195 c 128,-1,2
 86 -172 86 -172 86 -127 c 0,3,4
 86 -106 86 -106 92.5 -86.5 c 128,-1,5
 99 -67 99 -67 109.5 -50.5 c 128,-1,6
 120 -34 120 -34 132 -21.5 c 128,-1,7
 144 -9 144 -9 155 0 c 1,8,-1
 49 0 l 1,9,-1
 49 98 l 1,10,-1
 127 98 l 1,11,-1
 127 556 l 1,12,-1
 49 556 l 1,13,-1
 49 654 l 1,14,-1
 320 654 l 1,15,-1
 320 556 l 1,16,-1
 243 556 l 1,17,-1
 243 98 l 1,18,-1
 320 98 l 1,19,-1
 320 0 l 1,20,-1
 231 0 l 1,21,22
 203 -22 203 -22 187.5 -47 c 128,-1,23
 172 -72 172 -72 172 -98 c 0,24,25
 172 -120 172 -120 186 -130 c 128,-1,26
 200 -140 200 -140 217 -140 c 0,27,28
 228 -140 228 -140 237.5 -136 c 128,-1,29
 247 -132 247 -132 255 -126 c 1,30,-1
 283 -186 l 1,31,32
 266 -200 266 -200 240 -209 c 128,-1,33
 214 -218 214 -218 191 -218 c 0,0,1
EndSplineSet
Substitution2: "'ss04' Style Set 4 lookup 43 subtable" Iogonek.a
Substitution2: "'c2sc' Capitals to Small Capitals lookup 17 subtable" Iogonek.sc
Ligature2: "'ccmp' Glyph Composition/Decomposition lookup 11 subtable" I uni0328
AlternateSubs2: "'aalt' Access All Alternates lookup 1 subtable" Iogonek.sc Iogonek.a
EndChar

StartChar: Lslash
Encoding: 321 321 144
Width: 507
Flags: W
LayerCount: 2
Fore
SplineSet
26 188 m 1,0,-1
 -15 258 l 1,1,-1
 89 316 l 1,2,-1
 89 654 l 1,3,-1
 205 654 l 1,4,-1
 205 368 l 1,5,-1
 372 460 l 1,6,-1
 412 389 l 1,7,-1
 205 277 l 1,8,-1
 205 98 l 1,9,-1
 477 98 l 1,10,-1
 477 0 l 1,11,-1
 89 0 l 1,12,-1
 89 225 l 1,13,-1
 26 188 l 1,0,-1
EndSplineSet
Validated: 1
Substitution2: "'c2sc' Capitals to Small Capitals lookup 17 subtable" Lslash.sc
Substitution2: "'aalt' Access All Alternates lookup 0 subtable" Lslash.sc
EndChar

StartChar: Oslash
Encoding: 216 216 173
Width: 674
GlyphClass: 2
Flags: W
AnchorPoint: "Anchor-1" 342 676 basechar 0
LayerCount: 2
Fore
SplineSet
339 -12 m 0,0,1
 239 -12 239 -12 169 44 c 1,2,-1
 106 -36 l 1,3,-1
 45 12 l 1,4,-1
 115 101 l 1,5,6
 84 144 84 144 67.5 201.5 c 128,-1,7
 51 259 51 259 51 330 c 0,8,9
 51 409 51 409 72 471.5 c 128,-1,10
 93 534 93 534 131 577 c 128,-1,11
 169 620 169 620 222 643 c 128,-1,12
 275 666 275 666 339 666 c 0,13,14
 442 666 442 666 514 609 c 1,15,-1
 578 690 l 1,16,-1
 640 642 l 1,17,-1
 568 551 l 1,18,19
 597 509 597 509 612.5 453.5 c 128,-1,20
 628 398 628 398 628 330 c 0,21,22
 628 250 628 250 607 187 c 128,-1,23
 586 124 586 124 547.5 79.5 c 128,-1,24
 509 35 509 35 456 11.5 c 128,-1,25
 403 -12 403 -12 339 -12 c 0,0,1
170 330 m 0,26,27
 170 292 170 292 175.5 259 c 128,-1,28
 181 226 181 226 192 199 c 1,29,-1
 446 522 l 1,30,31
 403 565 403 565 339 565 c 0,32,33
 261 565 261 565 215.5 502.5 c 128,-1,34
 170 440 170 440 170 330 c 0,26,27
339 89 m 0,35,36
 378 89 378 89 409 106 c 128,-1,37
 440 123 440 123 462 154.5 c 128,-1,38
 484 186 484 186 496 230.5 c 128,-1,39
 508 275 508 275 508 330 c 0,40,41
 508 398 508 398 489 450 c 1,42,-1
 237 130 l 1,43,44
 278 89 278 89 339 89 c 0,35,36
EndSplineSet
Validated: 1
Substitution2: "'c2sc' Capitals to Small Capitals lookup 17 subtable" Oslash.sc
Substitution2: "'aalt' Access All Alternates lookup 0 subtable" Oslash.sc
EndChar

StartChar: OE
Encoding: 338 338 174
Width: 859
GlyphClass: 2
Flags: W
AnchorPoint: "Anchor-1" 530 676 basechar 0
LayerCount: 2
Fore
SplineSet
371 0 m 2,0,1
 299 0 299 0 239.5 21 c 128,-1,2
 180 42 180 42 138 83.5 c 128,-1,3
 96 125 96 125 72.5 187 c 128,-1,4
 49 249 49 249 49 330 c 256,5,6
 49 411 49 411 72.5 471.5 c 128,-1,7
 96 532 96 532 139 572.5 c 128,-1,8
 182 613 182 613 242.5 633.5 c 128,-1,9
 303 654 303 654 377 654 c 2,10,-1
 798 654 l 1,11,-1
 798 556 l 1,12,-1
 536 556 l 1,13,-1
 536 389 l 1,14,-1
 756 389 l 1,15,-1
 756 291 l 1,16,-1
 536 291 l 1,17,-1
 536 98 l 1,18,-1
 808 98 l 1,19,-1
 808 0 l 1,20,-1
 371 0 l 2,0,1
384 94 m 2,21,-1
 420 94 l 1,22,-1
 420 560 l 1,23,-1
 384 560 l 2,24,25
 283 560 283 560 225.5 505.5 c 128,-1,26
 168 451 168 451 168 330 c 0,27,28
 168 208 168 208 225 151 c 128,-1,29
 282 94 282 94 384 94 c 2,21,-1
EndSplineSet
Validated: 1
Substitution2: "'c2sc' Capitals to Small Capitals lookup 17 subtable" OE.sc
Substitution2: "'aalt' Access All Alternates lookup 0 subtable" OE.sc
EndChar

StartChar: Ohorn
Encoding: 416 416 175
Width: 674
GlyphClass: 2
Flags: W
AnchorPoint: "Anchor-4" 336 -22 basechar 0
AnchorPoint: "Anchor-1" 339 676 basechar 0
LayerCount: 2
Fore
SplineSet
339 -12 m 256,0,1
 275 -12 275 -12 222 11.5 c 128,-1,2
 169 35 169 35 131 79.5 c 128,-1,3
 93 124 93 124 72 187 c 128,-1,4
 51 250 51 250 51 330 c 0,5,6
 51 409 51 409 72 471.5 c 128,-1,7
 93 534 93 534 131 577 c 128,-1,8
 169 620 169 620 222 643 c 128,-1,9
 275 666 275 666 339 666 c 0,10,11
 414 666 414 666 474 635 c 1,12,13
 509 643 509 643 526.5 660.5 c 128,-1,14
 544 678 544 678 544 712 c 0,15,16
 544 729 544 729 539.5 745.5 c 128,-1,17
 535 762 535 762 529 774 c 1,18,-1
 616 810 l 1,19,20
 627 793 627 793 635 769.5 c 128,-1,21
 643 746 643 746 643 720 c 0,22,23
 643 668 643 668 614.5 637.5 c 128,-1,24
 586 607 586 607 532 593 c 1,25,26
 578 549 578 549 603 483.5 c 128,-1,27
 628 418 628 418 628 330 c 0,28,29
 628 250 628 250 607 187 c 128,-1,30
 586 124 586 124 547.5 79.5 c 128,-1,31
 509 35 509 35 456 11.5 c 128,-1,32
 403 -12 403 -12 339 -12 c 256,0,1
339 89 m 256,33,34
 378 89 378 89 409 106 c 128,-1,35
 440 123 440 123 462 154.5 c 128,-1,36
 484 186 484 186 496 230.5 c 128,-1,37
 508 275 508 275 508 330 c 0,38,39
 508 440 508 440 462.5 502.5 c 128,-1,40
 417 565 417 565 339 565 c 256,41,42
 261 565 261 565 215.5 502.5 c 128,-1,43
 170 440 170 440 170 330 c 0,44,45
 170 275 170 275 182 230.5 c 128,-1,46
 194 186 194 186 216 154.5 c 128,-1,47
 238 123 238 123 269 106 c 128,-1,48
 300 89 300 89 339 89 c 256,33,34
EndSplineSet
Validated: 1
Substitution2: "'c2sc' Capitals to Small Capitals lookup 17 subtable" Ohorn.sc
Substitution2: "'aalt' Access All Alternates lookup 0 subtable" Ohorn.sc
EndChar

StartChar: uni01EA
Encoding: 490 490 181
Width: 674
GlyphClass: 2
Flags: W
AnchorPoint: "Anchor-1" 336 676 basechar 0
LayerCount: 2
Fore
SplineSet
364 -218 m 0,0,1
 320 -218 320 -218 289.5 -195 c 128,-1,2
 259 -172 259 -172 259 -127 c 0,3,4
 259 -91 259 -91 278 -61 c 128,-1,5
 297 -31 297 -31 322 -11 c 1,6,7
 259 -8 259 -8 208.5 17.5 c 128,-1,8
 158 43 158 43 122.5 87 c 128,-1,9
 87 131 87 131 68 192.5 c 128,-1,10
 49 254 49 254 49 330 c 0,11,12
 49 409 49 409 70 471.5 c 128,-1,13
 91 534 91 534 129 577 c 128,-1,14
 167 620 167 620 220 643 c 128,-1,15
 273 666 273 666 337 666 c 256,16,17
 401 666 401 666 454 643 c 128,-1,18
 507 620 507 620 545.5 577 c 128,-1,19
 584 534 584 534 605 471.5 c 128,-1,20
 626 409 626 409 626 330 c 0,21,22
 626 262 626 262 612 209 c 128,-1,23
 598 156 598 156 571.5 115.5 c 128,-1,24
 545 75 545 75 507 45.5 c 128,-1,25
 469 16 469 16 420 -6 c 0,26,27
 381 -23 381 -23 363.5 -49 c 128,-1,28
 346 -75 346 -75 346 -98 c 0,29,30
 346 -120 346 -120 359.5 -130 c 128,-1,31
 373 -140 373 -140 390 -140 c 0,32,33
 401 -140 401 -140 410.5 -136 c 128,-1,34
 420 -132 420 -132 428 -126 c 1,35,-1
 457 -186 l 1,36,37
 440 -200 440 -200 413.5 -209 c 128,-1,38
 387 -218 387 -218 364 -218 c 0,0,1
337 89 m 256,39,40
 376 89 376 89 407 106 c 128,-1,41
 438 123 438 123 460 154.5 c 128,-1,42
 482 186 482 186 494 230.5 c 128,-1,43
 506 275 506 275 506 330 c 0,44,45
 506 440 506 440 460.5 502.5 c 128,-1,46
 415 565 415 565 337 565 c 256,47,48
 259 565 259 565 213.5 502.5 c 128,-1,49
 168 440 168 440 168 330 c 0,50,51
 168 275 168 275 180 230.5 c 128,-1,52
 192 186 192 186 214 154.5 c 128,-1,53
 236 123 236 123 267 106 c 128,-1,54
 298 89 298 89 337 89 c 256,39,40
EndSplineSet
Validated: 1
Substitution2: "'c2sc' Capitals to Small Capitals lookup 17 subtable" uni01EA.sc
Ligature2: "'ccmp' Glyph Composition/Decomposition lookup 11 subtable" O uni0328
Substitution2: "'aalt' Access All Alternates lookup 0 subtable" uni01EA.sc
EndChar

StartChar: uni1E9E
Encoding: 7838 7838 196
Width: 686
Flags: W
LayerCount: 2
Fore
SplineSet
448 -12 m 0,0,1
 387 -12 387 -12 340.5 9.5 c 128,-1,2
 294 31 294 31 265 62 c 1,3,-1
 328 134 l 1,4,5
 354 106 354 106 380.5 94.5 c 128,-1,6
 407 83 407 83 436 83 c 0,7,8
 478 83 478 83 502 108.5 c 128,-1,9
 526 134 526 134 526 175 c 0,10,11
 526 194 526 194 517.5 211.5 c 128,-1,12
 509 229 509 229 489.5 244 c 128,-1,13
 470 259 470 259 437 271.5 c 128,-1,14
 404 284 404 284 355 292 c 1,15,-1
 347 362 l 1,16,-1
 470 501 l 1,17,18
 456 530 456 530 426 550.5 c 128,-1,19
 396 571 396 571 351 571 c 0,20,21
 279 571 279 571 240.5 528 c 128,-1,22
 202 485 202 485 202 395 c 2,23,-1
 202 0 l 1,24,-1
 86 0 l 1,25,-1
 86 413 l 2,26,27
 86 470 86 470 103 516.5 c 128,-1,28
 120 563 120 563 153.5 596 c 128,-1,29
 187 629 187 629 237 647.5 c 128,-1,30
 287 666 287 666 354 666 c 0,31,32
 445 666 445 666 503.5 619.5 c 128,-1,33
 562 573 562 573 587 497 c 1,34,-1
 464 360 l 1,35,36
 553 338 553 338 599 292.5 c 128,-1,37
 645 247 645 247 645 174 c 0,38,39
 645 135 645 135 631.5 101 c 128,-1,40
 618 67 618 67 593 42 c 128,-1,41
 568 17 568 17 531 2.5 c 128,-1,42
 494 -12 494 -12 448 -12 c 0,0,1
EndSplineSet
Validated: 1
Substitution2: "'c2sc' Capitals to Small Capitals lookup 17 subtable" uni1E9E.sc
Substitution2: "'aalt' Access All Alternates lookup 0 subtable" uni1E9E.sc
EndChar

StartChar: uni0166
Encoding: 358 358 202
Width: 546
Flags: W
LayerCount: 2
Fore
SplineSet
215 0 m 1,0,-1
 215 299 l 1,1,-1
 94 299 l 1,2,-1
 94 354 l 1,3,-1
 186 358 l 1,4,-1
 215 358 l 1,5,-1
 215 556 l 1,6,-1
 26 556 l 1,7,-1
 26 654 l 1,8,-1
 520 654 l 1,9,-1
 520 556 l 1,10,-1
 331 556 l 1,11,-1
 331 358 l 1,12,-1
 452 358 l 1,13,-1
 452 299 l 1,14,-1
 331 299 l 1,15,-1
 331 0 l 1,16,-1
 215 0 l 1,0,-1
EndSplineSet
Validated: 1
Substitution2: "'c2sc' Capitals to Small Capitals lookup 17 subtable" uni0166.sc
Substitution2: "'aalt' Access All Alternates lookup 0 subtable" uni0166.sc
EndChar

StartChar: Uogonek
Encoding: 370 370 219
Width: 655
GlyphClass: 2
Flags: W
AnchorPoint: "Anchor-1" 327 676 basechar 0
LayerCount: 2
Fore
SplineSet
354 -218 m 0,0,1
 309 -218 309 -218 278.5 -195 c 128,-1,2
 248 -172 248 -172 248 -127 c 0,3,4
 248 -105 248 -105 255 -87 c 128,-1,5
 262 -69 262 -69 272 -54.5 c 128,-1,6
 282 -40 282 -40 293 -29.5 c 128,-1,7
 304 -19 304 -19 312 -11 c 1,8,9
 258 -8 258 -8 215 10 c 128,-1,10
 172 28 172 28 142 64 c 128,-1,11
 112 100 112 100 96 155 c 128,-1,12
 80 210 80 210 80 287 c 2,13,-1
 80 654 l 1,14,-1
 196 654 l 1,15,-1
 196 278 l 2,16,17
 196 225 196 225 205.5 188.5 c 128,-1,18
 215 152 215 152 232.5 130 c 128,-1,19
 250 108 250 108 274 98.5 c 128,-1,20
 298 89 298 89 328 89 c 256,21,22
 358 89 358 89 383 98.5 c 128,-1,23
 408 108 408 108 426 130 c 128,-1,24
 444 152 444 152 454 188.5 c 128,-1,25
 464 225 464 225 464 278 c 2,26,-1
 464 654 l 1,27,-1
 575 654 l 1,28,-1
 575 287 l 2,29,30
 575 219 575 219 564.5 172 c 128,-1,31
 554 125 554 125 533 91.5 c 128,-1,32
 512 58 512 58 481 35.5 c 128,-1,33
 450 13 450 13 410 -6 c 0,34,35
 372 -24 372 -24 353.5 -49.5 c 128,-1,36
 335 -75 335 -75 335 -98 c 0,37,38
 335 -120 335 -120 349 -130 c 128,-1,39
 363 -140 363 -140 380 -140 c 0,40,41
 391 -140 391 -140 400.5 -136 c 128,-1,42
 410 -132 410 -132 418 -126 c 1,43,-1
 446 -186 l 1,44,45
 429 -200 429 -200 403 -209 c 128,-1,46
 377 -218 377 -218 354 -218 c 0,0,1
EndSplineSet
Validated: 1
Substitution2: "'c2sc' Capitals to Small Capitals lookup 17 subtable" Uogonek.sc
Ligature2: "'ccmp' Glyph Composition/Decomposition lookup 11 subtable" U uni0328
Substitution2: "'aalt' Access All Alternates lookup 0 subtable" Uogonek.sc
EndChar

StartChar: Uhorn
Encoding: 431 431 220
Width: 671
GlyphClass: 2
Flags: W
AnchorPoint: "Anchor-4" 327 -22 basechar 0
AnchorPoint: "Anchor-1" 328 676 basechar 0
LayerCount: 2
Fore
SplineSet
328 -12 m 256,0,1
 271 -12 271 -12 225.5 4.5 c 128,-1,2
 180 21 180 21 147.5 57 c 128,-1,3
 115 93 115 93 97.5 149.5 c 128,-1,4
 80 206 80 206 80 287 c 2,5,-1
 80 654 l 1,6,-1
 196 654 l 1,7,-1
 196 278 l 2,8,9
 196 225 196 225 205.5 188.5 c 128,-1,10
 215 152 215 152 232.5 130 c 128,-1,11
 250 108 250 108 274 98.5 c 128,-1,12
 298 89 298 89 328 89 c 256,13,14
 358 89 358 89 383 98.5 c 128,-1,15
 408 108 408 108 426 130 c 128,-1,16
 444 152 444 152 454 188.5 c 128,-1,17
 464 225 464 225 464 278 c 2,18,-1
 464 654 l 1,19,-1
 515 654 l 2,20,21
 533 655 533 655 548.5 659.5 c 128,-1,22
 564 664 564 664 575.5 672.5 c 128,-1,23
 587 681 587 681 594 695.5 c 128,-1,24
 601 710 601 710 601 732 c 0,25,26
 601 749 601 749 596.5 765.5 c 128,-1,27
 592 782 592 782 586 794 c 1,28,-1
 674 830 l 1,29,30
 685 813 685 813 692.5 789.5 c 128,-1,31
 700 766 700 766 700 740 c 0,32,33
 700 681 700 681 665 650.5 c 128,-1,34
 630 620 630 620 575 609 c 1,35,-1
 575 287 l 2,36,37
 575 206 575 206 558 149.5 c 128,-1,38
 541 93 541 93 508.5 57 c 128,-1,39
 476 21 476 21 430.5 4.5 c 128,-1,40
 385 -12 385 -12 328 -12 c 256,0,1
EndSplineSet
Validated: 1
Substitution2: "'c2sc' Capitals to Small Capitals lookup 17 subtable" Uhorn.sc
Substitution2: "'aalt' Access All Alternates lookup 0 subtable" Uhorn.sc
EndChar

StartChar: Eth
Encoding: 208 208 243
Width: 649
Flags: W
LayerCount: 2
Fore
SplineSet
30 311 m 1,0,-1
 30 366 l 1,1,-1
 107 370 l 1,2,-1
 107 654 l 1,3,-1
 282 654 l 2,4,5
 432 654 432 654 516 573 c 128,-1,6
 600 492 600 492 600 330 c 0,7,8
 600 249 600 249 578.5 187 c 128,-1,9
 557 125 557 125 516.5 83.5 c 128,-1,10
 476 42 476 42 418.5 21 c 128,-1,11
 361 0 361 0 288 0 c 2,12,-1
 107 0 l 1,13,-1
 107 311 l 1,14,-1
 30 311 l 1,0,-1
223 94 m 1,15,-1
 274 94 l 2,16,17
 374 94 374 94 427.5 151.5 c 128,-1,18
 481 209 481 209 481 330 c 0,19,20
 481 450 481 450 427 505 c 128,-1,21
 373 560 373 560 274 560 c 2,22,-1
 223 560 l 1,23,-1
 223 370 l 1,24,-1
 360 370 l 1,25,-1
 360 311 l 1,26,-1
 223 311 l 1,27,-1
 223 94 l 1,15,-1
EndSplineSet
Validated: 1
Substitution2: "'c2sc' Capitals to Small Capitals lookup 17 subtable" Eth.sc
Substitution2: "'aalt' Access All Alternates lookup 0 subtable" Eth.sc
EndChar

StartChar: Thorn
Encoding: 222 222 244
Width: 600
Flags: W
LayerCount: 2
Fore
SplineSet
83 0 m 1,0,-1
 83 654 l 1,1,-1
 199 654 l 1,2,-1
 199 550 l 1,3,-1
 303 550 l 2,4,5
 357 550 357 550 402.5 539.5 c 128,-1,6
 448 529 448 529 481 505.5 c 128,-1,7
 514 482 514 482 533 443.5 c 128,-1,8
 552 405 552 405 552 348 c 0,9,10
 552 293 552 293 533 253 c 128,-1,11
 514 213 514 213 480.5 187 c 128,-1,12
 447 161 447 161 401.5 148.5 c 128,-1,13
 356 136 356 136 303 136 c 2,14,-1
 199 136 l 1,15,-1
 199 0 l 1,16,-1
 83 0 l 1,0,-1
199 229 m 1,17,-1
 294 229 l 2,18,19
 438 229 438 229 438 348 c 0,20,21
 438 409 438 409 402 433 c 128,-1,22
 366 457 366 457 294 457 c 2,23,-1
 199 457 l 1,24,-1
 199 229 l 1,17,-1
EndSplineSet
Validated: 1
Substitution2: "'c2sc' Capitals to Small Capitals lookup 17 subtable" Thorn.sc
Substitution2: "'aalt' Access All Alternates lookup 0 subtable" Thorn.sc
EndChar

StartChar: uni018F
Encoding: 399 399 245
Width: 667
GlyphClass: 2
Flags: W
AnchorPoint: "Anchor-4" 352 -22 basechar 0
AnchorPoint: "Anchor-1" 345 676 basechar 0
LayerCount: 2
Fore
SplineSet
332 -12 m 0,0,1
 267 -12 267 -12 215.5 10.5 c 128,-1,2
 164 33 164 33 128 76.5 c 128,-1,3
 92 120 92 120 73 182 c 128,-1,4
 54 244 54 244 54 324 c 0,5,6
 54 332 54 332 55 341.5 c 128,-1,7
 56 351 56 351 57 361 c 1,8,-1
 502 361 l 1,9,10
 490 571 490 571 324 571 c 0,11,12
 276 571 276 571 238.5 552.5 c 128,-1,13
 201 534 201 534 172 508 c 1,14,-1
 118 587 l 1,15,16
 156 622 156 622 210 644 c 128,-1,17
 264 666 264 666 336 666 c 0,18,19
 400 666 400 666 452 644 c 128,-1,20
 504 622 504 622 541 579.5 c 128,-1,21
 578 537 578 537 598 473.5 c 128,-1,22
 618 410 618 410 618 328 c 256,23,24
 618 246 618 246 597.5 182.5 c 128,-1,25
 577 119 577 119 539.5 76 c 128,-1,26
 502 33 502 33 449 10.5 c 128,-1,27
 396 -12 396 -12 332 -12 c 0,0,1
332 83 m 0,28,29
 402 83 402 83 446 130.5 c 128,-1,30
 490 178 490 178 500 275 c 1,31,-1
 173 275 l 1,32,33
 178 179 178 179 220.5 131 c 128,-1,34
 263 83 263 83 332 83 c 0,28,29
EndSplineSet
Validated: 1
Substitution2: "'c2sc' Capitals to Small Capitals lookup 17 subtable" uni018F.sc
Substitution2: "'aalt' Access All Alternates lookup 0 subtable" uni018F.sc
EndChar

StartChar: uni014A
Encoding: 330 330 246
Width: 651
GlyphClass: 2
Flags: W
AnchorPoint: "Anchor-1" 359 676 basechar 0
LayerCount: 2
Fore
SplineSet
409 -12 m 0,0,1
 388 -12 388 -12 363.5 -8 c 128,-1,2
 339 -4 339 -4 325 5 c 1,3,-1
 351 106 l 1,4,5
 361 102 361 102 371.5 99.5 c 128,-1,6
 382 97 382 97 396 97 c 0,7,8
 414 97 414 97 429.5 107.5 c 128,-1,9
 445 118 445 118 457 144.5 c 128,-1,10
 469 171 469 171 476 216.5 c 128,-1,11
 483 262 483 262 483 333 c 0,12,13
 483 398 483 398 473 442.5 c 128,-1,14
 463 487 463 487 445 514 c 128,-1,15
 427 541 427 541 401 553 c 128,-1,16
 375 565 375 565 344 565 c 0,17,18
 326 565 326 565 306.5 559 c 128,-1,19
 287 553 287 553 267.5 541.5 c 128,-1,20
 248 530 248 530 230 513.5 c 128,-1,21
 212 497 212 497 199 476 c 1,22,-1
 199 0 l 1,23,-1
 83 0 l 1,24,-1
 83 654 l 1,25,-1
 196 654 l 1,26,-1
 196 578 l 1,27,28
 232 619 232 619 278.5 642.5 c 128,-1,29
 325 666 325 666 376 666 c 0,30,31
 424 666 424 666 465.5 648.5 c 128,-1,32
 507 631 507 631 537.5 591 c 128,-1,33
 568 551 568 551 585 487.5 c 128,-1,34
 602 424 602 424 602 333 c 256,35,36
 602 242 602 242 589.5 177 c 128,-1,37
 577 112 577 112 552.5 70 c 128,-1,38
 528 28 528 28 492 8 c 128,-1,39
 456 -12 456 -12 409 -12 c 0,0,1
EndSplineSet
Validated: 1
Substitution2: "'c2sc' Capitals to Small Capitals lookup 17 subtable" uni014A.sc
Substitution2: "'salt' Stylistic Alternatives lookup 3 subtable" uni014A.a
AlternateSubs2: "'aalt' Access All Alternates lookup 1 subtable" uni014A.a uni014A.sc
EndChar

StartChar: uni0132
Encoding: 306 306 247
Width: 565
Flags: W
LayerCount: 2
Fore
SplineSet
83 0 m 1,0,-1
 83 654 l 1,1,-1
 199 654 l 1,2,-1
 199 0 l 1,3,-1
 83 0 l 1,0,-1
325 -174 m 0,4,5
 299 -174 299 -174 279.5 -170 c 128,-1,6
 260 -166 260 -166 246 -160 c 1,7,-1
 267 -73 l 1,8,9
 277 -76 277 -76 287.5 -78 c 128,-1,10
 298 -80 298 -80 309 -80 c 0,11,12
 342 -80 342 -80 354 -58 c 128,-1,13
 366 -36 366 -36 366 7 c 2,14,-1
 366 654 l 1,15,-1
 482 654 l 1,16,-1
 482 8 l 2,17,18
 482 -31 482 -31 474 -64.5 c 128,-1,19
 466 -98 466 -98 447.5 -122 c 128,-1,20
 429 -146 429 -146 399 -160 c 128,-1,21
 369 -174 369 -174 325 -174 c 0,4,5
EndSplineSet
Validated: 1
Substitution2: "'c2sc' Capitals to Small Capitals lookup 17 subtable" uni0132.sc
Substitution2: "'aalt' Access All Alternates lookup 0 subtable" uni0132.sc
EndChar

StartChar: aogonek
Encoding: 261 261 269
Width: 516
GlyphClass: 2
Flags: W
AnchorPoint: "Anchor-0" 275 514 basechar 0
LayerCount: 2
Fore
SplineSet
382 -208 m 0,0,1
 340 -208 340 -208 311.5 -186 c 128,-1,2
 283 -164 283 -164 283 -120 c 0,3,4
 283 -99 283 -99 290 -80.5 c 128,-1,5
 297 -62 297 -62 308.5 -46.5 c 128,-1,6
 320 -31 320 -31 333 -19 c 128,-1,7
 346 -7 346 -7 358 1 c 1,8,-1
 348 54 l 1,9,-1
 344 54 l 1,10,11
 311 26 311 26 273.5 7 c 128,-1,12
 236 -12 236 -12 192 -12 c 0,13,14
 127 -12 127 -12 87 27.5 c 128,-1,15
 47 67 47 67 47 132 c 0,16,17
 47 171 47 171 63.5 201.5 c 128,-1,18
 80 232 80 232 115.5 254 c 128,-1,19
 151 276 151 276 205.5 291 c 128,-1,20
 260 306 260 306 336 314 c 1,21,22
 335 333 335 333 330.5 350.5 c 128,-1,23
 326 368 326 368 315.5 381.5 c 128,-1,24
 305 395 305 395 288 402.5 c 128,-1,25
 271 410 271 410 246 410 c 0,26,27
 210 410 210 410 175.5 396 c 128,-1,28
 141 382 141 382 108 362 c 1,29,-1
 66 439 l 1,30,31
 107 465 107 465 158 484 c 128,-1,32
 209 503 209 503 268 503 c 0,33,34
 360 503 360 503 405.5 448.5 c 128,-1,35
 451 394 451 394 451 291 c 2,36,-1
 451 0 l 1,37,38
 406 -15 406 -15 385 -42 c 128,-1,39
 364 -69 364 -69 364 -95 c 0,40,41
 364 -117 364 -117 377.5 -127 c 128,-1,42
 391 -137 391 -137 408 -137 c 0,43,44
 428 -137 428 -137 446 -124 c 1,45,-1
 472 -178 l 1,46,47
 455 -192 455 -192 429 -200 c 128,-1,48
 403 -208 403 -208 382 -208 c 0,0,1
229 78 m 0,49,50
 259 78 259 78 283.5 92 c 128,-1,51
 308 106 308 106 336 132 c 1,52,-1
 336 242 l 1,53,54
 286 236 286 236 252 226 c 128,-1,55
 218 216 218 216 197 203.5 c 128,-1,56
 176 191 176 191 167 175 c 128,-1,57
 158 159 158 159 158 141 c 0,58,59
 158 108 158 108 178 93 c 128,-1,60
 198 78 198 78 229 78 c 0,49,50
EndSplineSet
Validated: 1
Substitution2: "'ss02' Style Set 2 lookup 39 subtable" aogonek.a
Substitution2: "'smcp' Lowercase to Small Capitals lookup 20 subtable" Aogonek.sc
Ligature2: "'ccmp' Glyph Composition/Decomposition lookup 11 subtable" a uni0328
AlternateSubs2: "'aalt' Access All Alternates lookup 1 subtable" Aogonek.sc aogonek.a
EndChar

StartChar: ae
Encoding: 230 230 270
Width: 785
GlyphClass: 2
Flags: W
AnchorPoint: "Anchor-4" 414 -22 basechar 0
AnchorPoint: "Anchor-0" 412 514 basechar 0
LayerCount: 2
Fore
SplineSet
198 -12 m 0,0,1
 133 -12 133 -12 92.5 27.5 c 128,-1,2
 52 67 52 67 52 132 c 0,3,4
 52 211 52 211 120.5 254.5 c 128,-1,5
 189 298 189 298 338 314 c 1,6,7
 337 333 337 333 332.5 350.5 c 128,-1,8
 328 368 328 368 318 381.5 c 128,-1,9
 308 395 308 395 291.5 402.5 c 128,-1,10
 275 410 275 410 250 410 c 0,11,12
 215 410 215 410 180.5 396 c 128,-1,13
 146 382 146 382 114 362 c 1,14,-1
 72 439 l 1,15,16
 113 465 113 465 162 484 c 128,-1,17
 211 503 211 503 265 503 c 0,18,19
 316 503 316 503 350.5 479.5 c 128,-1,20
 385 456 385 456 404 414 c 1,21,22
 434 456 434 456 471.5 479.5 c 128,-1,23
 509 503 509 503 557 503 c 0,24,25
 604 503 604 503 639.5 485.5 c 128,-1,26
 675 468 675 468 699 437 c 128,-1,27
 723 406 723 406 735.5 362.5 c 128,-1,28
 748 319 748 319 748 268 c 0,29,30
 748 234 748 234 743 214 c 1,31,-1
 443 214 l 1,32,33
 449 150 449 150 486.5 115 c 128,-1,34
 524 80 524 80 578 80 c 0,35,36
 610 80 610 80 636 90.5 c 128,-1,37
 662 101 662 101 689 118 c 1,38,-1
 730 41 l 1,39,40
 695 18 695 18 652.5 3 c 128,-1,41
 610 -12 610 -12 563 -12 c 0,42,43
 505 -12 505 -12 463 12.5 c 128,-1,44
 421 37 421 37 392 72 c 1,45,46
 341 28 341 28 293.5 8 c 128,-1,47
 246 -12 246 -12 198 -12 c 0,0,1
234 78 m 0,48,49
 263 78 263 78 295 93.5 c 128,-1,50
 327 109 327 109 354 136 c 1,51,52
 346 153 346 153 342.5 175 c 128,-1,53
 339 197 339 197 338 219 c 2,54,-1
 336 242 l 1,55,56
 242 229 242 229 203 204 c 128,-1,57
 164 179 164 179 164 141 c 0,58,59
 164 108 164 108 183.5 93 c 128,-1,60
 203 78 203 78 234 78 c 0,48,49
443 287 m 1,61,-1
 649 287 l 1,62,63
 649 347 649 347 625 380.5 c 128,-1,64
 601 414 601 414 553 414 c 0,65,66
 511 414 511 414 480.5 381 c 128,-1,67
 450 348 450 348 443 287 c 1,61,-1
EndSplineSet
Validated: 1
Substitution2: "'smcp' Lowercase to Small Capitals lookup 20 subtable" AE.sc
Substitution2: "'aalt' Access All Alternates lookup 0 subtable" AE.sc
EndChar

StartChar: uni0180
Encoding: 384 384 273
Width: 558
Flags: W
LayerCount: 2
Fore
SplineSet
311 -12 m 0,0,1
 277 -12 277 -12 242.5 4.5 c 128,-1,2
 208 21 208 21 177 52 c 1,3,-1
 174 52 l 1,4,-1
 164 0 l 1,5,-1
 73 0 l 1,6,-1
 73 564 l 1,7,-1
 2 564 l 1,8,-1
 2 618 l 1,9,-1
 73 623 l 1,10,-1
 73 706 l 1,11,-1
 188 706 l 1,12,-1
 188 623 l 1,13,-1
 364 623 l 1,14,-1
 364 564 l 1,15,-1
 188 564 l 1,16,-1
 188 480 l 1,17,-1
 185 398 l 1,18,19
 216 425 216 425 252.5 442 c 128,-1,20
 289 459 289 459 327 459 c 0,21,22
 373 459 373 459 409 442.5 c 128,-1,23
 445 426 445 426 470 396.5 c 128,-1,24
 495 367 495 367 508 325.5 c 128,-1,25
 521 284 521 284 521 233 c 0,26,27
 521 176 521 176 503.5 130.5 c 128,-1,28
 486 85 486 85 457 53.5 c 128,-1,29
 428 22 428 22 390 5 c 128,-1,30
 352 -12 352 -12 311 -12 c 0,0,1
287 83 m 0,31,32
 336 83 336 83 369 122 c 128,-1,33
 402 161 402 161 402 231 c 0,34,35
 402 291 402 291 377 327.5 c 128,-1,36
 352 364 352 364 296 364 c 0,37,38
 244 364 244 364 188 309 c 1,39,-1
 188 124 l 1,40,41
 214 101 214 101 239.5 92 c 128,-1,42
 265 83 265 83 287 83 c 0,31,32
EndSplineSet
Validated: 1
Substitution2: "'smcp' Lowercase to Small Capitals lookup 20 subtable" uni0243.sc
Substitution2: "'aalt' Access All Alternates lookup 0 subtable" uni0243.sc
EndChar

StartChar: dcroat
Encoding: 273 273 283
Width: 564
Flags: W
LayerCount: 2
Fore
SplineSet
245 -12 m 0,0,1
 199 -12 199 -12 161.5 4.5 c 128,-1,2
 124 21 124 21 98 51.5 c 128,-1,3
 72 82 72 82 57.5 125.5 c 128,-1,4
 43 169 43 169 43 224 c 0,5,6
 43 277 43 277 60.5 320.5 c 128,-1,7
 78 364 78 364 107 394.5 c 128,-1,8
 136 425 136 425 173.5 442 c 128,-1,9
 211 459 211 459 251 459 c 0,10,11
 293 459 293 459 322 444.5 c 128,-1,12
 351 430 351 430 380 405 c 1,13,-1
 376 484 l 1,14,-1
 376 564 l 1,15,-1
 220 564 l 1,16,-1
 220 623 l 1,17,-1
 376 623 l 1,18,-1
 376 706 l 1,19,-1
 491 706 l 1,20,-1
 491 623 l 1,21,-1
 561 623 l 1,22,-1
 561 569 l 1,23,-1
 491 564 l 1,24,-1
 491 0 l 1,25,-1
 394 0 l 1,26,-1
 386 50 l 1,27,-1
 383 50 l 1,28,29
 356 23 356 23 321 5.5 c 128,-1,30
 286 -12 286 -12 245 -12 c 0,0,1
273 83 m 0,31,32
 328 83 328 83 376 138 c 1,33,-1
 376 323 l 1,34,35
 350 346 350 346 325.5 355 c 128,-1,36
 301 364 301 364 276 364 c 0,37,38
 252 364 252 364 231.5 354 c 128,-1,39
 211 344 211 344 195.5 326 c 128,-1,40
 180 308 180 308 171 282.5 c 128,-1,41
 162 257 162 257 162 226 c 0,42,43
 162 158 162 158 190.5 120.5 c 128,-1,44
 219 83 219 83 273 83 c 0,31,32
EndSplineSet
Validated: 1
Substitution2: "'smcp' Lowercase to Small Capitals lookup 20 subtable" Dcroat.sc
Substitution2: "'aalt' Access All Alternates lookup 0 subtable" Dcroat.sc
EndChar

StartChar: eogonek
Encoding: 281 281 300
Width: 507
GlyphClass: 2
Flags: W
AnchorPoint: "Anchor-0" 267 514 basechar 0
LayerCount: 2
Fore
SplineSet
360 -208 m 0,0,1
 318 -208 318 -208 290.5 -186 c 128,-1,2
 263 -164 263 -164 263 -120 c 0,3,4
 263 -83 263 -83 282 -53.5 c 128,-1,5
 301 -24 301 -24 321 -7 c 1,6,7
 310 -10 310 -10 301 -11 c 128,-1,8
 292 -12 292 -12 283 -12 c 0,9,10
 232 -12 232 -12 188 5.5 c 128,-1,11
 144 23 144 23 111 56 c 128,-1,12
 78 89 78 89 59.5 136.5 c 128,-1,13
 41 184 41 184 41 245 c 0,14,15
 41 305 41 305 60 353 c 128,-1,16
 79 401 79 401 110.5 434 c 128,-1,17
 142 467 142 467 183 485 c 128,-1,18
 224 503 224 503 267 503 c 0,19,20
 317 503 317 503 355 486 c 128,-1,21
 393 469 393 469 418.5 438 c 128,-1,22
 444 407 444 407 457 364 c 128,-1,23
 470 321 470 321 470 270 c 0,24,25
 470 253 470 253 468.5 238 c 128,-1,26
 467 223 467 223 465 214 c 1,27,-1
 153 214 l 1,28,29
 161 148 161 148 199.5 112.5 c 128,-1,30
 238 77 238 77 298 77 c 0,31,32
 330 77 330 77 357.5 86.5 c 128,-1,33
 385 96 385 96 412 113 c 1,34,-1
 451 41 l 1,35,36
 418 18 418 18 397 -0.5 c 128,-1,37
 376 -19 376 -19 364 -34.5 c 128,-1,38
 352 -50 352 -50 347 -65 c 128,-1,39
 342 -80 342 -80 342 -95 c 0,40,41
 342 -116 342 -116 355 -126.5 c 128,-1,42
 368 -137 368 -137 387 -137 c 256,43,44
 406 -137 406 -137 424 -124 c 1,45,-1
 450 -178 l 1,46,47
 433 -192 433 -192 407 -200 c 128,-1,48
 381 -208 381 -208 360 -208 c 0,0,1
152 292 m 1,49,-1
 370 292 l 1,50,51
 370 349 370 349 345.5 381.5 c 128,-1,52
 321 414 321 414 270 414 c 0,53,54
 226 414 226 414 193 383 c 128,-1,55
 160 352 160 352 152 292 c 1,49,-1
EndSplineSet
Validated: 1
Substitution2: "'smcp' Lowercase to Small Capitals lookup 20 subtable" Eogonek.sc
Ligature2: "'ccmp' Glyph Composition/Decomposition lookup 11 subtable" e uni0328
Substitution2: "'aalt' Access All Alternates lookup 0 subtable" Eogonek.sc
EndChar

StartChar: hbar
Encoding: 295 295 314
Width: 558
Flags: W
LayerCount: 2
Fore
SplineSet
73 0 m 1,0,-1
 73 564 l 1,1,-1
 2 564 l 1,2,-1
 2 618 l 1,3,-1
 73 623 l 1,4,-1
 73 706 l 1,5,-1
 188 706 l 1,6,-1
 188 623 l 1,7,-1
 364 623 l 1,8,-1
 364 564 l 1,9,-1
 188 564 l 1,10,-1
 188 480 l 1,11,-1
 184 385 l 1,12,13
 215 414 215 414 252.5 436.5 c 128,-1,14
 290 459 290 459 341 459 c 0,15,16
 420 459 420 459 456 408.5 c 128,-1,17
 492 358 492 358 492 264 c 2,18,-1
 492 0 l 1,19,-1
 377 0 l 1,20,-1
 377 249 l 2,21,22
 377 310 377 310 359 335 c 128,-1,23
 341 360 341 360 300 360 c 0,24,25
 268 360 268 360 243.5 344.5 c 128,-1,26
 219 329 219 329 188 299 c 1,27,-1
 188 0 l 1,28,-1
 73 0 l 1,0,-1
EndSplineSet
Validated: 1
Substitution2: "'smcp' Lowercase to Small Capitals lookup 20 subtable" Hbar.sc
Substitution2: "'aalt' Access All Alternates lookup 0 subtable" Hbar.sc
EndChar

StartChar: iogonek
Encoding: 303 303 324
Width: 262
GlyphClass: 3
Flags: W
LayerCount: 2
Fore
SplineSet
138 -208 m 0,0,1
 96 -208 96 -208 68 -186 c 128,-1,2
 40 -164 40 -164 40 -120 c 0,3,4
 40 -99 40 -99 46.5 -81 c 128,-1,5
 53 -63 53 -63 62.5 -48 c 128,-1,6
 72 -33 72 -33 83 -21 c 128,-1,7
 94 -9 94 -9 104 0 c 1,8,-1
 73 0 l 1,9,-1
 73 491 l 1,10,-1
 188 491 l 1,11,-1
 188 0 l 1,12,13
 153 -18 153 -18 136.5 -43.5 c 128,-1,14
 120 -69 120 -69 120 -95 c 0,15,16
 120 -116 120 -116 133.5 -126.5 c 128,-1,17
 147 -137 147 -137 165 -137 c 0,18,19
 182 -137 182 -137 202 -124 c 1,20,-1
 228 -178 l 1,21,22
 211 -192 211 -192 185 -200 c 128,-1,23
 159 -208 159 -208 138 -208 c 0,0,1
130 577 m 0,24,25
 100 577 100 577 79.5 595 c 128,-1,26
 59 613 59 613 59 642 c 256,27,28
 59 671 59 671 79.5 689.5 c 128,-1,29
 100 708 100 708 130 708 c 0,30,31
 161 708 161 708 181.5 689.5 c 128,-1,32
 202 671 202 671 202 642 c 256,33,34
 202 613 202 613 181.5 595 c 128,-1,35
 161 577 161 577 130 577 c 0,24,25
EndSplineSet
Validated: 1
Substitution2: "Single Substitution lookup 49 subtable" iogonek.d
Substitution2: "'smcp' Lowercase to Small Capitals lookup 20 subtable" Iogonek.sc
Ligature2: "'ccmp' Glyph Composition/Decomposition lookup 11 subtable" i uni0328
Substitution2: "'aalt' Access All Alternates lookup 0 subtable" Iogonek.sc
EndChar

StartChar: iogonek.d
Encoding: 1114115 -1 325
Width: 262
GlyphClass: 2
Flags: W
AnchorPoint: "Anchor-0" 131 514 basechar 0
LayerCount: 2
Fore
SplineSet
138 -208 m 0,0,1
 96 -208 96 -208 68 -186 c 128,-1,2
 40 -164 40 -164 40 -120 c 0,3,4
 40 -99 40 -99 46.5 -81 c 128,-1,5
 53 -63 53 -63 62.5 -48 c 128,-1,6
 72 -33 72 -33 83 -21 c 128,-1,7
 94 -9 94 -9 104 0 c 1,8,-1
 73 0 l 1,9,-1
 73 491 l 1,10,-1
 188 491 l 1,11,-1
 188 0 l 1,12,13
 153 -18 153 -18 136.5 -43.5 c 128,-1,14
 120 -69 120 -69 120 -95 c 0,15,16
 120 -116 120 -116 133.5 -126.5 c 128,-1,17
 147 -137 147 -137 165 -137 c 0,18,19
 182 -137 182 -137 202 -124 c 1,20,-1
 228 -178 l 1,21,22
 211 -192 211 -192 185 -200 c 128,-1,23
 159 -208 159 -208 138 -208 c 0,0,1
EndSplineSet
Validated: 1
Ligature2: "Ligature Substitution lookup 48 subtable" i uni0328
Substitution2: "'smcp' Lowercase to Small Capitals lookup 20 subtable" Iogonek.sc
Substitution2: "'aalt' Access All Alternates lookup 0 subtable" Iogonek.sc
EndChar

StartChar: dotlessi
Encoding: 305 305 327
Width: 262
GlyphClass: 2
Flags: W
AnchorPoint: "Anchor-7" 166 0 basechar 0
AnchorPoint: "Anchor-4" 130 -22 basechar 0
AnchorPoint: "Anchor-0" 131 514 basechar 0
LayerCount: 2
Fore
SplineSet
73 0 m 1,0,-1
 73 491 l 1,1,-1
 188 491 l 1,2,-1
 188 0 l 1,3,-1
 73 0 l 1,0,-1
EndSplineSet
Validated: 1
EndChar

StartChar: kgreenlandic
Encoding: 312 312 332
Width: 522
Flags: W
LayerCount: 2
Fore
SplineSet
73 0 m 1,0,-1
 73 491 l 1,1,-1
 188 491 l 1,2,-1
 188 263 l 1,3,-1
 192 263 l 1,4,-1
 371 491 l 1,5,-1
 497 491 l 1,6,-1
 331 291 l 1,7,-1
 514 0 l 1,8,-1
 389 0 l 1,9,-1
 263 210 l 1,10,-1
 188 121 l 1,11,-1
 188 0 l 1,12,-1
 73 0 l 1,0,-1
EndSplineSet
Validated: 1
EndChar

StartChar: lslash
Encoding: 322 322 340
Width: 283
Flags: W
LayerCount: 2
Fore
SplineSet
192 -12 m 0,0,1
 130 -12 130 -12 105 25 c 128,-1,2
 80 62 80 62 80 126 c 2,3,-1
 80 303 l 1,4,-1
 29 272 l 1,5,-1
 -11 344 l 1,6,-1
 80 398 l 1,7,-1
 80 706 l 1,8,-1
 195 706 l 1,9,-1
 195 456 l 1,10,-1
 246 486 l 1,11,-1
 287 414 l 1,12,-1
 195 360 l 1,13,-1
 195 120 l 2,14,15
 195 99 195 99 203 90.5 c 128,-1,16
 211 82 211 82 220 82 c 0,17,18
 224 82 224 82 227.5 82 c 128,-1,19
 231 82 231 82 238 84 c 1,20,-1
 253 -2 l 1,21,22
 230 -12 230 -12 192 -12 c 0,0,1
EndSplineSet
Validated: 1
Substitution2: "'ss01' Style Set 1 lookup 36 subtable" lslash.a
Substitution2: "'smcp' Lowercase to Small Capitals lookup 20 subtable" Lslash.sc
AlternateSubs2: "'aalt' Access All Alternates lookup 1 subtable" Lslash.sc lslash.a
EndChar

StartChar: oslash
Encoding: 248 248 370
Width: 549
GlyphClass: 2
Flags: W
AnchorPoint: "Anchor-0" 274 514 basechar 0
LayerCount: 2
Fore
SplineSet
274 -12 m 0,0,1
 237 -12 237 -12 202 -1 c 128,-1,2
 167 10 167 10 138 32 c 1,3,-1
 92 -24 l 1,4,-1
 46 12 l 1,5,-1
 96 73 l 1,6,7
 70 105 70 105 55.5 148 c 128,-1,8
 41 191 41 191 41 245 c 0,9,10
 41 306 41 306 60 354 c 128,-1,11
 79 402 79 402 111.5 435 c 128,-1,12
 144 468 144 468 186 485.5 c 128,-1,13
 228 503 228 503 274 503 c 0,14,15
 351 503 351 503 410 459 c 1,16,-1
 457 516 l 1,17,-1
 503 480 l 1,18,-1
 453 418 l 1,19,20
 479 386 479 386 493.5 342.5 c 128,-1,21
 508 299 508 299 508 245 c 0,22,23
 508 184 508 184 488.5 136 c 128,-1,24
 469 88 469 88 437 55 c 128,-1,25
 405 22 405 22 362.5 5 c 128,-1,26
 320 -12 320 -12 274 -12 c 0,0,1
153 251 m 0,27,28
 153 199 153 199 167 160 c 1,29,-1
 349 384 l 1,30,31
 318 413 318 413 274 413 c 0,32,33
 220 413 220 413 186.5 368 c 128,-1,34
 153 323 153 323 153 251 c 0,27,28
274 78 m 0,35,36
 328 78 328 78 362 122.5 c 128,-1,37
 396 167 396 167 396 239 c 0,38,39
 396 292 396 292 382 331 c 1,40,-1
 199 108 l 1,41,42
 229 78 229 78 274 78 c 0,35,36
EndSplineSet
Validated: 1
Substitution2: "'smcp' Lowercase to Small Capitals lookup 20 subtable" Oslash.sc
Substitution2: "'aalt' Access All Alternates lookup 0 subtable" Oslash.sc
EndChar

StartChar: oe
Encoding: 339 339 371
Width: 830
GlyphClass: 2
Flags: W
AnchorPoint: "Anchor-0" 433 514 basechar 0
LayerCount: 2
Fore
SplineSet
266 -12 m 0,0,1
 220 -12 220 -12 179 5 c 128,-1,2
 138 22 138 22 107.5 55 c 128,-1,3
 77 88 77 88 59 136 c 128,-1,4
 41 184 41 184 41 245 c 256,5,6
 41 306 41 306 59.5 354 c 128,-1,7
 78 402 78 402 109 435 c 128,-1,8
 140 468 140 468 181 485.5 c 128,-1,9
 222 503 222 503 268 503 c 0,10,11
 322 503 322 503 365.5 476 c 128,-1,12
 409 449 409 449 436 399 c 1,13,14
 465 448 465 448 508 475.5 c 128,-1,15
 551 503 551 503 600 503 c 0,16,17
 647 503 647 503 683.5 485.5 c 128,-1,18
 720 468 720 468 744.5 437 c 128,-1,19
 769 406 769 406 781.5 362.5 c 128,-1,20
 794 319 794 319 794 268 c 0,21,22
 794 251 794 251 792.5 237 c 128,-1,23
 791 223 791 223 789 214 c 1,24,-1
 486 214 l 1,25,26
 492 150 492 150 530 115 c 128,-1,27
 568 80 568 80 622 80 c 0,28,29
 654 80 654 80 680.5 90.5 c 128,-1,30
 707 101 707 101 734 118 c 1,31,-1
 775 41 l 1,32,33
 740 18 740 18 697 3 c 128,-1,34
 654 -12 654 -12 606 -12 c 0,35,36
 555 -12 555 -12 511 15.5 c 128,-1,37
 467 43 467 43 438 92 c 1,38,39
 408 41 408 41 365.5 14.5 c 128,-1,40
 323 -12 323 -12 266 -12 c 0,0,1
268 82 m 0,41,42
 319 82 319 82 349 126.5 c 128,-1,43
 379 171 379 171 379 245 c 0,44,45
 379 320 379 320 349 364.5 c 128,-1,46
 319 409 319 409 268 409 c 0,47,48
 218 409 218 409 188 364.5 c 128,-1,49
 158 320 158 320 158 245 c 0,50,51
 158 171 158 171 188 126.5 c 128,-1,52
 218 82 218 82 268 82 c 0,41,42
486 287 m 1,53,-1
 694 287 l 1,54,55
 694 347 694 347 669.5 380.5 c 128,-1,56
 645 414 645 414 597 414 c 0,57,58
 554 414 554 414 523.5 381 c 128,-1,59
 493 348 493 348 486 287 c 1,53,-1
EndSplineSet
Validated: 1
Substitution2: "'smcp' Lowercase to Small Capitals lookup 20 subtable" OE.sc
Substitution2: "'aalt' Access All Alternates lookup 0 subtable" OE.sc
EndChar

StartChar: ohorn
Encoding: 417 417 372
Width: 549
GlyphClass: 2
Flags: W
AnchorPoint: "Anchor-4" 274 -22 basechar 0
AnchorPoint: "Anchor-0" 274 514 basechar 0
LayerCount: 2
Fore
SplineSet
274 -12 m 256,0,1
 228 -12 228 -12 186 5 c 128,-1,2
 144 22 144 22 111.5 55 c 128,-1,3
 79 88 79 88 60 136 c 128,-1,4
 41 184 41 184 41 245 c 256,5,6
 41 306 41 306 60 354 c 128,-1,7
 79 402 79 402 111.5 435 c 128,-1,8
 144 468 144 468 186 485.5 c 128,-1,9
 228 503 228 503 274 503 c 0,10,11
 325 503 325 503 370 482 c 1,12,13
 406 490 406 490 426.5 511.5 c 128,-1,14
 447 533 447 533 447 575 c 0,15,16
 447 591 447 591 442.5 605.5 c 128,-1,17
 438 620 438 620 432 631 c 1,18,-1
 518 670 l 1,19,20
 529 654 529 654 537 631 c 128,-1,21
 545 608 545 608 545 583 c 0,22,23
 545 553 545 553 535.5 529.5 c 128,-1,24
 526 506 526 506 510 489 c 128,-1,25
 494 472 494 472 473 460.5 c 128,-1,26
 452 449 452 449 430 442 c 1,27,28
 465 409 465 409 486.5 359.5 c 128,-1,29
 508 310 508 310 508 245 c 0,30,31
 508 184 508 184 488.5 136 c 128,-1,32
 469 88 469 88 437 55 c 128,-1,33
 405 22 405 22 362.5 5 c 128,-1,34
 320 -12 320 -12 274 -12 c 256,0,1
274 82 m 256,35,36
 328 82 328 82 359 126.5 c 128,-1,37
 390 171 390 171 390 245 c 0,38,39
 390 320 390 320 359 364.5 c 128,-1,40
 328 409 328 409 274 409 c 256,41,42
 220 409 220 409 189.5 364.5 c 128,-1,43
 159 320 159 320 159 245 c 0,44,45
 159 171 159 171 189.5 126.5 c 128,-1,46
 220 82 220 82 274 82 c 256,35,36
EndSplineSet
Validated: 1
Substitution2: "'smcp' Lowercase to Small Capitals lookup 20 subtable" Ohorn.sc
Substitution2: "'aalt' Access All Alternates lookup 0 subtable" Ohorn.sc
EndChar

StartChar: uni01EB
Encoding: 491 491 378
Width: 549
GlyphClass: 2
Flags: W
AnchorPoint: "Anchor-0" 274 514 basechar 0
LayerCount: 2
Fore
SplineSet
296 -208 m 0,0,1
 255 -208 255 -208 226.5 -186 c 128,-1,2
 198 -164 198 -164 198 -120 c 0,3,4
 198 -101 198 -101 203.5 -84.5 c 128,-1,5
 209 -68 209 -68 217 -54 c 128,-1,6
 225 -40 225 -40 234.5 -29 c 128,-1,7
 244 -18 244 -18 253 -10 c 1,8,9
 210 -6 210 -6 171.5 13 c 128,-1,10
 133 32 133 32 104 64.5 c 128,-1,11
 75 97 75 97 58 142.5 c 128,-1,12
 41 188 41 188 41 245 c 0,13,14
 41 306 41 306 60 354 c 128,-1,15
 79 402 79 402 111.5 435 c 128,-1,16
 144 468 144 468 186 485.5 c 128,-1,17
 228 503 228 503 274 503 c 256,18,19
 320 503 320 503 362.5 485.5 c 128,-1,20
 405 468 405 468 437 435 c 128,-1,21
 469 402 469 402 488.5 354 c 128,-1,22
 508 306 508 306 508 245 c 0,23,24
 508 195 508 195 496.5 156.5 c 128,-1,25
 485 118 485 118 463.5 88 c 128,-1,26
 442 58 442 58 412.5 36 c 128,-1,27
 383 14 383 14 347 -2 c 0,28,29
 312 -19 312 -19 295 -44.5 c 128,-1,30
 278 -70 278 -70 278 -95 c 0,31,32
 278 -117 278 -117 291.5 -127 c 128,-1,33
 305 -137 305 -137 322 -137 c 0,34,35
 342 -137 342 -137 360 -124 c 1,36,-1
 386 -178 l 1,37,38
 369 -192 369 -192 343.5 -200 c 128,-1,39
 318 -208 318 -208 296 -208 c 0,0,1
274 82 m 256,40,41
 328 82 328 82 359 126.5 c 128,-1,42
 390 171 390 171 390 245 c 0,43,44
 390 320 390 320 359 364.5 c 128,-1,45
 328 409 328 409 274 409 c 256,46,47
 220 409 220 409 189.5 364.5 c 128,-1,48
 159 320 159 320 159 245 c 0,49,50
 159 171 159 171 189.5 126.5 c 128,-1,51
 220 82 220 82 274 82 c 256,40,41
EndSplineSet
Validated: 1
Substitution2: "'smcp' Lowercase to Small Capitals lookup 20 subtable" uni01EA.sc
Ligature2: "'ccmp' Glyph Composition/Decomposition lookup 11 subtable" o uni0328
Substitution2: "'aalt' Access All Alternates lookup 0 subtable" uni01EA.sc
EndChar

StartChar: germandbls
Encoding: 223 223 393
Width: 604
Flags: W
LayerCount: 2
Fore
SplineSet
404 -12 m 0,0,1
 362 -12 362 -12 327 0.5 c 128,-1,2
 292 13 292 13 258 35 c 1,3,-1
 300 114 l 1,4,5
 351 75 351 75 401 75 c 0,6,7
 434 75 434 75 452 94 c 128,-1,8
 470 113 470 113 470 139 c 0,9,10
 470 163 470 163 456 179 c 128,-1,11
 442 195 442 195 421.5 208 c 128,-1,12
 401 221 401 221 377 233 c 128,-1,13
 353 245 353 245 332.5 261.5 c 128,-1,14
 312 278 312 278 298 300.5 c 128,-1,15
 284 323 284 323 284 357 c 0,16,17
 284 388 284 388 296.5 410.5 c 128,-1,18
 309 433 309 433 323.5 453.5 c 128,-1,19
 338 474 338 474 350.5 495.5 c 128,-1,20
 363 517 363 517 363 547 c 0,21,22
 363 581 363 581 344.5 603 c 128,-1,23
 326 625 326 625 290 625 c 0,24,25
 240 625 240 625 213.5 589 c 128,-1,26
 187 553 187 553 187 484 c 2,27,-1
 187 0 l 1,28,-1
 73 0 l 1,29,-1
 73 501 l 2,30,31
 73 549 73 549 87 588.5 c 128,-1,32
 101 628 101 628 128 656.5 c 128,-1,33
 155 685 155 685 195.5 700.5 c 128,-1,34
 236 716 236 716 290 716 c 0,35,36
 335 716 335 716 369.5 703 c 128,-1,37
 404 690 404 690 427.5 668.5 c 128,-1,38
 451 647 451 647 462.5 619 c 128,-1,39
 474 591 474 591 474 560 c 0,40,41
 474 523 474 523 461 497.5 c 128,-1,42
 448 472 448 472 432 451.5 c 128,-1,43
 416 431 416 431 403 412 c 128,-1,44
 390 393 390 393 390 371 c 0,45,46
 390 351 390 351 404 337 c 128,-1,47
 418 323 418 323 438.5 311 c 128,-1,48
 459 299 459 299 483.5 286.5 c 128,-1,49
 508 274 508 274 528.5 255.5 c 128,-1,50
 549 237 549 237 563 210 c 128,-1,51
 577 183 577 183 577 144 c 0,52,53
 577 111 577 111 565.5 82.5 c 128,-1,54
 554 54 554 54 532 33 c 128,-1,55
 510 12 510 12 477.5 0 c 128,-1,56
 445 -12 445 -12 404 -12 c 0,0,1
EndSplineSet
Validated: 1
Substitution2: "'smcp' Lowercase to Small Capitals lookup 20 subtable" uni1E9E.sc
Substitution2: "'aalt' Access All Alternates lookup 0 subtable" uni1E9E.sc
EndChar

StartChar: uni0167
Encoding: 359 359 400
Width: 361
Flags: W
LayerCount: 2
Fore
SplineSet
20 227 m 1,0,-1
 20 281 l 1,1,-1
 90 286 l 1,2,-1
 90 400 l 1,3,-1
 20 400 l 1,4,-1
 20 486 l 1,5,-1
 96 491 l 1,6,-1
 110 625 l 1,7,-1
 206 625 l 1,8,-1
 206 491 l 1,9,-1
 331 491 l 1,10,-1
 331 400 l 1,11,-1
 206 400 l 1,12,-1
 206 286 l 1,13,-1
 331 286 l 1,14,-1
 331 227 l 1,15,-1
 206 227 l 1,16,-1
 206 166 l 2,17,18
 206 80 206 80 275 80 c 0,19,20
 288 80 288 80 301.5 83 c 128,-1,21
 315 86 315 86 326 91 c 1,22,-1
 346 6 l 1,23,24
 326 -1 326 -1 300.5 -6.5 c 128,-1,25
 275 -12 275 -12 246 -12 c 0,26,27
 203 -12 203 -12 173.5 1 c 128,-1,28
 144 14 144 14 125.5 37.5 c 128,-1,29
 107 61 107 61 98.5 93.5 c 128,-1,30
 90 126 90 126 90 166 c 2,31,-1
 90 227 l 1,32,-1
 20 227 l 1,0,-1
EndSplineSet
Validated: 1
Substitution2: "'smcp' Lowercase to Small Capitals lookup 20 subtable" uni0166.sc
Substitution2: "'aalt' Access All Alternates lookup 0 subtable" uni0166.sc
EndChar

StartChar: uogonek
Encoding: 371 371 417
Width: 556
GlyphClass: 2
Flags: W
AnchorPoint: "Anchor-0" 272 502 basechar 0
LayerCount: 2
Fore
SplineSet
414 -208 m 0,0,1
 372 -208 372 -208 344 -186 c 128,-1,2
 316 -164 316 -164 316 -120 c 0,3,4
 316 -99 316 -99 323 -81 c 128,-1,5
 330 -63 330 -63 340.5 -48 c 128,-1,6
 351 -33 351 -33 364 -20.5 c 128,-1,7
 377 -8 377 -8 390 1 c 1,8,-1
 380 72 l 1,9,-1
 377 72 l 1,10,11
 345 34 345 34 307.5 11 c 128,-1,12
 270 -12 270 -12 219 -12 c 0,13,14
 140 -12 140 -12 104 38.5 c 128,-1,15
 68 89 68 89 68 183 c 2,16,-1
 68 491 l 1,17,-1
 183 491 l 1,18,-1
 183 198 l 2,19,20
 183 137 183 137 201 112 c 128,-1,21
 219 87 219 87 259 87 c 0,22,23
 291 87 291 87 315.5 103 c 128,-1,24
 340 119 340 119 368 155 c 1,25,-1
 368 491 l 1,26,-1
 483 491 l 1,27,-1
 483 0 l 1,28,29
 436 -18 436 -18 416 -43.5 c 128,-1,30
 396 -69 396 -69 396 -95 c 0,31,32
 396 -116 396 -116 409.5 -126.5 c 128,-1,33
 423 -137 423 -137 440 -137 c 0,34,35
 462 -137 462 -137 478 -124 c 1,36,-1
 504 -178 l 1,37,38
 487 -192 487 -192 461 -200 c 128,-1,39
 435 -208 435 -208 414 -208 c 0,0,1
EndSplineSet
Validated: 1
Substitution2: "'smcp' Lowercase to Small Capitals lookup 20 subtable" Uogonek.sc
Ligature2: "'ccmp' Glyph Composition/Decomposition lookup 11 subtable" u uni0328
Substitution2: "'aalt' Access All Alternates lookup 0 subtable" Uogonek.sc
EndChar

StartChar: uhorn
Encoding: 432 432 418
Width: 556
GlyphClass: 2
Flags: W
AnchorPoint: "Anchor-4" 294 -22 basechar 0
AnchorPoint: "Anchor-0" 276 514 basechar 0
LayerCount: 2
Fore
SplineSet
219 -12 m 0,0,1
 140 -12 140 -12 104 38.5 c 128,-1,2
 68 89 68 89 68 183 c 2,3,-1
 68 491 l 1,4,-1
 183 491 l 1,5,-1
 183 198 l 2,6,7
 183 137 183 137 201 112 c 128,-1,8
 219 87 219 87 259 87 c 0,9,10
 291 87 291 87 315.5 103 c 128,-1,11
 340 119 340 119 368 155 c 1,12,-1
 368 491 l 1,13,-1
 402 491 l 2,14,15
 418 493 418 493 433 497.5 c 128,-1,16
 448 502 448 502 459.5 512.5 c 128,-1,17
 471 523 471 523 478 540.5 c 128,-1,18
 485 558 485 558 485 585 c 0,19,20
 485 601 485 601 480.5 615.5 c 128,-1,21
 476 630 476 630 470 641 c 1,22,-1
 556 680 l 1,23,24
 567 664 567 664 575 641 c 128,-1,25
 583 618 583 618 583 593 c 0,26,27
 583 563 583 563 574.5 539.5 c 128,-1,28
 566 516 566 516 552 499 c 128,-1,29
 538 482 538 482 520 470.5 c 128,-1,30
 502 459 502 459 483 453 c 1,31,-1
 483 0 l 1,32,-1
 389 0 l 1,33,-1
 380 72 l 1,34,-1
 377 72 l 1,35,36
 345 34 345 34 307.5 11 c 128,-1,37
 270 -12 270 -12 219 -12 c 0,0,1
EndSplineSet
Validated: 1
Substitution2: "'smcp' Lowercase to Small Capitals lookup 20 subtable" Uhorn.sc
Substitution2: "'aalt' Access All Alternates lookup 0 subtable" Uhorn.sc
EndChar

StartChar: eth
Encoding: 240 240 441
Width: 552
Flags: W
LayerCount: 2
Fore
SplineSet
271 -12 m 0,0,1
 226 -12 226 -12 186 4.5 c 128,-1,2
 146 21 146 21 115 51.5 c 128,-1,3
 84 82 84 82 66 126 c 128,-1,4
 48 170 48 170 48 225 c 0,5,6
 48 277 48 277 64.5 319 c 128,-1,7
 81 361 81 361 109 390.5 c 128,-1,8
 137 420 137 420 174 435.5 c 128,-1,9
 211 451 211 451 252 451 c 0,10,11
 286 451 286 451 317.5 438.5 c 128,-1,12
 349 426 349 426 372 397 c 1,13,14
 358 447 358 447 334 486.5 c 128,-1,15
 310 526 310 526 276 559 c 1,16,-1
 134 487 l 1,17,-1
 103 540 l 1,18,-1
 225 602 l 1,19,20
 202 619 202 619 177 634 c 128,-1,21
 152 649 152 649 124 664 c 1,22,-1
 175 735 l 1,23,24
 211 716 211 716 246 694.5 c 128,-1,25
 281 673 281 673 313 647 c 1,26,-1
 456 720 l 1,27,-1
 487 666 l 1,28,-1
 363 603 l 1,29,30
 422 543 422 543 460 460 c 128,-1,31
 498 377 498 377 498 262 c 0,32,33
 498 202 498 202 482 151.5 c 128,-1,34
 466 101 466 101 436.5 64.5 c 128,-1,35
 407 28 407 28 365 8 c 128,-1,36
 323 -12 323 -12 271 -12 c 0,0,1
274 82 m 0,37,38
 329 82 329 82 359 127.5 c 128,-1,39
 389 173 389 173 389 256 c 0,40,41
 389 269 389 269 388.5 281.5 c 128,-1,42
 388 294 388 294 387 306 c 1,43,44
 360 340 360 340 331.5 352 c 128,-1,45
 303 364 303 364 273 364 c 0,46,47
 218 364 218 364 186 327 c 128,-1,48
 154 290 154 290 154 225 c 0,49,50
 154 192 154 192 163.5 165.5 c 128,-1,51
 173 139 173 139 189.5 120.5 c 128,-1,52
 206 102 206 102 228 92 c 128,-1,53
 250 82 250 82 274 82 c 0,37,38
EndSplineSet
Validated: 1
Substitution2: "'smcp' Lowercase to Small Capitals lookup 20 subtable" Eth.sc
Substitution2: "'aalt' Access All Alternates lookup 0 subtable" Eth.sc
EndChar

StartChar: thorn
Encoding: 254 254 442
Width: 564
GlyphClass: 2
Flags: W
AnchorPoint: "Anchor-4" 289 -22 basechar 0
AnchorPoint: "Anchor-0" 133 730 basechar 0
LayerCount: 2
Fore
SplineSet
73 -194 m 1,0,-1
 73 706 l 1,1,-1
 188 706 l 1,2,-1
 188 524 l 1,3,-1
 186 447 l 1,4,5
 215 471 215 471 249.5 487 c 128,-1,6
 284 503 284 503 322 503 c 0,7,8
 369 503 369 503 406 485.5 c 128,-1,9
 443 468 443 468 468.5 435 c 128,-1,10
 494 402 494 402 507.5 356 c 128,-1,11
 521 310 521 310 521 253 c 0,12,13
 521 190 521 190 503.5 140.5 c 128,-1,14
 486 91 486 91 457 57.5 c 128,-1,15
 428 24 428 24 390 6 c 128,-1,16
 352 -12 352 -12 311 -12 c 0,17,18
 276 -12 276 -12 245.5 1 c 128,-1,19
 215 14 215 14 186 38 c 1,20,-1
 188 -40 l 1,21,-1
 188 -194 l 1,22,-1
 73 -194 l 1,0,-1
287 83 m 0,23,24
 336 83 336 83 369 125.5 c 128,-1,25
 402 168 402 168 402 252 c 0,26,27
 402 326 402 326 377 367 c 128,-1,28
 352 408 352 408 296 408 c 0,29,30
 244 408 244 408 188 353 c 1,31,-1
 188 124 l 1,32,33
 215 101 215 101 240 92 c 128,-1,34
 265 83 265 83 287 83 c 0,23,24
EndSplineSet
Validated: 1
Substitution2: "'smcp' Lowercase to Small Capitals lookup 20 subtable" Thorn.sc
Substitution2: "'aalt' Access All Alternates lookup 0 subtable" Thorn.sc
EndChar

StartChar: uni014B
Encoding: 331 331 443
Width: 560
GlyphClass: 2
Flags: W
AnchorPoint: "Anchor-0" 300 514 basechar 0
LayerCount: 2
Fore
SplineSet
336 -185 m 0,0,1
 310 -185 310 -185 290.5 -181 c 128,-1,2
 271 -177 271 -177 257 -172 c 1,3,-1
 278 -86 l 1,4,5
 288 -89 288 -89 298.5 -91 c 128,-1,6
 309 -93 309 -93 320 -93 c 0,7,8
 353 -93 353 -93 365 -71 c 128,-1,9
 377 -49 377 -49 377 -6 c 2,10,-1
 377 293 l 2,11,12
 377 354 377 354 359 379 c 128,-1,13
 341 404 341 404 300 404 c 0,14,15
 268 404 268 404 243.5 388.5 c 128,-1,16
 219 373 219 373 188 343 c 1,17,-1
 188 0 l 1,18,-1
 73 0 l 1,19,-1
 73 491 l 1,20,-1
 168 491 l 1,21,-1
 176 425 l 1,22,-1
 180 425 l 1,23,24
 213 457 213 457 251.5 480 c 128,-1,25
 290 503 290 503 341 503 c 0,26,27
 420 503 420 503 456 452.5 c 128,-1,28
 492 402 492 402 492 308 c 2,29,-1
 492 -4 l 2,30,31
 492 -43 492 -43 484 -76 c 128,-1,32
 476 -109 476 -109 458 -133.5 c 128,-1,33
 440 -158 440 -158 410 -171.5 c 128,-1,34
 380 -185 380 -185 336 -185 c 0,0,1
EndSplineSet
Validated: 1
Substitution2: "'smcp' Lowercase to Small Capitals lookup 20 subtable" uni014A.sc
Substitution2: "'aalt' Access All Alternates lookup 0 subtable" uni014A.sc
EndChar

StartChar: uni0237
Encoding: 567 567 444
Width: 263
GlyphClass: 2
Flags: W
AnchorPoint: "Anchor-0" 132 514 basechar 0
LayerCount: 2
Fore
SplineSet
34 -206 m 0,0,1
 7 -206 7 -206 -12.5 -202 c 128,-1,2
 -32 -198 -32 -198 -46 -193 c 1,3,-1
 -24 -107 l 1,4,5
 -14 -110 -14 -110 -3.5 -112.5 c 128,-1,6
 7 -115 7 -115 18 -115 c 0,7,8
 51 -115 51 -115 62.5 -92.5 c 128,-1,9
 74 -70 74 -70 74 -27 c 2,10,-1
 74 491 l 1,11,-1
 190 491 l 1,12,-1
 190 -25 l 2,13,14
 190 -64 190 -64 182 -97 c 128,-1,15
 174 -130 174 -130 155.5 -154.5 c 128,-1,16
 137 -179 137 -179 107 -192.5 c 128,-1,17
 77 -206 77 -206 34 -206 c 0,0,1
EndSplineSet
Validated: 1
EndChar

StartChar: uni0133
Encoding: 307 307 445
Width: 524
Flags: W
LayerCount: 2
Fore
SplineSet
73 0 m 1,0,-1
 73 491 l 1,1,-1
 188 491 l 1,2,-1
 188 0 l 1,3,-1
 73 0 l 1,0,-1
131 577 m 256,4,5
 100 577 100 577 80 595 c 128,-1,6
 60 613 60 613 60 642 c 256,7,8
 60 671 60 671 80 689.5 c 128,-1,9
 100 708 100 708 131 708 c 256,10,11
 162 708 162 708 182 689.5 c 128,-1,12
 202 671 202 671 202 642 c 256,13,14
 202 613 202 613 182 595 c 128,-1,15
 162 577 162 577 131 577 c 256,4,5
296 -206 m 0,16,17
 269 -206 269 -206 249.5 -202 c 128,-1,18
 230 -198 230 -198 216 -193 c 1,19,-1
 238 -107 l 1,20,21
 248 -110 248 -110 258.5 -112.5 c 128,-1,22
 269 -115 269 -115 280 -115 c 0,23,24
 313 -115 313 -115 324.5 -92.5 c 128,-1,25
 336 -70 336 -70 336 -27 c 2,26,-1
 336 491 l 1,27,-1
 452 491 l 1,28,-1
 452 -25 l 2,29,30
 452 -64 452 -64 444 -97 c 128,-1,31
 436 -130 436 -130 417.5 -154.5 c 128,-1,32
 399 -179 399 -179 369 -192.5 c 128,-1,33
 339 -206 339 -206 296 -206 c 0,16,17
394 577 m 0,34,35
 364 577 364 577 343.5 595 c 128,-1,36
 323 613 323 613 323 642 c 256,37,38
 323 671 323 671 343.5 689.5 c 128,-1,39
 364 708 364 708 394 708 c 0,40,41
 425 708 425 708 445.5 689.5 c 128,-1,42
 466 671 466 671 466 642 c 256,43,44
 466 613 466 613 445.5 595 c 128,-1,45
 425 577 425 577 394 577 c 0,34,35
EndSplineSet
Validated: 1
Substitution2: "'smcp' Lowercase to Small Capitals lookup 20 subtable" uni0132.sc
Substitution2: "'aalt' Access All Alternates lookup 0 subtable" uni0132.sc
EndChar

StartChar: uni0250
Encoding: 592 592 446
Width: 523
GlyphClass: 2
Flags: W
AnchorPoint: "Anchor-7" 346 0 basechar 0
AnchorPoint: "Anchor-4" 282 -22 basechar 0
AnchorPoint: "Anchor-0" 279 514 basechar 0
LayerCount: 2
Fore
SplineSet
274 -12 m 0,0,1
 168 -12 168 -12 117 45 c 128,-1,2
 66 102 66 102 66 207 c 2,3,-1
 66 491 l 1,4,-1
 161 491 l 1,5,-1
 170 427 l 1,6,-1
 173 427 l 1,7,8
 205 462 205 462 246.5 482.5 c 128,-1,9
 288 503 288 503 338 503 c 0,10,11
 398 503 398 503 434 467.5 c 128,-1,12
 470 432 470 432 470 372 c 0,13,14
 470 290 470 290 401.5 241.5 c 128,-1,15
 333 193 333 193 182 176 c 1,16,17
 183 157 183 157 188.5 140 c 128,-1,18
 194 123 194 123 206.5 110 c 128,-1,19
 219 97 219 97 239.5 89 c 128,-1,20
 260 81 260 81 290 81 c 0,21,22
 326 81 326 81 358.5 95 c 128,-1,23
 391 109 391 109 423 129 c 1,24,-1
 465 52 l 1,25,26
 427 26 427 26 378 7 c 128,-1,27
 329 -12 329 -12 274 -12 c 0,0,1
182 249 m 1,28,29
 232 256 232 256 266 266 c 128,-1,30
 300 276 300 276 320.5 289 c 128,-1,31
 341 302 341 302 350 318.5 c 128,-1,32
 359 335 359 335 359 354 c 0,33,34
 359 385 359 385 341 399 c 128,-1,35
 323 413 323 413 296 413 c 0,36,37
 239 413 239 413 182 349 c 1,38,-1
 182 249 l 1,28,29
EndSplineSet
Validated: 1
EndChar

StartChar: uni0252
Encoding: 594 594 447
Width: 564
GlyphClass: 2
Flags: W
AnchorPoint: "Anchor-4" 290 -22 basechar 0
AnchorPoint: "Anchor-0" 298 514 basechar 0
LayerCount: 2
Fore
SplineSet
311 -12 m 0,0,1
 279 -12 279 -12 244 3 c 128,-1,2
 209 18 209 18 177 48 c 1,3,-1
 174 48 l 1,4,-1
 165 0 l 1,5,-1
 73 0 l 1,6,-1
 73 491 l 1,7,-1
 168 491 l 1,8,-1
 176 438 l 1,9,-1
 180 438 l 1,10,11
 211 465 211 465 249 484 c 128,-1,12
 287 503 287 503 328 503 c 0,13,14
 374 503 374 503 409.5 485.5 c 128,-1,15
 445 468 445 468 470 435 c 128,-1,16
 495 402 495 402 508 356 c 128,-1,17
 521 310 521 310 521 253 c 0,18,19
 521 190 521 190 503.5 140.5 c 128,-1,20
 486 91 486 91 457 57.5 c 128,-1,21
 428 24 428 24 390 6 c 128,-1,22
 352 -12 352 -12 311 -12 c 0,0,1
287 83 m 0,23,24
 336 83 336 83 369 125.5 c 128,-1,25
 402 168 402 168 402 252 c 0,26,27
 402 326 402 326 377 367 c 128,-1,28
 352 408 352 408 296 408 c 0,29,30
 244 408 244 408 188 353 c 1,31,-1
 188 124 l 1,32,33
 215 101 215 101 240 92 c 128,-1,34
 265 83 265 83 287 83 c 0,23,24
EndSplineSet
Validated: 1
EndChar

StartChar: uni0253
Encoding: 595 595 448
Width: 564
GlyphClass: 2
Flags: W
AnchorPoint: "Anchor-4" 289 -22 basechar 0
LayerCount: 2
Fore
SplineSet
311 -12 m 0,0,1
 277 -12 277 -12 242.5 4 c 128,-1,2
 208 20 208 20 177 50 c 1,3,-1
 174 50 l 1,4,-1
 164 0 l 1,5,-1
 73 0 l 1,6,-1
 73 518 l 2,7,8
 73 560 73 560 83.5 596.5 c 128,-1,9
 94 633 94 633 117 660 c 128,-1,10
 140 687 140 687 175 702.5 c 128,-1,11
 210 718 210 718 260 718 c 0,12,13
 287 718 287 718 310.5 713 c 128,-1,14
 334 708 334 708 351 701 c 1,15,-1
 328 615 l 1,16,17
 301 627 301 627 275 627 c 0,18,19
 232 627 232 627 211 600.5 c 128,-1,20
 190 574 190 574 187 520 c 2,21,-1
 185 430 l 1,22,23
 216 457 216 457 252.5 474 c 128,-1,24
 289 491 289 491 327 491 c 0,25,26
 373 491 373 491 409 473.5 c 128,-1,27
 445 456 445 456 470 424.5 c 128,-1,28
 495 393 495 393 508 348 c 128,-1,29
 521 303 521 303 521 248 c 0,30,31
 521 186 521 186 503.5 137.5 c 128,-1,32
 486 89 486 89 457 56 c 128,-1,33
 428 23 428 23 390 5.5 c 128,-1,34
 352 -12 352 -12 311 -12 c 0,0,1
287 83 m 0,35,36
 336 83 336 83 369 124 c 128,-1,37
 402 165 402 165 402 246 c 0,38,39
 402 317 402 317 377 356.5 c 128,-1,40
 352 396 352 396 296 396 c 0,41,42
 244 396 244 396 188 341 c 1,43,-1
 188 124 l 1,44,45
 214 101 214 101 239.5 92 c 128,-1,46
 265 83 265 83 287 83 c 0,35,36
EndSplineSet
Validated: 1
EndChar

StartChar: uni0254
Encoding: 596 596 449
Width: 462
Flags: W
LayerCount: 2
Fore
SplineSet
184 -12 m 0,0,1
 142 -12 142 -12 100.5 3 c 128,-1,2
 59 18 59 18 24 48 c 1,3,-1
 70 124 l 1,4,5
 91 107 91 107 117 94.5 c 128,-1,6
 143 82 143 82 172 82 c 0,7,8
 200 82 200 82 224 93.5 c 128,-1,9
 248 105 248 105 265.5 126.5 c 128,-1,10
 283 148 283 148 292.5 178 c 128,-1,11
 302 208 302 208 302 245 c 0,12,13
 302 320 302 320 267 364.5 c 128,-1,14
 232 409 232 409 178 409 c 0,15,16
 148 409 148 409 127.5 400 c 128,-1,17
 107 391 107 391 87 373 c 1,18,-1
 31 448 l 1,19,20
 59 471 59 471 98 487 c 128,-1,21
 137 503 137 503 191 503 c 0,22,23
 237 503 237 503 279 486 c 128,-1,24
 321 469 321 469 352.5 436 c 128,-1,25
 384 403 384 403 402.5 355 c 128,-1,26
 421 307 421 307 421 245 c 0,27,28
 421 184 421 184 402.5 136 c 128,-1,29
 384 88 384 88 352 55 c 128,-1,30
 320 22 320 22 276.5 5 c 128,-1,31
 233 -12 233 -12 184 -12 c 0,0,1
EndSplineSet
Validated: 1
EndChar

StartChar: uni0255
Encoding: 597 597 450
Width: 462
GlyphClass: 2
Flags: W
AnchorPoint: "Anchor-0" 281 514 basechar 0
LayerCount: 2
Fore
SplineSet
289 77 m 0,0,1
 320 77 320 77 339 90.5 c 128,-1,2
 358 104 358 104 358 124 c 0,3,4
 358 138 358 138 347 151 c 128,-1,5
 336 164 336 164 313 164 c 256,6,7
 290 164 290 164 265 147.5 c 128,-1,8
 240 131 240 131 216 101 c 1,9,10
 247 77 247 77 289 77 c 0,0,1
130 -71 m 1,11,-1
 40 -32 l 1,12,13
 52 -1 52 -1 65.5 26 c 128,-1,14
 79 53 79 53 93 77 c 1,15,16
 68 109 68 109 54.5 151 c 128,-1,17
 41 193 41 193 41 245 c 0,18,19
 41 306 41 306 61 354 c 128,-1,20
 81 402 81 402 115 435 c 128,-1,21
 149 468 149 468 193.5 485.5 c 128,-1,22
 238 503 238 503 287 503 c 0,23,24
 335 503 335 503 369.5 487 c 128,-1,25
 404 471 404 471 431 448 c 1,26,-1
 378 378 l 1,27,28
 337 414 337 414 293 414 c 0,29,30
 230 414 230 414 191.5 368 c 128,-1,31
 153 322 153 322 153 245 c 0,32,33
 153 224 153 224 156.5 205.5 c 128,-1,34
 160 187 160 187 166 170 c 1,35,36
 243 242 243 242 322 242 c 0,37,38
 381 242 381 242 413.5 210.5 c 128,-1,39
 446 179 446 179 446 125 c 0,40,41
 446 96 446 96 435 71.5 c 128,-1,42
 424 47 424 47 403.5 28 c 128,-1,43
 383 9 383 9 353 -1.5 c 128,-1,44
 323 -12 323 -12 286 -12 c 0,45,46
 219 -12 219 -12 164 17 c 1,47,48
 155 -3 155 -3 146.5 -25 c 128,-1,49
 138 -47 138 -47 130 -71 c 1,11,-1
EndSplineSet
Validated: 1
EndChar

StartChar: uni0256
Encoding: 598 598 451
Width: 564
Flags: W
LayerCount: 2
Fore
SplineSet
521 -185 m 0,0,1
 485 -185 485 -185 458 -174 c 128,-1,2
 431 -163 431 -163 413.5 -144 c 128,-1,3
 396 -125 396 -125 387.5 -98.5 c 128,-1,4
 379 -72 379 -72 379 -41 c 2,5,-1
 380 49 l 1,6,7
 352 23 352 23 317.5 5.5 c 128,-1,8
 283 -12 283 -12 245 -12 c 0,9,10
 152 -12 152 -12 97.5 55.5 c 128,-1,11
 43 123 43 123 43 245 c 0,12,13
 43 305 43 305 60.5 353 c 128,-1,14
 78 401 78 401 107 434 c 128,-1,15
 136 467 136 467 173.5 485 c 128,-1,16
 211 503 211 503 251 503 c 0,17,18
 293 503 293 503 322 488.5 c 128,-1,19
 351 474 351 474 380 449 c 1,20,-1
 376 528 l 1,21,-1
 376 718 l 1,22,-1
 491 718 l 1,23,-1
 491 -14 l 2,24,25
 491 -53 491 -53 501 -73 c 128,-1,26
 511 -93 511 -93 537 -93 c 0,27,28
 546 -93 546 -93 554 -91 c 128,-1,29
 562 -89 562 -89 570 -86 c 1,30,-1
 591 -172 l 1,31,32
 579 -177 579 -177 561.5 -181 c 128,-1,33
 544 -185 544 -185 521 -185 c 0,0,1
273 83 m 0,34,35
 328 83 328 83 376 138 c 1,36,-1
 376 367 l 1,37,38
 350 390 350 390 325.5 399 c 128,-1,39
 301 408 301 408 276 408 c 0,40,41
 228 408 228 408 195 366 c 128,-1,42
 162 324 162 324 162 246 c 0,43,44
 162 166 162 166 190.5 124.5 c 128,-1,45
 219 83 219 83 273 83 c 0,34,35
EndSplineSet
Validated: 1
EndChar

StartChar: uni0257
Encoding: 599 599 452
Width: 564
GlyphClass: 2
Flags: W
AnchorPoint: "Anchor-4" 306 -22 basechar 0
LayerCount: 2
Fore
SplineSet
245 -12 m 0,0,1
 152 -12 152 -12 97.5 55.5 c 128,-1,2
 43 123 43 123 43 245 c 0,3,4
 43 305 43 305 60.5 353 c 128,-1,5
 78 401 78 401 107 434 c 128,-1,6
 136 467 136 467 173.5 485 c 128,-1,7
 211 503 211 503 251 503 c 0,8,9
 293 503 293 503 322 488.5 c 128,-1,10
 351 474 351 474 380 449 c 1,11,-1
 379 556 l 2,12,13
 379 592 379 592 387.5 621.5 c 128,-1,14
 396 651 396 651 414.5 673 c 128,-1,15
 433 695 433 695 461.5 707 c 128,-1,16
 490 719 490 719 530 719 c 0,17,18
 551 719 551 719 566 716.5 c 128,-1,19
 581 714 581 714 593 709 c 1,20,-1
 572 623 l 1,21,22
 559 628 559 628 546 628 c 0,23,24
 516 628 516 628 503.5 607 c 128,-1,25
 491 586 491 586 491 546 c 2,26,-1
 491 0 l 1,27,-1
 396 0 l 1,28,-1
 388 53 l 1,29,-1
 384 53 l 1,30,31
 357 26 357 26 321 7 c 128,-1,32
 285 -12 285 -12 245 -12 c 0,0,1
273 83 m 0,33,34
 328 83 328 83 376 138 c 1,35,-1
 376 367 l 1,36,37
 350 390 350 390 325.5 399 c 128,-1,38
 301 408 301 408 276 408 c 0,39,40
 228 408 228 408 195 366 c 128,-1,41
 162 324 162 324 162 246 c 0,42,43
 162 166 162 166 190.5 124.5 c 128,-1,44
 219 83 219 83 273 83 c 0,33,34
EndSplineSet
Validated: 1
EndChar

StartChar: uni0258
Encoding: 600 600 453
Width: 507
GlyphClass: 2
Flags: W
AnchorPoint: "Anchor-7" 250 0 basechar 0
AnchorPoint: "Anchor-4" 258 -22 basechar 0
AnchorPoint: "Anchor-0" 252 514 basechar 0
LayerCount: 2
Fore
SplineSet
228 -12 m 0,0,1
 181 -12 181 -12 136 3 c 128,-1,2
 91 18 91 18 56 41 c 1,3,-1
 95 113 l 1,4,5
 151 77 151 77 213 77 c 0,6,7
 274 77 274 77 310 112.5 c 128,-1,8
 346 148 346 148 354 214 c 1,9,-1
 42 214 l 1,10,11
 40 223 40 223 38.5 238 c 128,-1,12
 37 253 37 253 37 270 c 0,13,14
 37 321 37 321 51.5 364 c 128,-1,15
 66 407 66 407 93.5 438 c 128,-1,16
 121 469 121 469 160.5 486 c 128,-1,17
 200 503 200 503 250 503 c 0,18,19
 294 503 294 503 333.5 485 c 128,-1,20
 373 467 373 467 402.5 434 c 128,-1,21
 432 401 432 401 449 353 c 128,-1,22
 466 305 466 305 466 245 c 0,23,24
 466 184 466 184 448 136.5 c 128,-1,25
 430 89 430 89 398.5 56 c 128,-1,26
 367 23 367 23 323 5.5 c 128,-1,27
 279 -12 279 -12 228 -12 c 0,0,1
136 292 m 1,28,-1
 355 292 l 1,29,30
 348 352 348 352 319.5 383 c 128,-1,31
 291 414 291 414 246 414 c 0,32,33
 195 414 195 414 165.5 381.5 c 128,-1,34
 136 349 136 349 136 292 c 1,28,-1
EndSplineSet
Validated: 1
EndChar

StartChar: uni0251
Encoding: 593 593 454
Width: 516
GlyphClass: 2
Flags: W
LayerCount: 2
Fore
SplineSet
229 78 m 0,0,1
 259 78 259 78 283.5 92 c 128,-1,2
 308 106 308 106 336 132 c 1,3,-1
 336 226 l 1,4,-1
 336 242 l 1,5,6
 286 236 286 236 252 226 c 128,-1,7
 218 216 218 216 197 203.5 c 128,-1,8
 176 191 176 191 167 175 c 128,-1,9
 158 159 158 159 158 141 c 0,10,11
 158 108 158 108 178 93 c 128,-1,12
 198 78 198 78 229 78 c 0,0,1
192 -12 m 0,13,14
 127 -12 127 -12 87 27.5 c 128,-1,15
 47 67 47 67 47 132 c 0,16,17
 47 171 47 171 63.5 201.5 c 128,-1,18
 80 232 80 232 115.5 254 c 128,-1,19
 151 276 151 276 205.5 291 c 128,-1,20
 260 306 260 306 336 314 c 1,21,22
 335 333 335 333 330.5 350.5 c 128,-1,23
 326 368 326 368 315.5 381.5 c 128,-1,24
 305 395 305 395 288 402.5 c 128,-1,25
 271 410 271 410 246 410 c 0,26,27
 210 410 210 410 175.5 396 c 128,-1,28
 141 382 141 382 108 362 c 1,29,-1
 66 439 l 1,30,31
 107 465 107 465 158 484 c 128,-1,32
 209 503 209 503 268 503 c 0,33,34
 360 503 360 503 405.5 448.5 c 128,-1,35
 451 394 451 394 451 291 c 2,36,-1
 451 226 l 1,37,-1
 451 120 l 2,38,39
 451 99 451 99 459 90.5 c 128,-1,40
 467 82 467 82 476 82 c 0,41,42
 480 82 480 82 483.5 82 c 128,-1,43
 487 82 487 82 494 84 c 1,44,-1
 509 -2 l 1,45,46
 486 -12 486 -12 448 -12 c 0,47,48
 386 -12 386 -12 361 25 c 0,49,50
 352.305875908 37.8673036556 352.305875908 37.8673036556 346.635263566 54 c 1,51,-1
 344 54 l 1,52,53
 311 26 311 26 273.5 7 c 128,-1,54
 236 -12 236 -12 192 -12 c 0,13,14
EndSplineSet
Validated: 1
EndChar

StartChar: uni0259
Encoding: 601 601 456
Width: 507
GlyphClass: 2
Flags: W
AnchorPoint: "Anchor-7" 247 0 basechar 0
AnchorPoint: "Anchor-4" 247 -22 basechar 0
AnchorPoint: "Anchor-0" 249 514 basechar 0
LayerCount: 2
Fore
SplineSet
244 -12 m 0,0,1
 194 -12 194 -12 155.5 5 c 128,-1,2
 117 22 117 22 91 53.5 c 128,-1,3
 65 85 65 85 51 128.5 c 128,-1,4
 37 172 37 172 37 225 c 0,5,6
 37 242 37 242 38.5 257.5 c 128,-1,7
 40 273 40 273 42 282 c 1,8,-1
 354 282 l 1,9,10
 347 345 347 345 314 379.5 c 128,-1,11
 281 414 281 414 224 414 c 0,12,13
 192 414 192 414 163 404 c 128,-1,14
 134 394 134 394 107 377 c 1,15,-1
 68 453 l 1,16,17
 105 478 105 478 149.5 490.5 c 128,-1,18
 194 503 194 503 243 503 c 0,19,20
 291 503 291 503 331.5 485.5 c 128,-1,21
 372 468 372 468 402 435 c 128,-1,22
 432 402 432 402 449 354 c 128,-1,23
 466 306 466 306 466 246 c 256,24,25
 466 186 466 186 448.5 138 c 128,-1,26
 431 90 431 90 400.5 57 c 128,-1,27
 370 24 370 24 329.5 6 c 128,-1,28
 289 -12 289 -12 244 -12 c 0,0,1
241 77 m 0,29,30
 287 77 287 77 317 109 c 128,-1,31
 347 141 347 141 355 204 c 1,32,-1
 136 204 l 1,33,34
 136 143 136 143 163 110 c 128,-1,35
 190 77 190 77 241 77 c 0,29,30
EndSplineSet
Validated: 1
Substitution2: "'sups' Superscript lookup 26 subtable" uni0259.sups
Substitution2: "'smcp' Lowercase to Small Capitals lookup 20 subtable" uni018F.sc
AlternateSubs2: "'aalt' Access All Alternates lookup 1 subtable" uni018F.sc uni0259.sups
EndChar

StartChar: uni025A
Encoding: 602 602 457
Width: 678
GlyphClass: 2
Flags: W
AnchorPoint: "Anchor-0" 239 514 basechar 0
LayerCount: 2
Fore
SplineSet
254 -12 m 0,0,1
 201 -12 201 -12 161.5 6 c 128,-1,2
 122 24 122 24 95.5 54 c 128,-1,3
 69 84 69 84 54.5 123.5 c 128,-1,4
 40 163 40 163 37 207 c 1,5,-1
 342 335 l 1,6,7
 326 376 326 376 296 395 c 128,-1,8
 266 414 266 414 224 414 c 0,9,10
 190 414 190 414 162.5 404 c 128,-1,11
 135 394 135 394 108 377 c 1,12,-1
 69 453 l 1,13,14
 106 478 106 478 149 490.5 c 128,-1,15
 192 503 192 503 238 503 c 0,16,17
 310 503 310 503 361.5 469.5 c 128,-1,18
 413 436 413 436 440 376 c 1,19,-1
 526 412 l 1,20,-1
 584 390 l 1,21,22
 587 334 587 334 598 315.5 c 128,-1,23
 609 297 609 297 632 297 c 0,24,25
 644 297 644 297 654 301 c 128,-1,26
 664 305 664 305 672 310 c 1,27,-1
 698 253 l 1,28,29
 684 243 684 243 666.5 235.5 c 128,-1,30
 649 228 649 228 627 228 c 0,31,32
 611 228 611 228 594.5 232.5 c 128,-1,33
 578 237 578 237 563 247.5 c 128,-1,34
 548 258 548 258 536.5 276.5 c 128,-1,35
 525 295 525 295 518 324 c 1,36,-1
 462 301 l 1,37,38
 464 286 464 286 465.5 271 c 128,-1,39
 467 256 467 256 467 239 c 0,40,41
 467 187 467 187 451.5 141.5 c 128,-1,42
 436 96 436 96 408.5 62 c 128,-1,43
 381 28 381 28 341.5 8 c 128,-1,44
 302 -12 302 -12 254 -12 c 0,0,1
251 76 m 0,45,46
 275 76 275 76 295 87.5 c 128,-1,47
 315 99 315 99 329.5 119.5 c 128,-1,48
 344 140 344 140 351.5 168 c 128,-1,49
 359 196 359 196 359 229 c 0,50,51
 359 237 359 237 359 243.5 c 128,-1,52
 359 250 359 250 358 257 c 1,53,-1
 141 166 l 1,54,55
 149 123 149 123 179 99.5 c 128,-1,56
 209 76 209 76 251 76 c 0,45,46
EndSplineSet
Validated: 1
EndChar

StartChar: uni025B
Encoding: 603 603 458
Width: 451
GlyphClass: 2
Flags: W
AnchorPoint: "Anchor-4" 252 -22 basechar 0
AnchorPoint: "Anchor-0" 253 514 basechar 0
LayerCount: 2
Fore
SplineSet
259 -12 m 0,0,1
 217 -12 217 -12 179 -2 c 128,-1,2
 141 8 141 8 112 27 c 128,-1,3
 83 46 83 46 65.5 74 c 128,-1,4
 48 102 48 102 48 138 c 0,5,6
 48 189 48 189 78.5 218 c 128,-1,7
 109 247 109 247 154 258 c 1,8,-1
 154 262 l 1,9,10
 113 276 113 276 92.5 305.5 c 128,-1,11
 72 335 72 335 72 367 c 0,12,13
 72 402 72 402 87.5 428 c 128,-1,14
 103 454 103 454 129 470.5 c 128,-1,15
 155 487 155 487 189.5 495 c 128,-1,16
 224 503 224 503 262 503 c 0,17,18
 306 503 306 503 343.5 491 c 128,-1,19
 381 479 381 479 416 456 c 1,20,-1
 372 381 l 1,21,22
 346 397 346 397 321.5 405.5 c 128,-1,23
 297 414 297 414 267 414 c 0,24,25
 232 414 232 414 209 397.5 c 128,-1,26
 186 381 186 381 186 352 c 0,27,28
 186 324 186 324 208 308 c 128,-1,29
 230 292 230 292 276 292 c 2,30,-1
 338 292 l 1,31,-1
 338 214 l 1,32,-1
 261 214 l 2,33,34
 162 214 162 214 162 149 c 0,35,36
 162 115 162 115 192.5 96 c 128,-1,37
 223 77 223 77 271 77 c 0,38,39
 299 77 299 77 327 86 c 128,-1,40
 355 95 355 95 385 115 c 1,41,-1
 431 40 l 1,42,43
 387 11 387 11 347 -0.5 c 128,-1,44
 307 -12 307 -12 259 -12 c 0,0,1
EndSplineSet
Validated: 1
EndChar

StartChar: uni025C
Encoding: 604 604 459
Width: 466
GlyphClass: 2
Flags: W
AnchorPoint: "Anchor-4" 228 -22 basechar 0
AnchorPoint: "Anchor-0" 226 514 basechar 0
LayerCount: 2
Fore
SplineSet
213 -12 m 0,0,1
 164 -12 164 -12 122.5 -0.5 c 128,-1,2
 81 11 81 11 35 40 c 1,3,-1
 82 115 l 1,4,5
 112 95 112 95 140 86 c 128,-1,6
 168 77 168 77 195 77 c 0,7,8
 244 77 244 77 274.5 96 c 128,-1,9
 305 115 305 115 305 149 c 0,10,11
 305 214 305 214 205 214 c 2,12,-1
 129 214 l 1,13,-1
 129 292 l 1,14,-1
 190 292 l 2,15,16
 237 292 237 292 258.5 308 c 128,-1,17
 280 324 280 324 280 352 c 0,18,19
 280 381 280 381 258.5 397.5 c 128,-1,20
 237 414 237 414 202 414 c 0,21,22
 172 414 172 414 146 405.5 c 128,-1,23
 120 397 120 397 94 381 c 1,24,-1
 51 456 l 1,25,26
 124 503 124 503 213 503 c 0,27,28
 250 503 250 503 282.5 495 c 128,-1,29
 315 487 315 487 340 470.5 c 128,-1,30
 365 454 365 454 379.5 428 c 128,-1,31
 394 402 394 402 394 367 c 0,32,33
 394 335 394 335 374 305.5 c 128,-1,34
 354 276 354 276 313 262 c 1,35,-1
 313 258 l 1,36,37
 357 247 357 247 387.5 218 c 128,-1,38
 418 189 418 189 418 138 c 0,39,40
 418 102 418 102 401.5 74 c 128,-1,41
 385 46 385 46 356.5 27 c 128,-1,42
 328 8 328 8 291 -2 c 128,-1,43
 254 -12 254 -12 213 -12 c 0,0,1
EndSplineSet
Validated: 1
EndChar

StartChar: uni025E
Encoding: 606 606 460
Width: 556
GlyphClass: 2
Flags: W
AnchorPoint: "Anchor-4" 284 -22 basechar 0
AnchorPoint: "Anchor-0" 270 514 basechar 0
LayerCount: 2
Fore
SplineSet
264 -12 m 0,0,1
 220 -12 220 -12 181 -2 c 128,-1,2
 142 8 142 8 112.5 27 c 128,-1,3
 83 46 83 46 65.5 74 c 128,-1,4
 48 102 48 102 48 138 c 0,5,6
 48 189 48 189 78.5 218 c 128,-1,7
 109 247 109 247 154 258 c 1,8,-1
 154 262 l 1,9,10
 113 276 113 276 92.5 305.5 c 128,-1,11
 72 335 72 335 72 367 c 0,12,13
 72 402 72 402 87 428 c 128,-1,14
 102 454 102 454 128.5 470.5 c 128,-1,15
 155 487 155 487 189.5 495 c 128,-1,16
 224 503 224 503 263 503 c 0,17,18
 314 503 314 503 360 487 c 128,-1,19
 406 471 406 471 441 438.5 c 128,-1,20
 476 406 476 406 496.5 357.5 c 128,-1,21
 517 309 517 309 517 245 c 256,22,23
 517 181 517 181 497 133 c 128,-1,24
 477 85 477 85 443 52.5 c 128,-1,25
 409 20 409 20 362.5 4 c 128,-1,26
 316 -12 316 -12 264 -12 c 0,0,1
265 77 m 0,27,28
 328 77 328 77 363 118.5 c 128,-1,29
 398 160 398 160 398 245 c 256,30,31
 398 330 398 330 363 372 c 128,-1,32
 328 414 328 414 266 414 c 0,33,34
 231 414 231 414 208.5 397.5 c 128,-1,35
 186 381 186 381 186 352 c 0,36,37
 186 324 186 324 206.5 308 c 128,-1,38
 227 292 227 292 270 292 c 2,39,-1
 300 292 l 1,40,-1
 300 214 l 1,41,-1
 255 214 l 2,42,43
 162 214 162 214 162 149 c 0,44,45
 162 115 162 115 190 96 c 128,-1,46
 218 77 218 77 265 77 c 0,27,28
EndSplineSet
Validated: 1
EndChar

StartChar: uni025F
Encoding: 607 607 461
Width: 296
GlyphClass: 2
Flags: W
AnchorPoint: "Anchor-0" 148 514 basechar 0
LayerCount: 2
Fore
SplineSet
50 -206 m 0,0,1
 23 -206 23 -206 3.5 -202 c 128,-1,2
 -16 -198 -16 -198 -30 -193 c 1,3,-1
 -8 -107 l 1,4,5
 2 -110 2 -110 12.5 -112.5 c 128,-1,6
 23 -115 23 -115 34 -115 c 0,7,8
 67 -115 67 -115 78.5 -92.5 c 128,-1,9
 90 -70 90 -70 90 -27 c 2,10,-1
 90 227 l 1,11,-1
 10 227 l 1,12,-1
 10 281 l 1,13,-1
 90 286 l 1,14,-1
 90 491 l 1,15,-1
 206 491 l 1,16,-1
 206 286 l 1,17,-1
 282 286 l 1,18,-1
 282 227 l 1,19,-1
 206 227 l 1,20,-1
 206 -25 l 2,21,22
 206 -64 206 -64 198 -97 c 128,-1,23
 190 -130 190 -130 171.5 -154.5 c 128,-1,24
 153 -179 153 -179 123 -192.5 c 128,-1,25
 93 -206 93 -206 50 -206 c 0,0,1
EndSplineSet
Validated: 1
EndChar

StartChar: uni0260
Encoding: 608 608 462
Width: 571
GlyphClass: 2
Flags: W
AnchorPoint: "Anchor-0" 293 514 basechar 0
LayerCount: 2
Fore
SplineSet
260 -205 m 0,0,1
 217 -205 217 -205 169 -191 c 128,-1,2
 121 -177 121 -177 80 -151 c 1,3,-1
 120 -73 l 1,4,5
 155 -95 155 -95 191.5 -104.5 c 128,-1,6
 228 -114 228 -114 260 -114 c 0,7,8
 321 -114 321 -114 349 -86 c 128,-1,9
 377 -58 377 -58 379 -10 c 2,10,-1
 382 66 l 1,11,12
 356 41 356 41 321.5 25 c 128,-1,13
 287 9 287 9 248 9 c 0,14,15
 202 9 202 9 165 26.5 c 128,-1,16
 128 44 128 44 101.5 76 c 128,-1,17
 75 108 75 108 61 153 c 128,-1,18
 47 198 47 198 47 254 c 0,19,20
 47 311 47 311 65 357 c 128,-1,21
 83 403 83 403 112 435.5 c 128,-1,22
 141 468 141 468 179 485.5 c 128,-1,23
 217 503 217 503 257 503 c 0,24,25
 296 503 296 503 324.5 488.5 c 128,-1,26
 353 474 353 474 382 449 c 1,27,-1
 382 486 l 2,28,29
 382 517 382 517 390.5 545.5 c 128,-1,30
 399 574 399 574 417 595 c 128,-1,31
 435 616 435 616 464 628.5 c 128,-1,32
 493 641 493 641 534 641 c 0,33,34
 555 641 555 641 570 638.5 c 128,-1,35
 585 636 585 636 597 631 c 1,36,-1
 576 545 l 1,37,38
 563 550 563 550 550 550 c 0,39,40
 519 550 519 550 506.5 528 c 128,-1,41
 494 506 494 506 494 468 c 2,42,-1
 494 -10 l 2,43,44
 494 -104 494 -104 433.5 -154.5 c 128,-1,45
 373 -205 373 -205 260 -205 c 0,0,1
277 103 m 0,46,47
 306 103 306 103 330 116.5 c 128,-1,48
 354 130 354 130 379 159 c 1,49,-1
 379 367 l 1,50,51
 354 390 354 390 329 399 c 128,-1,52
 304 408 304 408 279 408 c 0,53,54
 255 408 255 408 234.5 397.5 c 128,-1,55
 214 387 214 387 198 367 c 128,-1,56
 182 347 182 347 173 318.5 c 128,-1,57
 164 290 164 290 164 255 c 0,58,59
 164 183 164 183 193.5 143 c 128,-1,60
 223 103 223 103 277 103 c 0,46,47
EndSplineSet
Validated: 1
Substitution2: "'smcp' Lowercase to Small Capitals lookup 20 subtable" uni0193.sc
Substitution2: "'aalt' Access All Alternates lookup 0 subtable" uni0193.sc
EndChar

StartChar: uni0261
Encoding: 609 609 463
Width: 520
GlyphClass: 2
Flags: W
LayerCount: 2
Fore
SplineSet
244 -217 m 0,0,1
 200 -217 200 -217 162.5 -209 c 128,-1,2
 125 -201 125 -201 98 -185 c 128,-1,3
 71 -169 71 -169 55.5 -145 c 128,-1,4
 40 -121 40 -121 40 -89 c 0,5,6
 40 -58 40 -58 58 -31.5 c 128,-1,7
 76 -5 76 -5 110 16 c 1,8,-1
 110 20 l 1,9,10
 91 32 91 32 78.5 52 c 128,-1,11
 66 72 66 72 66 102 c 0,12,13
 66 131 66 131 82.5 154.5 c 128,-1,14
 99 178 99 178 120 193 c 1,15,-1
 120 197 l 1,16,17
 95 216 95 216 75.5 249.5 c 128,-1,18
 56 283 56 283 56 327 c 0,19,20
 56 369 56 369 72 402 c 128,-1,21
 88 435 88 435 114.5 457.5 c 128,-1,22
 141 480 141 480 176 491.5 c 128,-1,23
 211 503 211 503 250 503 c 0,24,25
 270 503 270 503 288.5 499.5 c 128,-1,26
 307 496 307 496 322 491 c 1,27,-1
 498 491 l 1,28,-1
 498 406 l 1,29,-1
 408 406 l 1,30,31
 420 392 420 392 428 370.5 c 128,-1,32
 436 349 436 349 436 323 c 0,33,34
 436 282 436 282 421.5 251 c 128,-1,35
 407 220 407 220 382 199 c 128,-1,36
 357 178 357 178 323 167 c 128,-1,37
 289 156 289 156 250 156 c 0,38,39
 234 156 234 156 217 159 c 128,-1,40
 200 162 200 162 183 169 c 1,41,42
 172 159 172 159 165.5 149 c 128,-1,43
 159 139 159 139 159 122 c 0,44,45
 159 101 159 101 176.5 89 c 128,-1,46
 194 77 194 77 239 77 c 2,47,-1
 326 77 l 2,48,49
 415 77 415 77 460.5 48.5 c 128,-1,50
 506 20 506 20 506 -44 c 0,51,52
 506 -80 506 -80 487.5 -112 c 128,-1,53
 469 -144 469 -144 435 -167 c 128,-1,54
 401 -190 401 -190 352.5 -203.5 c 128,-1,55
 304 -217 304 -217 244 -217 c 0,0,1
250 228 m 0,56,57
 285 228 285 228 310 253.5 c 128,-1,58
 335 279 335 279 335 327 c 0,59,60
 335 373 335 373 310.5 398.5 c 128,-1,61
 286 424 286 424 250 424 c 256,62,63
 214 424 214 424 189 399 c 128,-1,64
 164 374 164 374 164 327 c 0,65,66
 164 279 164 279 189 253.5 c 128,-1,67
 214 228 214 228 250 228 c 0,56,57
262 -142 m 0,68,69
 322 -142 322 -142 358.5 -118.5 c 128,-1,70
 395 -95 395 -95 395 -63 c 0,71,72
 395 -34 395 -34 372.5 -24 c 128,-1,73
 350 -14 350 -14 308 -14 c 2,74,-1
 241 -14 l 2,75,76
 201 -14 201 -14 174 -7 c 1,77,78
 136 -36 136 -36 136 -72 c 0,79,80
 136 -105 136 -105 169.5 -123.5 c 128,-1,81
 203 -142 203 -142 262 -142 c 0,68,69
EndSplineSet
Validated: 1
EndChar

StartChar: uni0262
Encoding: 610 610 464
Width: 507
GlyphClass: 2
Flags: W
AnchorPoint: "Anchor-4" 313 -22 basechar 0
AnchorPoint: "Anchor-1" 314 514 basechar 0
LayerCount: 2
Fore
SplineSet
284 -12 m 0,0,1
 235 -12 235 -12 191 4 c 128,-1,2
 147 20 147 20 113.5 52.5 c 128,-1,3
 80 85 80 85 60.5 133 c 128,-1,4
 41 181 41 181 41 245 c 0,5,6
 41 306 41 306 61 354 c 128,-1,7
 81 402 81 402 115 435 c 128,-1,8
 149 468 149 468 193.5 485.5 c 128,-1,9
 238 503 238 503 288 503 c 0,10,11
 347 503 347 503 385 485 c 128,-1,12
 423 467 423 467 452 443 c 1,13,-1
 398 373 l 1,14,15
 376 390 376 390 354 402 c 128,-1,16
 332 414 332 414 295 414 c 0,17,18
 267 414 267 414 242 403.5 c 128,-1,19
 217 393 217 393 198 371.5 c 128,-1,20
 179 350 179 350 168 318.5 c 128,-1,21
 157 287 157 287 157 245 c 0,22,23
 157 165 157 165 194.5 121 c 128,-1,24
 232 77 232 77 293 77 c 0,25,26
 314 77 314 77 332 83 c 128,-1,27
 350 89 350 89 362 99 c 1,28,-1
 362 201 l 1,29,-1
 267 201 l 1,30,-1
 267 280 l 1,31,-1
 462 280 l 1,32,-1
 462 51 l 1,33,34
 433 25 433 25 387 6.5 c 128,-1,35
 341 -12 341 -12 284 -12 c 0,0,1
EndSplineSet
Validated: 1
EndChar

StartChar: uni0263
Encoding: 611 611 465
Width: 495
GlyphClass: 2
Flags: W
AnchorPoint: "Anchor-4" 249 -22 basechar 0
AnchorPoint: "Anchor-0" 249 514 basechar 0
LayerCount: 2
Fore
SplineSet
250 -217 m 256,0,1
 188 -217 188 -217 153 -181.5 c 128,-1,2
 118 -146 118 -146 118 -87 c 0,3,4
 118 -50 118 -50 133 -15.5 c 128,-1,5
 148 19 148 19 175 69 c 1,6,-1
 12 491 l 1,7,-1
 129 491 l 1,8,-1
 207 258 l 2,9,10
 217 226 217 226 227.5 198.5 c 128,-1,11
 238 171 238 171 248 138 c 1,12,-1
 252 138 l 1,13,14
 263 171 263 171 273 198.5 c 128,-1,15
 283 226 283 226 294 258 c 2,16,-1
 372 491 l 1,17,-1
 483 491 l 1,18,-1
 324 71 l 1,19,20
 352 20 352 20 367.5 -15 c 128,-1,21
 383 -50 383 -50 383 -87 c 0,22,23
 383 -146 383 -146 347.5 -181.5 c 128,-1,24
 312 -217 312 -217 250 -217 c 256,0,1
250 -142 m 0,25,26
 268 -142 268 -142 277.5 -129 c 128,-1,27
 287 -116 287 -116 287 -95 c 0,28,29
 287 -49 287 -49 252 18 c 1,30,-1
 247 18 l 1,31,32
 231 -15 231 -15 222.5 -43.5 c 128,-1,33
 214 -72 214 -72 214 -95 c 0,34,35
 214 -116 214 -116 223.5 -129 c 128,-1,36
 233 -142 233 -142 250 -142 c 0,25,26
EndSplineSet
Validated: 1
EndChar

StartChar: uni0264
Encoding: 612 612 466
Width: 541
Flags: W
LayerCount: 2
Fore
SplineSet
270 -12 m 256,0,1
 182 -12 182 -12 133.5 33 c 128,-1,2
 85 78 85 78 85 163 c 0,3,4
 85 212 85 212 115 261.5 c 128,-1,5
 145 311 145 311 192 356 c 1,6,7
 147 409 147 409 97 409 c 0,8,9
 69 409 69 409 50 395 c 1,10,-1
 16 479 l 1,11,12
 33 490 33 490 59.5 496.5 c 128,-1,13
 86 503 86 503 112 503 c 0,14,15
 153 503 153 503 194 482 c 128,-1,16
 235 461 235 461 270 420 c 1,17,18
 305 461 305 461 346 482 c 128,-1,19
 387 503 387 503 428 503 c 0,20,21
 455 503 455 503 481.5 496.5 c 128,-1,22
 508 490 508 490 525 479 c 1,23,-1
 491 395 l 1,24,25
 472 409 472 409 444 409 c 0,26,27
 393 409 393 409 349 356 c 1,28,29
 395 311 395 311 425.5 261.5 c 128,-1,30
 456 212 456 212 456 163 c 0,31,32
 456 78 456 78 407 33 c 128,-1,33
 358 -12 358 -12 270 -12 c 256,0,1
270 82 m 256,34,35
 308 82 308 82 327.5 106 c 128,-1,36
 347 130 347 130 347 166 c 0,37,38
 347 201 347 201 325 236.5 c 128,-1,39
 303 272 303 272 270 303 c 1,40,41
 238 272 238 272 216 236.5 c 128,-1,42
 194 201 194 201 194 166 c 0,43,44
 194 130 194 130 213 106 c 128,-1,45
 232 82 232 82 270 82 c 256,34,35
EndSplineSet
Validated: 1
EndChar

StartChar: uni0265
Encoding: 613 613 467
Width: 560
GlyphClass: 2
Flags: W
AnchorPoint: "Anchor-4" 297 -22 basechar 0
AnchorPoint: "Anchor-0" 279 514 basechar 0
LayerCount: 2
Fore
SplineSet
371 -194 m 1,0,-1
 371 -32 l 1,1,-1
 377 68 l 1,2,3
 345 33 345 33 307.5 10.5 c 128,-1,4
 270 -12 270 -12 219 -12 c 0,5,6
 140 -12 140 -12 104 38.5 c 128,-1,7
 68 89 68 89 68 183 c 2,8,-1
 68 491 l 1,9,-1
 183 491 l 1,10,-1
 183 198 l 2,11,12
 183 137 183 137 201 112 c 128,-1,13
 219 87 219 87 259 87 c 0,14,15
 291 87 291 87 316.5 102.5 c 128,-1,16
 342 118 342 118 371 155 c 1,17,-1
 371 491 l 1,18,-1
 486 491 l 1,19,-1
 486 -194 l 1,20,-1
 371 -194 l 1,0,-1
EndSplineSet
Validated: 1
EndChar

StartChar: uni0266
Encoding: 614 614 468
Width: 558
GlyphClass: 2
Flags: W
AnchorPoint: "Anchor-4" 290 -22 basechar 0
LayerCount: 2
Fore
SplineSet
73 0 m 1,0,-1
 73 518 l 2,1,2
 73 560 73 560 83.5 596.5 c 128,-1,3
 94 633 94 633 117 660 c 128,-1,4
 140 687 140 687 175 702.5 c 128,-1,5
 210 718 210 718 260 718 c 0,6,7
 287 718 287 718 310.5 713 c 128,-1,8
 334 708 334 708 351 701 c 1,9,-1
 328 615 l 1,10,11
 301 627 301 627 275 627 c 0,12,13
 232 627 232 627 211 600.5 c 128,-1,14
 190 574 190 574 187 520 c 2,15,-1
 184 417 l 1,16,17
 215 446 215 446 252.5 468.5 c 128,-1,18
 290 491 290 491 341 491 c 0,19,20
 420 491 420 491 456 440.5 c 128,-1,21
 492 390 492 390 492 296 c 2,22,-1
 492 0 l 1,23,-1
 377 0 l 1,24,-1
 377 281 l 2,25,26
 377 342 377 342 359 367 c 128,-1,27
 341 392 341 392 300 392 c 0,28,29
 268 392 268 392 243.5 376.5 c 128,-1,30
 219 361 219 361 188 331 c 1,31,-1
 188 0 l 1,32,-1
 73 0 l 1,0,-1
EndSplineSet
Validated: 1
EndChar

StartChar: uni0267
Encoding: 615 615 469
Width: 558
Flags: W
LayerCount: 2
Fore
SplineSet
336 -185 m 0,0,1
 310 -185 310 -185 290.5 -181 c 128,-1,2
 271 -177 271 -177 257 -172 c 1,3,-1
 278 -86 l 1,4,5
 288 -89 288 -89 298.5 -91 c 128,-1,6
 309 -93 309 -93 320 -93 c 0,7,8
 353 -93 353 -93 365 -71 c 128,-1,9
 377 -49 377 -49 377 -6 c 2,10,-1
 377 281 l 2,11,12
 377 342 377 342 359 367 c 128,-1,13
 341 392 341 392 300 392 c 0,14,15
 268 392 268 392 243.5 376.5 c 128,-1,16
 219 361 219 361 188 331 c 1,17,-1
 188 0 l 1,18,-1
 73 0 l 1,19,-1
 73 518 l 2,20,21
 73 560 73 560 83.5 596.5 c 128,-1,22
 94 633 94 633 117 660 c 128,-1,23
 140 687 140 687 175 702.5 c 128,-1,24
 210 718 210 718 260 718 c 0,25,26
 287 718 287 718 310.5 713 c 128,-1,27
 334 708 334 708 351 701 c 1,28,-1
 328 615 l 1,29,30
 301 627 301 627 275 627 c 0,31,32
 232 627 232 627 211 600.5 c 128,-1,33
 190 574 190 574 187 520 c 2,34,-1
 184 417 l 1,35,36
 215 446 215 446 252.5 468.5 c 128,-1,37
 290 491 290 491 341 491 c 0,38,39
 420 491 420 491 456 440.5 c 128,-1,40
 492 390 492 390 492 296 c 2,41,-1
 492 -4 l 2,42,43
 492 -43 492 -43 484 -76 c 128,-1,44
 476 -109 476 -109 458 -133.5 c 128,-1,45
 440 -158 440 -158 410 -171.5 c 128,-1,46
 380 -185 380 -185 336 -185 c 0,0,1
EndSplineSet
Validated: 1
EndChar

StartChar: uni029C
Encoding: 668 668 470
Width: 572
Flags: W
LayerCount: 2
Fore
SplineSet
74 0 m 1,0,-1
 74 491 l 1,1,-1
 189 491 l 1,2,-1
 189 303 l 1,3,-1
 385 303 l 1,4,-1
 385 491 l 1,5,-1
 500 491 l 1,6,-1
 500 0 l 1,7,-1
 385 0 l 1,8,-1
 385 202 l 1,9,-1
 189 202 l 1,10,-1
 189 0 l 1,11,-1
 74 0 l 1,0,-1
EndSplineSet
Validated: 1
EndChar

StartChar: uni0268
Encoding: 616 616 471
Width: 296
Flags: W
LayerCount: 2
Fore
SplineSet
10 227 m 1,0,-1
 10 281 l 1,1,-1
 90 286 l 1,2,-1
 90 491 l 1,3,-1
 205 491 l 1,4,-1
 205 286 l 1,5,-1
 282 286 l 1,6,-1
 282 227 l 1,7,-1
 205 227 l 1,8,-1
 205 0 l 1,9,-1
 90 0 l 1,10,-1
 90 227 l 1,11,-1
 10 227 l 1,0,-1
148 577 m 256,12,13
 117 577 117 577 97 595 c 128,-1,14
 77 613 77 613 77 642 c 256,15,16
 77 671 77 671 97 689.5 c 128,-1,17
 117 708 117 708 148 708 c 256,18,19
 179 708 179 708 199 689.5 c 128,-1,20
 219 671 219 671 219 642 c 256,21,22
 219 613 219 613 199 595 c 128,-1,23
 179 577 179 577 148 577 c 256,12,13
EndSplineSet
Validated: 1
EndChar

StartChar: uni026A
Encoding: 618 618 472
Width: 369
GlyphClass: 2
Flags: W
AnchorPoint: "Anchor-8" 164 0 basechar 0
AnchorPoint: "Anchor-4" 185 -22 basechar 0
AnchorPoint: "Anchor-0" 185 514 basechar 0
LayerCount: 2
Fore
SplineSet
49 0 m 1,0,-1
 49 92 l 1,1,-1
 127 92 l 1,2,-1
 127 400 l 1,3,-1
 49 400 l 1,4,-1
 49 491 l 1,5,-1
 320 491 l 1,6,-1
 320 400 l 1,7,-1
 242 400 l 1,8,-1
 242 92 l 1,9,-1
 320 92 l 1,10,-1
 320 0 l 1,11,-1
 49 0 l 1,0,-1
EndSplineSet
Validated: 1
EndChar

StartChar: uni029D
Encoding: 669 669 473
Width: 323
Flags: W
LayerCount: 2
Fore
SplineSet
274 -265 m 1,0,1
 242 -197 242 -197 206 -147 c 1,2,3
 184 -175 184 -175 150.5 -190.5 c 128,-1,4
 117 -206 117 -206 72 -206 c 0,5,6
 39 -206 39 -206 13.5 -196 c 128,-1,7
 -12 -186 -12 -186 -30 -168 c 128,-1,8
 -48 -150 -48 -150 -57.5 -126.5 c 128,-1,9
 -67 -103 -67 -103 -67 -76 c 0,10,11
 -67 -24 -67 -24 -31.5 8 c 128,-1,12
 4 40 4 40 69 40 c 0,13,14
 98 40 98 40 134 26 c 1,15,-1
 134 491 l 1,16,-1
 250 491 l 1,17,-1
 250 -5 l 2,18,19
 250 -33 250 -33 246 -53 c 1,20,21
 278 -85 278 -85 307.5 -128 c 128,-1,22
 337 -171 337 -171 362 -225 c 1,23,-1
 274 -265 l 1,0,1
69 -117 m 0,24,25
 96 -117 96 -117 110.5 -102 c 128,-1,26
 125 -87 125 -87 130 -64 c 1,27,28
 96 -38 96 -38 68 -38 c 0,29,30
 45 -38 45 -38 33.5 -48.5 c 128,-1,31
 22 -59 22 -59 22 -75 c 0,32,33
 22 -92 22 -92 34.5 -104.5 c 128,-1,34
 47 -117 47 -117 69 -117 c 0,24,25
192 577 m 0,35,36
 162 577 162 577 141.5 595 c 128,-1,37
 121 613 121 613 121 642 c 256,38,39
 121 671 121 671 141.5 689.5 c 128,-1,40
 162 708 162 708 192 708 c 0,41,42
 223 708 223 708 243.5 689.5 c 128,-1,43
 264 671 264 671 264 642 c 256,44,45
 264 613 264 613 243.5 595 c 128,-1,46
 223 577 223 577 192 577 c 0,35,36
EndSplineSet
Validated: 1
EndChar

StartChar: uni026C
Encoding: 620 620 474
Width: 340
Flags: W
LayerCount: 2
Fore
SplineSet
129 305 m 2,0,1
 57 305 57 305 24.5 332.5 c 128,-1,2
 -8 360 -8 360 -8 401 c 0,3,4
 -8 439 -8 439 17.5 464.5 c 128,-1,5
 43 490 43 490 84 490 c 0,6,7
 117 490 117 490 138 472 c 1,8,-1
 138 706 l 1,9,-1
 253 706 l 1,10,-1
 253 364 l 1,11,-1
 330 364 l 1,12,-1
 330 305 l 1,13,-1
 253 305 l 1,14,-1
 253 120 l 2,15,16
 253 99 253 99 261 90.5 c 128,-1,17
 269 82 269 82 278 82 c 0,18,19
 282 82 282 82 285.5 82 c 128,-1,20
 289 82 289 82 296 84 c 1,21,-1
 311 -2 l 1,22,23
 288 -12 288 -12 250 -12 c 0,24,25
 188 -12 188 -12 163 25 c 128,-1,26
 138 62 138 62 138 126 c 2,27,-1
 138 305 l 1,28,-1
 129 305 l 2,0,1
117 364 m 2,29,-1
 138 364 l 1,30,-1
 138 368 l 2,31,32
 138 378 138 378 136 389 c 128,-1,33
 134 400 134 400 128.5 409.5 c 128,-1,34
 123 419 123 419 113.5 425.5 c 128,-1,35
 104 432 104 432 90 432 c 0,36,37
 73 432 73 432 65.5 423 c 128,-1,38
 58 414 58 414 58 401 c 0,39,40
 58 386 58 386 72 375 c 128,-1,41
 86 364 86 364 117 364 c 2,29,-1
EndSplineSet
Validated: 1
EndChar

StartChar: uni026D
Encoding: 621 621 475
Width: 271
Flags: W
LayerCount: 2
Fore
SplineSet
219 -185 m 0,0,1
 178 -185 178 -185 150 -172 c 128,-1,2
 122 -159 122 -159 105 -136 c 128,-1,3
 88 -113 88 -113 80.5 -81.5 c 128,-1,4
 73 -50 73 -50 73 -12 c 2,5,-1
 73 706 l 1,6,-1
 188 706 l 1,7,-1
 188 -14 l 2,8,9
 188 -53 188 -53 198.5 -73 c 128,-1,10
 209 -93 209 -93 235 -93 c 0,11,12
 244 -93 244 -93 251.5 -91 c 128,-1,13
 259 -89 259 -89 267 -86 c 1,14,-1
 288 -172 l 1,15,16
 276 -177 276 -177 259 -181 c 128,-1,17
 242 -185 242 -185 219 -185 c 0,0,1
EndSplineSet
Validated: 1
EndChar

StartChar: uni026E
Encoding: 622 622 476
Width: 609
Flags: W
LayerCount: 2
Fore
SplineSet
372 -206 m 0,0,1
 300 -206 300 -206 251.5 -182.5 c 128,-1,2
 203 -159 203 -159 170 -127 c 1,3,-1
 224 -55 l 1,4,5
 250 -78 250 -78 282 -95 c 128,-1,6
 314 -112 314 -112 359 -112 c 0,7,8
 408 -112 408 -112 440.5 -78.5 c 128,-1,9
 473 -45 473 -45 473 14 c 0,10,11
 473 68 473 68 442.5 97.5 c 128,-1,12
 412 127 412 127 358 127 c 0,13,14
 338 127 338 127 326.5 123.5 c 128,-1,15
 315 120 315 120 298 113 c 1,16,-1
 257 171 l 1,17,-1
 428 400 l 1,18,-1
 188 400 l 1,19,-1
 188 0 l 1,20,-1
 73 0 l 1,21,-1
 73 706 l 1,22,-1
 188 706 l 1,23,-1
 188 491 l 1,24,-1
 567 491 l 1,25,-1
 567 430 l 1,26,-1
 398 206 l 1,27,28
 443 207 443 207 478.5 193 c 128,-1,29
 514 179 514 179 538.5 154 c 128,-1,30
 563 129 563 129 576 94 c 128,-1,31
 589 59 589 59 589 18 c 0,32,33
 589 -36 589 -36 571.5 -78 c 128,-1,34
 554 -120 554 -120 524 -148.5 c 128,-1,35
 494 -177 494 -177 454.5 -191.5 c 128,-1,36
 415 -206 415 -206 372 -206 c 0,0,1
EndSplineSet
Validated: 33
EndChar

StartChar: uni029F
Encoding: 671 671 477
Width: 422
GlyphClass: 2
Flags: W
AnchorPoint: "Anchor-4" 252 -22 basechar 0
AnchorPoint: "Anchor-1" 136 563 basechar 0
LayerCount: 2
Fore
SplineSet
73 0 m 1,0,-1
 73 491 l 1,1,-1
 188 491 l 1,2,-1
 188 92 l 1,3,-1
 396 92 l 1,4,-1
 396 0 l 1,5,-1
 73 0 l 1,0,-1
EndSplineSet
Validated: 1
EndChar

StartChar: uni026F
Encoding: 623 623 478
Width: 843
GlyphClass: 2
Flags: W
AnchorPoint: "Anchor-4" 432 -22 basechar 0
AnchorPoint: "Anchor-0" 429 514 basechar 0
LayerCount: 2
Fore
SplineSet
222 -12 m 0,0,1
 144 -12 144 -12 107 38.5 c 128,-1,2
 70 89 70 89 70 183 c 2,3,-1
 70 491 l 1,4,-1
 185 491 l 1,5,-1
 185 198 l 2,6,7
 185 137 185 137 203.5 112 c 128,-1,8
 222 87 222 87 261 87 c 0,9,10
 307 87 307 87 364 148 c 1,11,-1
 364 491 l 1,12,-1
 479 491 l 1,13,-1
 479 198 l 2,14,15
 479 137 479 137 497.5 112 c 128,-1,16
 516 87 516 87 554 87 c 0,17,18
 600 87 600 87 657 148 c 1,19,-1
 657 491 l 1,20,-1
 772 491 l 1,21,-1
 772 0 l 1,22,-1
 678 0 l 1,23,-1
 669 67 l 1,24,-1
 666 67 l 1,25,26
 634 35 634 35 598 11.5 c 128,-1,27
 562 -12 562 -12 515 -12 c 0,28,29
 461 -12 461 -12 429 11 c 128,-1,30
 397 34 397 34 380 76 c 1,31,32
 345 38 345 38 307 13 c 128,-1,33
 269 -12 269 -12 222 -12 c 0,0,1
EndSplineSet
Validated: 1
EndChar

StartChar: uni0270
Encoding: 624 624 479
Width: 843
GlyphClass: 2
Flags: W
AnchorPoint: "Anchor-4" 432 -22 basechar 0
AnchorPoint: "Anchor-0" 429 514 basechar 0
LayerCount: 2
Fore
SplineSet
657 -194 m 1,0,-1
 657 -33 l 1,1,-1
 663 66 l 1,2,3
 628 29 628 29 593 8.5 c 128,-1,4
 558 -12 558 -12 515 -12 c 0,5,6
 461 -12 461 -12 429 11 c 128,-1,7
 397 34 397 34 380 76 c 1,8,9
 345 38 345 38 307 13 c 128,-1,10
 269 -12 269 -12 222 -12 c 0,11,12
 144 -12 144 -12 107 38.5 c 128,-1,13
 70 89 70 89 70 183 c 2,14,-1
 70 491 l 1,15,-1
 185 491 l 1,16,-1
 185 198 l 2,17,18
 185 137 185 137 203.5 112 c 128,-1,19
 222 87 222 87 261 87 c 0,20,21
 307 87 307 87 364 148 c 1,22,-1
 364 491 l 1,23,-1
 479 491 l 1,24,-1
 479 198 l 2,25,26
 479 137 479 137 497.5 112 c 128,-1,27
 516 87 516 87 554 87 c 0,28,29
 600 87 600 87 657 148 c 1,30,-1
 657 491 l 1,31,-1
 772 491 l 1,32,-1
 772 -194 l 1,33,-1
 657 -194 l 1,0,-1
EndSplineSet
Validated: 1
EndChar

StartChar: uni0271
Encoding: 625 625 480
Width: 843
GlyphClass: 2
Flags: W
AnchorPoint: "Anchor-0" 429 514 basechar 0
LayerCount: 2
Fore
SplineSet
626 -185 m 0,0,1
 602 -185 602 -185 584 -181 c 128,-1,2
 566 -177 566 -177 552 -172 c 1,3,-1
 574 -86 l 1,4,5
 591 -93 591 -93 610 -93 c 0,6,7
 640 -93 640 -93 650 -71 c 128,-1,8
 660 -49 660 -49 660 -6 c 2,9,-1
 660 293 l 2,10,11
 660 354 660 354 641.5 379 c 128,-1,12
 623 404 623 404 585 404 c 0,13,14
 539 404 539 404 482 343 c 1,15,-1
 482 0 l 1,16,-1
 367 0 l 1,17,-1
 367 293 l 2,18,19
 367 354 367 354 348.5 379 c 128,-1,20
 330 404 330 404 291 404 c 0,21,22
 245 404 245 404 188 343 c 1,23,-1
 188 0 l 1,24,-1
 73 0 l 1,25,-1
 73 491 l 1,26,-1
 168 491 l 1,27,-1
 176 424 l 1,28,-1
 180 424 l 1,29,30
 211 457 211 457 247.5 480 c 128,-1,31
 284 503 284 503 330 503 c 0,32,33
 384 503 384 503 416.5 480 c 128,-1,34
 449 457 449 457 466 415 c 1,35,36
 501 453 501 453 539 478 c 128,-1,37
 577 503 577 503 624 503 c 0,38,39
 702 503 702 503 739 452.5 c 128,-1,40
 776 402 776 402 776 308 c 2,41,-1
 776 -4 l 2,42,43
 776 -43 776 -43 768.5 -76 c 128,-1,44
 761 -109 761 -109 743 -133.5 c 128,-1,45
 725 -158 725 -158 696.5 -171.5 c 128,-1,46
 668 -185 668 -185 626 -185 c 0,0,1
EndSplineSet
Validated: 1
EndChar

StartChar: uni0272
Encoding: 626 626 481
Width: 560
GlyphClass: 2
Flags: W
AnchorPoint: "Anchor-0" 300 514 basechar 0
LayerCount: 2
Fore
SplineSet
43 -185 m 0,0,1
 20 -185 20 -185 2.5 -181 c 128,-1,2
 -15 -177 -15 -177 -27 -172 c 1,3,-1
 -6 -86 l 1,4,5
 11 -93 11 -93 27 -93 c 0,6,7
 53 -93 53 -93 63 -73 c 128,-1,8
 73 -53 73 -53 73 -14 c 2,9,-1
 73 491 l 1,10,-1
 169 491 l 1,11,-1
 176 425 l 1,12,-1
 180 425 l 1,13,14
 213 457 213 457 251.5 480 c 128,-1,15
 290 503 290 503 341 503 c 0,16,17
 420 503 420 503 456 452.5 c 128,-1,18
 492 402 492 402 492 308 c 2,19,-1
 492 0 l 1,20,-1
 377 0 l 1,21,-1
 377 293 l 2,22,23
 377 354 377 354 359 379 c 128,-1,24
 341 404 341 404 300 404 c 0,25,26
 268 404 268 404 243.5 388.5 c 128,-1,27
 219 373 219 373 188 343 c 1,28,-1
 188 -12 l 2,29,30
 188 -50 188 -50 180.5 -81.5 c 128,-1,31
 173 -113 173 -113 156 -136 c 128,-1,32
 139 -159 139 -159 111.5 -172 c 128,-1,33
 84 -185 84 -185 43 -185 c 0,0,1
EndSplineSet
Validated: 1
EndChar

StartChar: uni0273
Encoding: 627 627 482
Width: 560
GlyphClass: 2
Flags: W
AnchorPoint: "Anchor-0" 300 514 basechar 0
LayerCount: 2
Fore
SplineSet
522 -185 m 0,0,1
 481 -185 481 -185 453.5 -172 c 128,-1,2
 426 -159 426 -159 409 -136 c 128,-1,3
 392 -113 392 -113 384.5 -81.5 c 128,-1,4
 377 -50 377 -50 377 -12 c 2,5,-1
 377 293 l 2,6,7
 377 354 377 354 359 379 c 128,-1,8
 341 404 341 404 300 404 c 0,9,10
 268 404 268 404 243.5 388.5 c 128,-1,11
 219 373 219 373 188 343 c 1,12,-1
 188 0 l 1,13,-1
 73 0 l 1,14,-1
 73 491 l 1,15,-1
 168 491 l 1,16,-1
 176 425 l 1,17,-1
 180 425 l 1,18,19
 213 457 213 457 251.5 480 c 128,-1,20
 290 503 290 503 341 503 c 0,21,22
 420 503 420 503 456 452.5 c 128,-1,23
 492 402 492 402 492 308 c 2,24,-1
 492 -14 l 2,25,26
 492 -53 492 -53 502 -73 c 128,-1,27
 512 -93 512 -93 538 -93 c 0,28,29
 547 -93 547 -93 555 -91 c 128,-1,30
 563 -89 563 -89 571 -86 c 1,31,-1
 592 -172 l 1,32,33
 580 -177 580 -177 562.5 -181 c 128,-1,34
 545 -185 545 -185 522 -185 c 0,0,1
EndSplineSet
Validated: 1
EndChar

StartChar: uni0274
Encoding: 628 628 483
Width: 552
GlyphClass: 2
Flags: W
AnchorPoint: "Anchor-0" 280 514 basechar 0
LayerCount: 2
Fore
SplineSet
73 0 m 1,0,-1
 73 491 l 1,1,-1
 180 491 l 1,2,-1
 324 250 l 2,3,4
 336 227 336 227 351 197.5 c 128,-1,5
 366 168 366 168 377 146 c 1,6,-1
 381 146 l 1,7,8
 377 192 377 192 374 238 c 128,-1,9
 371 284 371 284 371 322 c 2,10,-1
 371 491 l 1,11,-1
 479 491 l 1,12,-1
 479 0 l 1,13,-1
 372 0 l 1,14,-1
 228 242 l 2,15,16
 215 263 215 263 200.5 293 c 128,-1,17
 186 323 186 323 175 346 c 1,18,-1
 171 346 l 1,19,20
 175 298 175 298 178 252.5 c 128,-1,21
 181 207 181 207 181 169 c 2,22,-1
 181 0 l 1,23,-1
 73 0 l 1,0,-1
EndSplineSet
Validated: 1
EndChar

StartChar: uni0275
Encoding: 629 629 484
Width: 549
GlyphClass: 2
Flags: W
AnchorPoint: "Anchor-0" 274 514 basechar 0
LayerCount: 2
Fore
SplineSet
274 -12 m 256,0,1
 227 -12 227 -12 185 4.5 c 128,-1,2
 143 21 143 21 111 53 c 128,-1,3
 79 85 79 85 60 133.5 c 128,-1,4
 41 182 41 182 41 245 c 0,5,6
 41 309 41 309 60 357 c 128,-1,7
 79 405 79 405 111 437.5 c 128,-1,8
 143 470 143 470 185 486.5 c 128,-1,9
 227 503 227 503 274 503 c 256,10,11
 321 503 321 503 363.5 486.5 c 128,-1,12
 406 470 406 470 438 437.5 c 128,-1,13
 470 405 470 405 489 357 c 128,-1,14
 508 309 508 309 508 245 c 0,15,16
 508 182 508 182 489 133.5 c 128,-1,17
 470 85 470 85 438 53 c 128,-1,18
 406 21 406 21 363.5 4.5 c 128,-1,19
 321 -12 321 -12 274 -12 c 256,0,1
274 416 m 256,20,21
 225 416 225 416 193.5 384 c 128,-1,22
 162 352 162 352 152 292 c 1,23,-1
 397 292 l 1,24,25
 387 352 387 352 355 384 c 128,-1,26
 323 416 323 416 274 416 c 256,20,21
274 76 m 256,27,28
 326 76 326 76 359 111.5 c 128,-1,29
 392 147 392 147 399 214 c 1,30,-1
 150 214 l 1,31,32
 157 147 157 147 189.5 111.5 c 128,-1,33
 222 76 222 76 274 76 c 256,27,28
EndSplineSet
Validated: 1
EndChar

StartChar: uni0276
Encoding: 630 630 485
Width: 713
GlyphClass: 2
Flags: W
AnchorPoint: "Anchor-4" 434 -22 basechar 0
AnchorPoint: "Anchor-0" 419 514 basechar 0
LayerCount: 2
Fore
SplineSet
289 -12 m 0,0,1
 240 -12 240 -12 195 4 c 128,-1,2
 150 20 150 20 116 52 c 128,-1,3
 82 84 82 84 61.5 132 c 128,-1,4
 41 180 41 180 41 245 c 0,5,6
 41 309 41 309 61.5 357.5 c 128,-1,7
 82 406 82 406 116 438 c 128,-1,8
 150 470 150 470 195 486.5 c 128,-1,9
 240 503 240 503 289 503 c 0,10,11
 316 503 316 503 340 501 c 128,-1,12
 364 499 364 499 398 491 c 1,13,-1
 680 491 l 1,14,-1
 680 406 l 1,15,-1
 463 406 l 1,16,-1
 463 292 l 1,17,-1
 646 292 l 1,18,-1
 646 214 l 1,19,-1
 463 214 l 1,20,-1
 463 84 l 1,21,-1
 690 84 l 1,22,-1
 690 0 l 1,23,-1
 398 0 l 1,24,25
 366 -8 366 -8 341 -10 c 128,-1,26
 316 -12 316 -12 289 -12 c 0,0,1
295 80 m 0,27,28
 307 80 307 80 321 82.5 c 128,-1,29
 335 85 335 85 349 89 c 1,30,-1
 349 401 l 1,31,32
 335 405 335 405 321 407.5 c 128,-1,33
 307 410 307 410 295 410 c 0,34,35
 268 410 268 410 243.5 400 c 128,-1,36
 219 390 219 390 200.5 370 c 128,-1,37
 182 350 182 350 171 319 c 128,-1,38
 160 288 160 288 160 245 c 0,39,40
 160 201 160 201 171 169.5 c 128,-1,41
 182 138 182 138 200.5 118 c 128,-1,42
 219 98 219 98 243.5 89 c 128,-1,43
 268 80 268 80 295 80 c 0,27,28
EndSplineSet
Validated: 1
EndChar

StartChar: uni0278
Encoding: 632 632 486
Width: 710
Flags: W
LayerCount: 2
Fore
SplineSet
159 246 m 256,0,1
 159 168 159 168 199.5 125 c 128,-1,2
 240 82 240 82 302 78 c 1,3,-1
 302 413 l 1,4,5
 240 410 240 410 199.5 367 c 128,-1,6
 159 324 159 324 159 246 c 256,0,1
550 246 m 256,7,8
 550 324 550 324 511 367 c 128,-1,9
 472 410 472 410 408 413 c 1,10,-1
 408 78 l 1,11,12
 470 82 470 82 510 125 c 128,-1,13
 550 168 550 168 550 246 c 256,7,8
302 -194 m 1,14,-1
 302 -9 l 1,15,16
 251 -7 251 -7 204 11 c 128,-1,17
 157 29 157 29 120.5 61 c 128,-1,18
 84 93 84 93 62.5 139.5 c 128,-1,19
 41 186 41 186 41 246 c 256,20,21
 41 306 41 306 62.5 352 c 128,-1,22
 84 398 84 398 120.5 430.5 c 128,-1,23
 157 463 157 463 204 480.5 c 128,-1,24
 251 498 251 498 302 500 c 1,25,-1
 302 706 l 1,26,-1
 408 706 l 1,27,-1
 408 500 l 1,28,29
 459 498 459 498 506.5 480.5 c 128,-1,30
 554 463 554 463 590 430.5 c 128,-1,31
 626 398 626 398 647.5 352 c 128,-1,32
 669 306 669 306 669 246 c 256,33,34
 669 186 669 186 647 139.5 c 128,-1,35
 625 93 625 93 589 61 c 128,-1,36
 553 29 553 29 506 11 c 128,-1,37
 459 -7 459 -7 408 -9 c 1,38,-1
 408 -194 l 1,39,-1
 302 -194 l 1,14,-1
EndSplineSet
Validated: 1
EndChar

StartChar: uni0279
Encoding: 633 633 487
Width: 373
GlyphClass: 2
Flags: W
AnchorPoint: "Anchor-4" 56 -22 basechar 0
AnchorPoint: "Anchor-0" 197 514 basechar 0
LayerCount: 2
Fore
SplineSet
54 -12 m 0,0,1
 19 -12 19 -12 -2 -2 c 1,2,-1
 18 98 l 1,3,4
 32 94 32 94 42.5 92 c 128,-1,5
 53 90 53 90 69 90 c 0,6,7
 98 90 98 90 130 112.5 c 128,-1,8
 162 135 162 135 185 192 c 1,9,-1
 185 491 l 1,10,-1
 300 491 l 1,11,-1
 300 0 l 1,12,-1
 206 0 l 1,13,-1
 197 88 l 1,14,-1
 194 88 l 1,15,16
 168 40 168 40 131 14 c 128,-1,17
 94 -12 94 -12 54 -12 c 0,0,1
EndSplineSet
Validated: 1
EndChar

StartChar: uni027A
Encoding: 634 634 488
Width: 373
GlyphClass: 2
Flags: W
AnchorPoint: "Anchor-4" 56 -22 basechar 0
AnchorPoint: "Anchor-0" 157 514 basechar 0
LayerCount: 2
Fore
SplineSet
54 -12 m 0,0,1
 19 -12 19 -12 -2 -2 c 1,2,-1
 18 98 l 1,3,4
 32 94 32 94 42.5 92 c 128,-1,5
 53 90 53 90 69 90 c 0,6,7
 98 90 98 90 130 112.5 c 128,-1,8
 162 135 162 135 185 192 c 1,9,-1
 185 706 l 1,10,-1
 300 706 l 1,11,-1
 300 0 l 1,12,-1
 206 0 l 1,13,-1
 197 88 l 1,14,-1
 194 88 l 1,15,16
 168 40 168 40 131 14 c 128,-1,17
 94 -12 94 -12 54 -12 c 0,0,1
EndSplineSet
Validated: 1
EndChar

StartChar: uni027B
Encoding: 635 635 489
Width: 373
GlyphClass: 2
Flags: W
AnchorPoint: "Anchor-4" 56 -22 basechar 0
AnchorPoint: "Anchor-0" 197 514 basechar 0
LayerCount: 2
Fore
SplineSet
330 -185 m 0,0,1
 293 -185 293 -185 267.5 -173.5 c 128,-1,2
 242 -162 242 -162 226.5 -141 c 128,-1,3
 211 -120 211 -120 204 -91 c 128,-1,4
 197 -62 197 -62 197 -28 c 2,5,-1
 197 88 l 1,6,-1
 194 88 l 1,7,8
 168 40 168 40 131 14 c 128,-1,9
 94 -12 94 -12 54 -12 c 0,10,11
 19 -12 19 -12 -2 -2 c 1,12,-1
 18 98 l 1,13,14
 32 94 32 94 42.5 92 c 128,-1,15
 53 90 53 90 69 90 c 0,16,17
 98 90 98 90 130 112.5 c 128,-1,18
 162 135 162 135 185 192 c 1,19,-1
 185 491 l 1,20,-1
 300 491 l 1,21,-1
 300 -14 l 2,22,23
 300 -53 300 -53 310 -73 c 128,-1,24
 320 -93 320 -93 346 -93 c 0,25,26
 355 -93 355 -93 363 -91 c 128,-1,27
 371 -89 371 -89 379 -86 c 1,28,-1
 400 -172 l 1,29,30
 388 -177 388 -177 370.5 -181 c 128,-1,31
 353 -185 353 -185 330 -185 c 0,0,1
EndSplineSet
Validated: 1
EndChar

StartChar: uni027D
Encoding: 637 637 490
Width: 373
GlyphClass: 2
Flags: W
AnchorPoint: "Anchor-4" 130 -22 basechar 0
AnchorPoint: "Anchor-0" 232 514 basechar 0
LayerCount: 2
Fore
SplineSet
219 -185 m 0,0,1
 178 -185 178 -185 150 -172 c 128,-1,2
 122 -159 122 -159 105 -136 c 128,-1,3
 88 -113 88 -113 80.5 -81.5 c 128,-1,4
 73 -50 73 -50 73 -12 c 2,5,-1
 73 491 l 1,6,-1
 168 491 l 1,7,-1
 176 404 l 1,8,-1
 180 404 l 1,9,10
 206 452 206 452 243 477.5 c 128,-1,11
 280 503 280 503 319 503 c 0,12,13
 354 503 354 503 375 493 c 1,14,-1
 355 393 l 1,15,16
 342 397 342 397 331 399 c 128,-1,17
 320 401 320 401 304 401 c 0,18,19
 275 401 275 401 243 378.5 c 128,-1,20
 211 356 211 356 188 300 c 1,21,-1
 188 -14 l 2,22,23
 188 -53 188 -53 198.5 -73 c 128,-1,24
 209 -93 209 -93 235 -93 c 0,25,26
 244 -93 244 -93 251.5 -91 c 128,-1,27
 259 -89 259 -89 267 -86 c 1,28,-1
 288 -172 l 1,29,30
 276 -177 276 -177 259 -181 c 128,-1,31
 242 -185 242 -185 219 -185 c 0,0,1
EndSplineSet
Validated: 1
EndChar

StartChar: uni027E
Encoding: 638 638 491
Width: 357
Flags: W
LayerCount: 2
Fore
SplineSet
73 0 m 1,0,-1
 73 309 l 2,1,2
 73 351 73 351 84.5 387 c 128,-1,3
 96 423 96 423 119.5 448.5 c 128,-1,4
 143 474 143 474 178 488.5 c 128,-1,5
 213 503 213 503 260 503 c 0,6,7
 323 503 323 503 359 489 c 1,8,-1
 340 392 l 1,9,10
 321 399 321 399 308 401 c 128,-1,11
 295 403 295 403 275 403 c 0,12,13
 259 403 259 403 243.5 396 c 128,-1,14
 228 389 228 389 215.5 375 c 128,-1,15
 203 361 203 361 195.5 338 c 128,-1,16
 188 315 188 315 188 284 c 2,17,-1
 188 0 l 1,18,-1
 73 0 l 1,0,-1
EndSplineSet
Validated: 1
EndChar

StartChar: uni0280
Encoding: 640 640 492
Width: 514
GlyphClass: 2
Flags: W
AnchorPoint: "Anchor-4" 283 -22 basechar 0
AnchorPoint: "Anchor-1" 262 514 basechar 0
LayerCount: 2
Fore
SplineSet
73 0 m 1,0,-1
 73 491 l 1,1,-1
 262 491 l 2,2,3
 303 491 303 491 338.5 483 c 128,-1,4
 374 475 374 475 400 457 c 128,-1,5
 426 439 426 439 441 409.5 c 128,-1,6
 456 380 456 380 456 337 c 0,7,8
 456 282 456 282 430 247.5 c 128,-1,9
 404 213 404 213 364 196 c 1,10,-1
 491 0 l 1,11,-1
 363 0 l 1,12,-1
 261 176 l 1,13,-1
 188 176 l 1,14,-1
 188 0 l 1,15,-1
 73 0 l 1,0,-1
188 257 m 1,16,-1
 246 257 l 2,17,18
 293 257 293 257 317.5 277.5 c 128,-1,19
 342 298 342 298 342 334 c 0,20,21
 342 371 342 371 317.5 388 c 128,-1,22
 293 405 293 405 246 405 c 2,23,-1
 188 405 l 1,24,-1
 188 257 l 1,16,-1
EndSplineSet
Validated: 1
EndChar

StartChar: uni0281
Encoding: 641 641 493
Width: 514
Flags: W
LayerCount: 2
Fore
SplineSet
252 0 m 2,0,1
 211 0 211 0 175.5 8 c 128,-1,2
 140 16 140 16 114 34.5 c 128,-1,3
 88 53 88 53 73 82.5 c 128,-1,4
 58 112 58 112 58 155 c 0,5,6
 58 210 58 210 84.5 244.5 c 128,-1,7
 111 279 111 279 150 296 c 1,8,-1
 23 491 l 1,9,-1
 151 491 l 1,10,-1
 254 316 l 1,11,-1
 326 316 l 1,12,-1
 326 491 l 1,13,-1
 441 491 l 1,14,-1
 441 0 l 1,15,-1
 252 0 l 2,0,1
268 86 m 2,16,-1
 326 86 l 1,17,-1
 326 236 l 1,18,-1
 268 236 l 2,19,20
 221 236 221 236 196.5 215 c 128,-1,21
 172 194 172 194 172 158 c 0,22,23
 172 121 172 121 196.5 103.5 c 128,-1,24
 221 86 221 86 268 86 c 2,16,-1
EndSplineSet
Validated: 1
EndChar

StartChar: uni0282
Encoding: 642 642 494
Width: 431
GlyphClass: 2
Flags: W
AnchorPoint: "Anchor-0" 228 514 basechar 0
LayerCount: 2
Fore
SplineSet
210 -12 m 0,0,1
 166 -12 166 -12 126 0 c 1,2,-1
 126 -6 l 2,3,4
 126 -49 126 -49 138.5 -72.5 c 128,-1,5
 151 -96 151 -96 184 -96 c 0,6,7
 195 -96 195 -96 205.5 -93.5 c 128,-1,8
 216 -91 216 -91 226 -88 c 1,9,-1
 248 -172 l 1,10,11
 234 -177 234 -177 214.5 -181 c 128,-1,12
 195 -185 195 -185 168 -185 c 0,13,14
 128 -185 128 -185 100.5 -171.5 c 128,-1,15
 73 -158 73 -158 56 -133.5 c 128,-1,16
 39 -109 39 -109 31.5 -76 c 128,-1,17
 24 -43 24 -43 24 -4 c 2,18,-1
 24 50 l 1,19,-1
 78 123 l 1,20,21
 111 99 111 99 143.5 87 c 128,-1,22
 176 75 176 75 214 75 c 0,23,24
 254 75 254 75 273 91.5 c 128,-1,25
 292 108 292 108 292 134 c 0,26,27
 292 149 292 149 283 160.5 c 128,-1,28
 274 172 274 172 259 181 c 128,-1,29
 244 190 244 190 225 197.5 c 128,-1,30
 206 205 206 205 187 213 c 0,31,32
 163 222 163 222 138 234 c 128,-1,33
 113 246 113 246 93.5 263 c 128,-1,34
 74 280 74 280 61.5 302.5 c 128,-1,35
 49 325 49 325 49 356 c 0,36,37
 49 421 49 421 97 462 c 128,-1,38
 145 503 145 503 228 503 c 0,39,40
 279 503 279 503 320 485 c 128,-1,41
 361 467 361 467 391 444 c 1,42,-1
 338 374 l 1,43,44
 312 393 312 393 285.5 404.5 c 128,-1,45
 259 416 259 416 230 416 c 0,46,47
 193 416 193 416 175.5 400.5 c 128,-1,48
 158 385 158 385 158 362 c 0,49,50
 158 347 158 347 166.5 336.5 c 128,-1,51
 175 326 175 326 189 318 c 128,-1,52
 203 310 203 310 221.5 303 c 128,-1,53
 240 296 240 296 260 289 c 0,54,55
 285 280 285 280 310 268.5 c 128,-1,56
 335 257 335 257 355.5 240 c 128,-1,57
 376 223 376 223 388.5 198.5 c 128,-1,58
 401 174 401 174 401 140 c 0,59,60
 401 108 401 108 388.5 80.5 c 128,-1,61
 376 53 376 53 352 32.5 c 128,-1,62
 328 12 328 12 292 0 c 128,-1,63
 256 -12 256 -12 210 -12 c 0,0,1
EndSplineSet
Validated: 1
EndChar

StartChar: uni0283
Encoding: 643 643 495
Width: 263
Flags: W
LayerCount: 2
Fore
SplineSet
34 -206 m 0,0,1
 7 -206 7 -206 -12.5 -202 c 128,-1,2
 -32 -198 -32 -198 -46 -193 c 1,3,-1
 -24 -107 l 1,4,5
 -14 -110 -14 -110 -3.5 -112.5 c 128,-1,6
 7 -115 7 -115 18 -115 c 0,7,8
 51 -115 51 -115 62.5 -92.5 c 128,-1,9
 74 -70 74 -70 74 -27 c 2,10,-1
 74 538 l 2,11,12
 74 577 74 577 82.5 610 c 128,-1,13
 91 643 91 643 110.5 667.5 c 128,-1,14
 130 692 130 692 161.5 705.5 c 128,-1,15
 193 719 193 719 240 719 c 0,16,17
 263 719 263 719 280 715 c 128,-1,18
 297 711 297 711 310 706 c 1,19,-1
 288 620 l 1,20,21
 280 623 280 623 272.5 625.5 c 128,-1,22
 265 628 265 628 256 628 c 0,23,24
 218 628 218 628 204 605.5 c 128,-1,25
 190 583 190 583 190 540 c 2,26,-1
 190 -25 l 2,27,28
 190 -64 190 -64 182 -97 c 128,-1,29
 174 -130 174 -130 155.5 -154.5 c 128,-1,30
 137 -179 137 -179 107 -192.5 c 128,-1,31
 77 -206 77 -206 34 -206 c 0,0,1
EndSplineSet
Validated: 1
EndChar

StartChar: uni0284
Encoding: 644 644 496
Width: 296
Flags: W
LayerCount: 2
Fore
SplineSet
50 -206 m 0,0,1
 23 -206 23 -206 3.5 -202 c 128,-1,2
 -16 -198 -16 -198 -30 -193 c 1,3,-1
 -8 -107 l 1,4,5
 2 -110 2 -110 12.5 -112.5 c 128,-1,6
 23 -115 23 -115 34 -115 c 0,7,8
 67 -115 67 -115 78.5 -92.5 c 128,-1,9
 90 -70 90 -70 90 -27 c 2,10,-1
 90 227 l 1,11,-1
 10 227 l 1,12,-1
 10 281 l 1,13,-1
 90 286 l 1,14,-1
 90 538 l 2,15,16
 90 577 90 577 98.5 610 c 128,-1,17
 107 643 107 643 126.5 667.5 c 128,-1,18
 146 692 146 692 177.5 705.5 c 128,-1,19
 209 719 209 719 256 719 c 0,20,21
 279 719 279 719 296 715 c 128,-1,22
 313 711 313 711 326 706 c 1,23,-1
 304 620 l 1,24,25
 296 623 296 623 288.5 625.5 c 128,-1,26
 281 628 281 628 272 628 c 0,27,28
 234 628 234 628 220 605.5 c 128,-1,29
 206 583 206 583 206 540 c 2,30,-1
 206 286 l 1,31,-1
 282 286 l 1,32,-1
 282 227 l 1,33,-1
 206 227 l 1,34,-1
 206 -25 l 2,35,36
 206 -64 206 -64 198 -97 c 128,-1,37
 190 -130 190 -130 171.5 -154.5 c 128,-1,38
 153 -179 153 -179 123 -192.5 c 128,-1,39
 93 -206 93 -206 50 -206 c 0,0,1
EndSplineSet
Validated: 1
EndChar

StartChar: uni0288
Encoding: 648 648 497
Width: 361
GlyphClass: 2
Flags: W
AnchorPoint: "Anchor-0" 155 650 basechar 0
LayerCount: 2
Fore
SplineSet
246 -186 m 0,0,1
 203 -186 203 -186 173.5 -173 c 128,-1,2
 144 -160 144 -160 125.5 -136.5 c 128,-1,3
 107 -113 107 -113 98.5 -80.5 c 128,-1,4
 90 -48 90 -48 90 -8 c 2,5,-1
 90 400 l 1,6,-1
 20 400 l 1,7,-1
 20 486 l 1,8,-1
 96 491 l 1,9,-1
 110 625 l 1,10,-1
 206 625 l 1,11,-1
 206 491 l 1,12,-1
 331 491 l 1,13,-1
 331 400 l 1,14,-1
 206 400 l 1,15,-1
 206 -8 l 2,16,17
 206 -94 206 -94 275 -94 c 0,18,19
 288 -94 288 -94 301.5 -90.5 c 128,-1,20
 315 -87 315 -87 326 -83 c 1,21,-1
 346 -168 l 1,22,23
 326 -174 326 -174 300.5 -180 c 128,-1,24
 275 -186 275 -186 246 -186 c 0,0,1
EndSplineSet
Validated: 1
EndChar

StartChar: uni0289
Encoding: 649 649 498
Width: 596
GlyphClass: 2
Flags: W
AnchorPoint: "Anchor-0" 302 514 basechar 0
LayerCount: 2
Fore
SplineSet
10 265 m 1,0,-1
 10 319 l 1,1,-1
 91 324 l 1,2,-1
 91 491 l 1,3,-1
 206 491 l 1,4,-1
 206 324 l 1,5,-1
 391 324 l 1,6,-1
 391 491 l 1,7,-1
 506 491 l 1,8,-1
 506 324 l 1,9,-1
 582 324 l 1,10,-1
 582 265 l 1,11,-1
 506 265 l 1,12,-1
 506 0 l 1,13,-1
 412 0 l 1,14,-1
 403 72 l 1,15,-1
 400 72 l 1,16,17
 368 34 368 34 330.5 11 c 128,-1,18
 293 -12 293 -12 242 -12 c 0,19,20
 163 -12 163 -12 127 38.5 c 128,-1,21
 91 89 91 89 91 183 c 2,22,-1
 91 265 l 1,23,-1
 10 265 l 1,0,-1
282 87 m 0,24,25
 314 87 314 87 338.5 103 c 128,-1,26
 363 119 363 119 391 155 c 1,27,-1
 391 265 l 1,28,-1
 206 265 l 1,29,-1
 206 198 l 2,30,31
 206 137 206 137 224 112 c 128,-1,32
 242 87 242 87 282 87 c 0,24,25
EndSplineSet
Validated: 1
EndChar

StartChar: uni028A
Encoding: 650 650 499
Width: 550
GlyphClass: 2
Flags: W
AnchorPoint: "Anchor-4" 275 -22 basechar 0
AnchorPoint: "Anchor-0" 275 514 basechar 0
LayerCount: 2
Fore
SplineSet
275 -12 m 256,0,1
 220 -12 220 -12 177 6.5 c 128,-1,2
 134 25 134 25 104.5 55.5 c 128,-1,3
 75 86 75 86 59.5 125 c 128,-1,4
 44 164 44 164 44 205 c 0,5,6
 44 238 44 238 51 267 c 128,-1,7
 58 296 58 296 69 320 c 128,-1,8
 80 344 80 344 94 363.5 c 128,-1,9
 108 383 108 383 123 397 c 1,10,-1
 123 400 l 1,11,-1
 33 400 l 1,12,-1
 33 491 l 1,13,-1
 233 491 l 1,14,-1
 233 417 l 1,15,16
 199 382 199 382 179.5 338.5 c 128,-1,17
 160 295 160 295 160 230 c 0,18,19
 160 200 160 200 167 173 c 128,-1,20
 174 146 174 146 188.5 125.5 c 128,-1,21
 203 105 203 105 224.5 93.5 c 128,-1,22
 246 82 246 82 275 82 c 256,23,24
 304 82 304 82 325.5 93.5 c 128,-1,25
 347 105 347 105 361.5 125.5 c 128,-1,26
 376 146 376 146 383 173 c 128,-1,27
 390 200 390 200 390 230 c 0,28,29
 390 295 390 295 370.5 338.5 c 128,-1,30
 351 382 351 382 317 417 c 1,31,-1
 317 491 l 1,32,-1
 516 491 l 1,33,-1
 516 400 l 1,34,-1
 427 400 l 1,35,-1
 427 397 l 1,36,37
 442 383 442 383 456 363.5 c 128,-1,38
 470 344 470 344 481 320 c 128,-1,39
 492 296 492 296 499 267 c 128,-1,40
 506 238 506 238 506 205 c 0,41,42
 506 164 506 164 490.5 125 c 128,-1,43
 475 86 475 86 445.5 55.5 c 128,-1,44
 416 25 416 25 373 6.5 c 128,-1,45
 330 -12 330 -12 275 -12 c 256,0,1
EndSplineSet
Validated: 1
EndChar

StartChar: uni028B
Encoding: 651 651 500
Width: 541
GlyphClass: 2
Flags: W
AnchorPoint: "Anchor-4" 283 -22 basechar 0
AnchorPoint: "Anchor-0" 276 514 basechar 0
LayerCount: 2
Fore
SplineSet
268 -12 m 0,0,1
 178 -12 178 -12 123 42.5 c 128,-1,2
 68 97 68 97 68 210 c 2,3,-1
 68 491 l 1,4,-1
 183 491 l 1,5,-1
 183 214 l 2,6,7
 183 144 183 144 208 113 c 128,-1,8
 233 82 233 82 273 82 c 0,9,10
 298 82 298 82 318 96 c 128,-1,11
 338 110 338 110 351.5 135.5 c 128,-1,12
 365 161 365 161 372 197 c 128,-1,13
 379 233 379 233 379 276 c 0,14,15
 379 413 379 413 314 413 c 0,16,17
 308 413 308 413 302.5 411.5 c 128,-1,18
 297 410 297 410 290 408 c 1,19,-1
 275 495 l 1,20,21
 289 500 289 500 303.5 501.5 c 128,-1,22
 318 503 318 503 338 503 c 0,23,24
 373 503 373 503 402.5 490.5 c 128,-1,25
 432 478 432 478 453 452.5 c 128,-1,26
 474 427 474 427 486 387 c 128,-1,27
 498 347 498 347 498 293 c 0,28,29
 498 226 498 226 483.5 170 c 128,-1,30
 469 114 469 114 440 73.5 c 128,-1,31
 411 33 411 33 368 10.5 c 128,-1,32
 325 -12 325 -12 268 -12 c 0,0,1
EndSplineSet
Validated: 1
EndChar

StartChar: uni028C
Encoding: 652 652 501
Width: 495
GlyphClass: 2
Flags: W
AnchorPoint: "Anchor-4" 249 -22 basechar 0
AnchorPoint: "Anchor-0" 249 514 basechar 0
LayerCount: 2
Fore
SplineSet
12 0 m 1,0,-1
 179 491 l 1,1,-1
 312 491 l 1,2,-1
 483 0 l 1,3,-1
 366 0 l 1,4,-1
 288 255 l 2,5,6
 278 291 278 291 267.5 328.5 c 128,-1,7
 257 366 257 366 247 403 c 1,8,-1
 243 403 l 1,9,10
 232 366 232 366 222 328.5 c 128,-1,11
 212 291 212 291 201 255 c 2,12,-1
 123 0 l 1,13,-1
 12 0 l 1,0,-1
EndSplineSet
Validated: 1
EndChar

StartChar: uni028D
Encoding: 653 653 502
Width: 748
GlyphClass: 2
Flags: W
AnchorPoint: "Anchor-4" 374 -22 basechar 0
AnchorPoint: "Anchor-0" 374 514 basechar 0
LayerCount: 2
Fore
SplineSet
24 0 m 1,0,-1
 148 491 l 1,1,-1
 285 491 l 1,2,-1
 343 262 l 2,3,4
 351 227 351 227 357.5 192.5 c 128,-1,5
 364 158 364 158 372 119 c 1,6,-1
 376 119 l 1,7,8
 384 158 384 158 390.5 193 c 128,-1,9
 397 228 397 228 406 263 c 2,10,-1
 461 491 l 1,11,-1
 594 491 l 1,12,-1
 724 0 l 1,13,-1
 608 0 l 1,14,-1
 548 255 l 2,15,16
 541 290 541 290 535.5 325 c 128,-1,17
 530 360 530 360 523 396 c 1,18,-1
 519 396 l 1,19,20
 511 360 511 360 504 325 c 128,-1,21
 497 290 497 290 488 255 c 2,22,-1
 423 0 l 1,23,-1
 319 0 l 1,24,-1
 253 255 l 2,25,26
 244 290 244 290 236.5 325 c 128,-1,27
 229 360 229 360 221 396 c 1,28,-1
 217 396 l 1,29,30
 209 360 209 360 203.5 325 c 128,-1,31
 198 290 198 290 190 255 c 2,32,-1
 132 0 l 1,33,-1
 24 0 l 1,0,-1
EndSplineSet
Validated: 1
EndChar

StartChar: uni028E
Encoding: 654 654 503
Width: 495
GlyphClass: 2
Flags: W
AnchorPoint: "Anchor-4" 251 -22 basechar 0
AnchorPoint: "Anchor-0" 255 514 basechar 0
LayerCount: 2
Fore
SplineSet
12 0 m 1,0,-1
 199 539 l 2,1,2
 214 581 214 581 232.5 614 c 128,-1,3
 251 647 251 647 274.5 670 c 128,-1,4
 298 693 298 693 328.5 705.5 c 128,-1,5
 359 718 359 718 399 718 c 0,6,7
 419 718 419 718 434 715.5 c 128,-1,8
 449 713 449 713 463 708 c 1,9,-1
 442 619 l 1,10,11
 434 621 434 621 424.5 623.5 c 128,-1,12
 415 626 415 626 406 626 c 0,13,14
 368 626 368 626 344.5 602.5 c 128,-1,15
 321 579 321 579 308 542 c 2,16,-1
 290 485 l 1,17,-1
 483 0 l 1,18,-1
 366 0 l 1,19,-1
 281 241 l 2,20,21
 270 273 270 273 259.5 309 c 128,-1,22
 249 345 249 345 238 380 c 1,23,-1
 234 380 l 1,24,25
 225 345 225 345 215.5 310 c 128,-1,26
 206 275 206 275 196 241 c 2,27,-1
 123 0 l 1,28,-1
 12 0 l 1,0,-1
EndSplineSet
Validated: 1
EndChar

StartChar: uni028F
Encoding: 655 655 504
Width: 441
GlyphClass: 2
Flags: W
AnchorPoint: "Anchor-4" 220 -22 basechar 0
AnchorPoint: "Anchor-0" 219 514 basechar 0
LayerCount: 2
Fore
SplineSet
164 0 m 1,0,-1
 164 157 l 1,1,-1
 -4 491 l 1,2,-1
 117 491 l 1,3,-1
 172 369 l 2,4,5
 183 339 183 339 195 311.5 c 128,-1,6
 207 284 207 284 220 254 c 1,7,-1
 224 254 l 1,8,9
 236 284 236 284 248 311.5 c 128,-1,10
 260 339 260 339 272 369 c 2,11,-1
 325 491 l 1,12,-1
 446 491 l 1,13,-1
 279 157 l 1,14,-1
 279 0 l 1,15,-1
 164 0 l 1,0,-1
EndSplineSet
Validated: 1
EndChar

StartChar: uni0290
Encoding: 656 656 505
Width: 443
GlyphClass: 2
Flags: W
AnchorPoint: "Anchor-0" 238 514 basechar 0
LayerCount: 2
Fore
SplineSet
438 -185 m 0,0,1
 398 -185 398 -185 370.5 -172 c 128,-1,2
 343 -159 343 -159 325.5 -137.5 c 128,-1,3
 308 -116 308 -116 300.5 -86.5 c 128,-1,4
 293 -57 293 -57 293 -24 c 2,5,-1
 293 0 l 1,6,-1
 34 0 l 1,7,-1
 34 62 l 1,8,-1
 266 400 l 1,9,-1
 60 400 l 1,10,-1
 60 491 l 1,11,-1
 410 491 l 1,12,-1
 410 430 l 1,13,-1
 179 92 l 1,14,-1
 408 92 l 1,15,-1
 408 -14 l 2,16,17
 408 -53 408 -53 418 -73 c 128,-1,18
 428 -93 428 -93 454 -93 c 0,19,20
 463 -93 463 -93 471 -91 c 128,-1,21
 479 -89 479 -89 487 -86 c 1,22,-1
 508 -172 l 1,23,24
 496 -177 496 -177 478.5 -181 c 128,-1,25
 461 -185 461 -185 438 -185 c 0,0,1
EndSplineSet
Validated: 1
EndChar

StartChar: uni0291
Encoding: 657 657 506
Width: 477
GlyphClass: 2
Flags: W
AnchorPoint: "Anchor-0" 238 514 basechar 0
LayerCount: 2
Fore
SplineSet
263 -81 m 1,0,-1
 203 -69 l 1,1,2
 207 -51 207 -51 211 -34 c 128,-1,3
 215 -17 215 -17 220 0 c 1,4,-1
 34 0 l 1,5,-1
 34 62 l 1,6,-1
 266 400 l 1,7,-1
 60 400 l 1,8,-1
 60 491 l 1,9,-1
 403 491 l 1,10,-1
 403 430 l 1,11,-1
 172 92 l 1,12,13
 192 90 192 90 211 89.5 c 128,-1,14
 230 89 230 89 250 88 c 1,15,16
 277 156 277 156 312.5 194.5 c 128,-1,17
 348 233 348 233 393 233 c 0,18,19
 439 233 439 233 465 207.5 c 128,-1,20
 491 182 491 182 491 132 c 0,21,22
 491 105 491 105 481 81 c 128,-1,23
 471 57 471 57 450.5 39 c 128,-1,24
 430 21 430 21 399 10.5 c 128,-1,25
 368 0 368 0 325 0 c 2,26,-1
 282 0 l 1,27,28
 277 -18 277 -18 272.5 -38 c 128,-1,29
 268 -58 268 -58 263 -81 c 1,0,-1
355 86 m 2,30,31
 390 86 390 86 407.5 101 c 128,-1,32
 425 116 425 116 425 135 c 0,33,34
 425 169 425 169 390 169 c 0,35,36
 371 169 371 169 351 149.5 c 128,-1,37
 331 130 331 130 312 86 c 1,38,-1
 355 86 l 2,30,31
EndSplineSet
Validated: 1
EndChar

StartChar: uni0292
Encoding: 658 658 507
Width: 443
GlyphClass: 2
Flags: W
AnchorPoint: "Anchor-0" 196 522 basechar 0
LayerCount: 2
Fore
SplineSet
206 -206 m 0,0,1
 134 -206 134 -206 85.5 -182.5 c 128,-1,2
 37 -159 37 -159 4 -127 c 1,3,-1
 58 -55 l 1,4,5
 84 -78 84 -78 116 -95 c 128,-1,6
 148 -112 148 -112 193 -112 c 0,7,8
 242 -112 242 -112 274.5 -78.5 c 128,-1,9
 307 -45 307 -45 307 14 c 0,10,11
 307 68 307 68 276.5 97.5 c 128,-1,12
 246 127 246 127 192 127 c 0,13,14
 172 127 172 127 160.5 123.5 c 128,-1,15
 149 120 149 120 132 113 c 1,16,-1
 91 171 l 1,17,-1
 262 400 l 1,18,-1
 41 400 l 1,19,-1
 41 491 l 1,20,-1
 401 491 l 1,21,-1
 401 430 l 1,22,-1
 232 206 l 1,23,24
 277 207 277 207 312.5 193 c 128,-1,25
 348 179 348 179 372.5 154 c 128,-1,26
 397 129 397 129 410 94 c 128,-1,27
 423 59 423 59 423 18 c 0,28,29
 423 -36 423 -36 405.5 -78 c 128,-1,30
 388 -120 388 -120 358 -148.5 c 128,-1,31
 328 -177 328 -177 288.5 -191.5 c 128,-1,32
 249 -206 249 -206 206 -206 c 0,0,1
EndSplineSet
Validated: 33
EndChar

StartChar: uni0294
Encoding: 660 660 508
Width: 433
Flags: W
LayerCount: 2
Fore
SplineSet
137 0 m 1,0,-1
 137 320 l 1,1,2
 180 347 180 347 210.5 370 c 128,-1,3
 241 393 241 393 260.5 416.5 c 128,-1,4
 280 440 280 440 289 464 c 128,-1,5
 298 488 298 488 298 516 c 0,6,7
 298 567 298 567 269.5 595.5 c 128,-1,8
 241 624 241 624 190 624 c 0,9,10
 145 624 145 624 112 604 c 128,-1,11
 79 584 79 584 54 556 c 1,12,-1
 -4 630 l 1,13,14
 29 665 29 665 79 691.5 c 128,-1,15
 129 718 129 718 201 718 c 0,16,17
 245 718 245 718 283.5 705.5 c 128,-1,18
 322 693 322 693 351 668 c 128,-1,19
 380 643 380 643 397 606 c 128,-1,20
 414 569 414 569 414 520 c 0,21,22
 414 478 414 478 402 444 c 128,-1,23
 390 410 390 410 368.5 381 c 128,-1,24
 347 352 347 352 317.5 326 c 128,-1,25
 288 300 288 300 252 274 c 1,26,-1
 252 0 l 1,27,-1
 137 0 l 1,0,-1
EndSplineSet
Validated: 1
EndChar

StartChar: uni0295
Encoding: 661 661 509
Width: 475
Flags: W
LayerCount: 2
Fore
SplineSet
198 0 m 1,0,-1
 198 274 l 1,1,2
 163 300 163 300 133 326 c 128,-1,3
 103 352 103 352 81.5 381 c 128,-1,4
 60 410 60 410 48 444 c 128,-1,5
 36 478 36 478 36 520 c 0,6,7
 36 569 36 569 54 606 c 128,-1,8
 72 643 72 643 102.5 668 c 128,-1,9
 133 693 133 693 173.5 705.5 c 128,-1,10
 214 718 214 718 260 718 c 0,11,12
 328 718 328 718 375.5 691.5 c 128,-1,13
 423 665 423 665 455 630 c 1,14,-1
 396 556 l 1,15,16
 373 584 373 584 343 604 c 128,-1,17
 313 624 313 624 271 624 c 0,18,19
 215 624 215 624 183.5 595.5 c 128,-1,20
 152 567 152 567 152 516 c 0,21,22
 152 488 152 488 161 464 c 128,-1,23
 170 440 170 440 189.5 416.5 c 128,-1,24
 209 393 209 393 240 370 c 128,-1,25
 271 347 271 347 314 320 c 1,26,-1
 314 0 l 1,27,-1
 198 0 l 1,0,-1
EndSplineSet
Validated: 1
EndChar

StartChar: uni02A1
Encoding: 673 673 510
Width: 459
Flags: W
LayerCount: 2
Fore
SplineSet
151 0 m 1,0,-1
 151 229 l 1,1,-1
 9 229 l 1,2,-1
 9 315 l 1,3,-1
 85 320 l 1,4,-1
 167 320 l 1,5,6
 245 374 245 374 279.5 420.5 c 128,-1,7
 314 467 314 467 314 516 c 0,8,9
 314 567 314 567 285 595.5 c 128,-1,10
 256 624 256 624 205 624 c 0,11,12
 160 624 160 624 127 604 c 128,-1,13
 94 584 94 584 70 556 c 1,14,-1
 11 630 l 1,15,16
 45 665 45 665 94.5 691.5 c 128,-1,17
 144 718 144 718 216 718 c 0,18,19
 260 718 260 718 299 705.5 c 128,-1,20
 338 693 338 693 367 668 c 128,-1,21
 396 643 396 643 413 606 c 128,-1,22
 430 569 430 569 430 520 c 0,23,24
 430 490 430 490 420.5 463 c 128,-1,25
 411 436 411 436 394 411.5 c 128,-1,26
 377 387 377 387 354 364 c 128,-1,27
 331 341 331 341 304 320 c 1,28,-1
 441 320 l 1,29,-1
 441 229 l 1,30,-1
 266 229 l 1,31,-1
 266 0 l 1,32,-1
 151 0 l 1,0,-1
EndSplineSet
Validated: 1
EndChar

StartChar: uni02A2
Encoding: 674 674 511
Width: 459
Flags: W
LayerCount: 2
Fore
SplineSet
193 0 m 1,0,-1
 193 229 l 1,1,-1
 18 229 l 1,2,-1
 18 320 l 1,3,-1
 154 320 l 1,4,5
 101 363 101 363 65 412 c 128,-1,6
 29 461 29 461 29 520 c 0,7,8
 29 569 29 569 47 606 c 128,-1,9
 65 643 65 643 95.5 668 c 128,-1,10
 126 693 126 693 166.5 705.5 c 128,-1,11
 207 718 207 718 253 718 c 0,12,13
 321 718 321 718 368.5 691.5 c 128,-1,14
 416 665 416 665 448 630 c 1,15,-1
 389 556 l 1,16,17
 366 584 366 584 336 604 c 128,-1,18
 306 624 306 624 264 624 c 0,19,20
 208 624 208 624 176.5 595.5 c 128,-1,21
 145 567 145 567 145 516 c 0,22,23
 145 467 145 467 179.5 420.5 c 128,-1,24
 214 374 214 374 292 320 c 1,25,-1
 374 320 l 1,26,-1
 450 315 l 1,27,-1
 450 229 l 1,28,-1
 308 229 l 1,29,-1
 308 0 l 1,30,-1
 193 0 l 1,0,-1
EndSplineSet
Validated: 1
EndChar

StartChar: uni01C2
Encoding: 450 450 512
Width: 309
Flags: W
LayerCount: 2
Fore
SplineSet
6 331 m 1,0,-1
 6 385 l 1,1,-1
 83 390 l 1,2,-1
 120 390 l 1,3,-1
 120 750 l 1,4,-1
 197 750 l 1,5,-1
 197 390 l 1,6,-1
 302 390 l 1,7,-1
 302 331 l 1,8,-1
 197 331 l 1,9,-1
 197 206 l 1,10,-1
 302 206 l 1,11,-1
 302 147 l 1,12,-1
 197 147 l 1,13,-1
 197 -250 l 1,14,-1
 120 -250 l 1,15,-1
 120 147 l 1,16,-1
 6 147 l 1,17,-1
 6 201 l 1,18,-1
 83 206 l 1,19,-1
 120 206 l 1,20,-1
 120 331 l 1,21,-1
 6 331 l 1,0,-1
EndSplineSet
Validated: 1
EndChar

StartChar: uni0298
Encoding: 664 664 513
Width: 541
Flags: W
LayerCount: 2
Fore
SplineSet
270 -12 m 256,0,1
 221 -12 221 -12 181.5 10 c 128,-1,2
 142 32 142 32 113.5 77.5 c 128,-1,3
 85 123 85 123 69.5 192.5 c 128,-1,4
 54 262 54 262 54 356 c 0,5,6
 54 446 54 446 69.5 514 c 128,-1,7
 85 582 85 582 113.5 627.5 c 128,-1,8
 142 673 142 673 181.5 695.5 c 128,-1,9
 221 718 221 718 270 718 c 256,10,11
 319 718 319 718 359 695 c 128,-1,12
 399 672 399 672 427.5 627 c 128,-1,13
 456 582 456 582 471.5 514 c 128,-1,14
 487 446 487 446 487 356 c 0,15,16
 487 262 487 262 471.5 192.5 c 128,-1,17
 456 123 456 123 427.5 77.5 c 128,-1,18
 399 32 399 32 359 10 c 128,-1,19
 319 -12 319 -12 270 -12 c 256,0,1
270 82 m 256,20,21
 292 82 292 82 312.5 96 c 128,-1,22
 333 110 333 110 348 142 c 128,-1,23
 363 174 363 174 372 226.5 c 128,-1,24
 381 279 381 279 381 356 c 0,25,26
 381 428 381 428 372 479 c 128,-1,27
 363 530 363 530 348 562.5 c 128,-1,28
 333 595 333 595 312.5 609.5 c 128,-1,29
 292 624 292 624 270 624 c 256,30,31
 248 624 248 624 228 609.5 c 128,-1,32
 208 595 208 595 193 562.5 c 128,-1,33
 178 530 178 530 169 479 c 128,-1,34
 160 428 160 428 160 356 c 0,35,36
 160 279 160 279 169 226.5 c 128,-1,37
 178 174 178 174 193 142 c 128,-1,38
 208 110 208 110 228 96 c 128,-1,39
 248 82 248 82 270 82 c 256,20,21
270 301 m 256,40,41
 247 301 247 301 231 317 c 128,-1,42
 215 333 215 333 215 356 c 0,43,44
 215 380 215 380 231 395.5 c 128,-1,45
 247 411 247 411 270 411 c 256,46,47
 293 411 293 411 309.5 395.5 c 128,-1,48
 326 380 326 380 326 356 c 0,49,50
 326 333 326 333 309.5 317 c 128,-1,51
 293 301 293 301 270 301 c 256,40,41
EndSplineSet
Validated: 1
EndChar

StartChar: f_f
Encoding: 64256 64256 514
Width: 618
GlyphClass: 3
Flags: W
LayerCount: 2
Fore
SplineSet
394 0 m 1,0,-1
 394 400 l 1,1,-1
 208 400 l 1,2,-1
 208 0 l 1,3,-1
 93 0 l 1,4,-1
 93 400 l 1,5,-1
 27 400 l 1,6,-1
 27 486 l 1,7,-1
 93 491 l 1,8,-1
 93 534 l 2,9,10
 93 572 93 572 103 604 c 128,-1,11
 113 636 113 636 133.5 659 c 128,-1,12
 154 682 154 682 186 695 c 128,-1,13
 218 708 218 708 263 708 c 0,14,15
 291 708 291 708 316 703 c 128,-1,16
 341 698 341 698 359 690 c 1,17,-1
 337 604 l 1,18,19
 323 611 323 611 309 614 c 128,-1,20
 295 617 295 617 275 617 c 0,21,22
 244 617 244 617 226 596.5 c 128,-1,23
 208 576 208 576 208 534 c 2,24,-1
 208 491 l 1,25,-1
 394 491 l 1,26,-1
 394 542 l 2,27,28
 394 580 394 580 403 612.5 c 128,-1,29
 412 645 412 645 431.5 668.5 c 128,-1,30
 451 692 451 692 481.5 705 c 128,-1,31
 512 718 512 718 556 718 c 0,32,33
 583 718 583 718 606 713 c 128,-1,34
 629 708 629 708 646 701 c 1,35,-1
 624 615 l 1,36,37
 598 627 598 627 571 627 c 0,38,39
 509 627 509 627 509 544 c 2,40,-1
 509 491 l 1,41,-1
 605 491 l 1,42,-1
 605 400 l 1,43,-1
 509 400 l 1,44,-1
 509 0 l 1,45,-1
 394 0 l 1,0,-1
EndSplineSet
Validated: 1
Ligature2: "'liga' Standard Ligatures lookup 47 subtable" f f
EndChar

StartChar: f_t
Encoding: 1114116 -1 517
Width: 642
GlyphClass: 3
Flags: W
LayerCount: 2
Fore
SplineSet
93 0 m 1,0,-1
 93 400 l 1,1,-1
 27 400 l 1,2,-1
 27 486 l 1,3,-1
 93 491 l 1,4,-1
 93 542 l 2,5,6
 93 580 93 580 102 612.5 c 128,-1,7
 111 645 111 645 131 668.5 c 128,-1,8
 151 692 151 692 181.5 705 c 128,-1,9
 212 718 212 718 256 718 c 0,10,11
 282 718 282 718 305.5 713 c 128,-1,12
 329 708 329 708 346 701 c 1,13,-1
 324 615 l 1,14,15
 297 627 297 627 270 627 c 0,16,17
 208 627 208 627 208 544 c 2,18,-1
 208 491 l 1,19,-1
 377 491 l 1,20,-1
 391 625 l 1,21,-1
 486 625 l 1,22,-1
 486 491 l 1,23,-1
 612 491 l 1,24,-1
 612 400 l 1,25,-1
 486 400 l 1,26,-1
 486 166 l 2,27,28
 486 80 486 80 556 80 c 0,29,30
 569 80 569 80 582.5 83 c 128,-1,31
 596 86 596 86 607 91 c 1,32,-1
 627 6 l 1,33,34
 607 -1 607 -1 581.5 -6.5 c 128,-1,35
 556 -12 556 -12 526 -12 c 0,36,37
 484 -12 484 -12 454.5 1 c 128,-1,38
 425 14 425 14 406.5 37.5 c 128,-1,39
 388 61 388 61 379.5 93.5 c 128,-1,40
 371 126 371 126 371 166 c 2,41,-1
 371 400 l 1,42,-1
 208 400 l 1,43,-1
 208 0 l 1,44,-1
 93 0 l 1,0,-1
EndSplineSet
Validated: 1
Ligature2: "'liga' Standard Ligatures lookup 47 subtable" f t
EndChar

StartChar: f_f_t
Encoding: 1114117 -1 518
Width: 942
GlyphClass: 3
Flags: W
LayerCount: 2
Fore
SplineSet
93 0 m 1,0,-1
 93 400 l 1,1,-1
 27 400 l 1,2,-1
 27 486 l 1,3,-1
 93 491 l 1,4,-1
 93 534 l 2,5,6
 93 572 93 572 103 604 c 128,-1,7
 113 636 113 636 133.5 659 c 128,-1,8
 154 682 154 682 186 695 c 128,-1,9
 218 708 218 708 263 708 c 0,10,11
 291 708 291 708 316 703 c 128,-1,12
 341 698 341 698 359 690 c 1,13,-1
 337 604 l 1,14,15
 323 611 323 611 309 614 c 128,-1,16
 295 617 295 617 275 617 c 0,17,18
 244 617 244 617 226 596.5 c 128,-1,19
 208 576 208 576 208 534 c 2,20,-1
 208 491 l 1,21,-1
 394 491 l 1,22,-1
 394 542 l 2,23,24
 394 580 394 580 403 612.5 c 128,-1,25
 412 645 412 645 431.5 668.5 c 128,-1,26
 451 692 451 692 481.5 705 c 128,-1,27
 512 718 512 718 556 718 c 0,28,29
 583 718 583 718 606 713 c 128,-1,30
 629 708 629 708 646 701 c 1,31,-1
 624 615 l 1,32,33
 598 627 598 627 571 627 c 0,34,35
 509 627 509 627 509 544 c 2,36,-1
 509 491 l 1,37,-1
 678 491 l 1,38,-1
 692 625 l 1,39,-1
 787 625 l 1,40,-1
 787 491 l 1,41,-1
 912 491 l 1,42,-1
 912 400 l 1,43,-1
 787 400 l 1,44,-1
 787 166 l 2,45,46
 787 80 787 80 857 80 c 0,47,48
 870 80 870 80 883.5 83 c 128,-1,49
 897 86 897 86 908 91 c 1,50,-1
 928 6 l 1,51,52
 908 -1 908 -1 882.5 -6.5 c 128,-1,53
 857 -12 857 -12 827 -12 c 0,54,55
 785 -12 785 -12 755.5 1 c 128,-1,56
 726 14 726 14 707.5 37.5 c 128,-1,57
 689 61 689 61 680.5 93.5 c 128,-1,58
 672 126 672 126 672 166 c 2,59,-1
 672 400 l 1,60,-1
 509 400 l 1,61,-1
 509 0 l 1,62,-1
 394 0 l 1,63,-1
 394 400 l 1,64,-1
 208 400 l 1,65,-1
 208 0 l 1,66,-1
 93 0 l 1,0,-1
EndSplineSet
Validated: 1
Ligature2: "'liga' Standard Ligatures lookup 47 subtable" f f t
EndChar

StartChar: I.a
Encoding: 1114118 -1 519
Width: 282
GlyphClass: 2
Flags: W
LayerCount: 2
Fore
SplineSet
83 0 m 1,0,-1
 83 654 l 1,1,-1
 199 654 l 1,2,-1
 199 0 l 1,3,-1
 83 0 l 1,0,-1
EndSplineSet
Validated: 1
EndChar

StartChar: Iogonek.a
Encoding: 1114129 -1 530
Width: 282
GlyphClass: 2
Flags: W
AnchorPoint: "Anchor-1" 149 676 basechar 0
LayerCount: 2
Fore
SplineSet
148 -218 m 0,0,1
 104 -218 104 -218 73.5 -195 c 128,-1,2
 43 -172 43 -172 43 -127 c 0,3,4
 43 -104 43 -104 49.5 -85 c 128,-1,5
 56 -66 56 -66 66.5 -50 c 128,-1,6
 77 -34 77 -34 89.5 -21.5 c 128,-1,7
 102 -9 102 -9 113 0 c 1,8,-1
 83 0 l 1,9,-1
 83 654 l 1,10,-1
 199 654 l 1,11,-1
 199 0 l 1,12,13
 129 -40 129 -40 129 -98 c 0,14,15
 129 -120 129 -120 143 -130 c 128,-1,16
 157 -140 157 -140 173 -140 c 0,17,18
 184 -140 184 -140 194 -136 c 128,-1,19
 204 -132 204 -132 212 -126 c 1,20,-1
 240 -186 l 1,21,22
 223 -200 223 -200 197 -209 c 128,-1,23
 171 -218 171 -218 148 -218 c 0,0,1
EndSplineSet
EndChar

StartChar: uni014A.a
Encoding: 1114131 -1 532
Width: 656
Flags: W
LayerCount: 2
Fore
SplineSet
420 -174 m 0,0,1
 393 -174 393 -174 373.5 -170 c 128,-1,2
 354 -166 354 -166 340 -160 c 1,3,-1
 361 -73 l 1,4,5
 371 -76 371 -76 381.5 -78 c 128,-1,6
 392 -80 392 -80 404 -80 c 0,7,8
 437 -80 437 -80 448.5 -57.5 c 128,-1,9
 460 -35 460 -35 460 0 c 1,10,-1
 454 0 l 1,11,-1
 250 368 l 1,12,-1
 183 507 l 1,13,-1
 179 507 l 1,14,15
 183 455 183 455 188.5 398 c 128,-1,16
 194 341 194 341 194 286 c 2,17,-1
 194 0 l 1,18,-1
 83 0 l 1,19,-1
 83 654 l 1,20,-1
 202 654 l 1,21,-1
 406 286 l 1,22,-1
 473 147 l 1,23,-1
 477 147 l 1,24,25
 473 198 473 198 467.5 256.5 c 128,-1,26
 462 315 462 315 462 370 c 2,27,-1
 462 654 l 1,28,-1
 573 654 l 1,29,-1
 573 8 l 2,30,31
 573 -31 573 -31 564.5 -64.5 c 128,-1,32
 556 -98 556 -98 538 -122.5 c 128,-1,33
 520 -147 520 -147 491 -160.5 c 128,-1,34
 462 -174 462 -174 420 -174 c 0,0,1
EndSplineSet
Validated: 1
EndChar

StartChar: aogonek.a
Encoding: 1114154 -1 555
Width: 564
GlyphClass: 2
Flags: W
AnchorPoint: "Anchor-0" 291 514 basechar 0
LayerCount: 2
Fore
SplineSet
422 -208 m 0,0,1
 380 -208 380 -208 351.5 -186 c 128,-1,2
 323 -164 323 -164 323 -120 c 0,3,4
 323 -99 323 -99 330 -81 c 128,-1,5
 337 -63 337 -63 347.5 -48 c 128,-1,6
 358 -33 358 -33 371.5 -20.5 c 128,-1,7
 385 -8 385 -8 398 1 c 1,8,-1
 388 53 l 1,9,-1
 384 53 l 1,10,11
 357 26 357 26 321 7 c 128,-1,12
 285 -12 285 -12 245 -12 c 0,13,14
 152 -12 152 -12 97.5 55.5 c 128,-1,15
 43 123 43 123 43 245 c 0,16,17
 43 305 43 305 61 353 c 128,-1,18
 79 401 79 401 108 434 c 128,-1,19
 137 467 137 467 175 485 c 128,-1,20
 213 503 213 503 254 503 c 0,21,22
 293 503 293 503 324.5 488.5 c 128,-1,23
 356 474 356 474 387 443 c 1,24,-1
 390 443 l 1,25,-1
 399 491 l 1,26,-1
 491 491 l 1,27,-1
 491 0 l 1,28,29
 443 -18 443 -18 423.5 -43.5 c 128,-1,30
 404 -69 404 -69 404 -95 c 0,31,32
 404 -116 404 -116 417.5 -126.5 c 128,-1,33
 431 -137 431 -137 448 -137 c 0,34,35
 468 -137 468 -137 486 -124 c 1,36,-1
 512 -178 l 1,37,38
 495 -192 495 -192 469 -200 c 128,-1,39
 443 -208 443 -208 422 -208 c 0,0,1
273 83 m 0,40,41
 328 83 328 83 376 138 c 1,42,-1
 376 367 l 1,43,44
 350 390 350 390 325.5 399 c 128,-1,45
 301 408 301 408 276 408 c 0,46,47
 228 408 228 408 195 366 c 128,-1,48
 162 324 162 324 162 246 c 0,49,50
 162 166 162 166 190.5 124.5 c 128,-1,51
 219 83 219 83 273 83 c 0,40,41
EndSplineSet
Validated: 1
EndChar

StartChar: l.a
Encoding: 1114164 -1 565
Width: 262
GlyphClass: 2
Flags: W
AnchorPoint: "Anchor-4" 131 -22 basechar 0
AnchorPoint: "Anchor-0" 131 730 basechar 0
LayerCount: 2
Fore
SplineSet
73 0 m 1,0,-1
 73 706 l 1,1,-1
 188 706 l 1,2,-1
 188 0 l 1,3,-1
 73 0 l 1,0,-1
EndSplineSet
Validated: 1
EndChar

StartChar: lslash.a
Encoding: 1114172 -1 573
Width: 278
Flags: W
LayerCount: 2
Fore
SplineSet
29 272 m 1,0,-1
 -11 344 l 1,1,-1
 80 398 l 1,2,-1
 80 706 l 1,3,-1
 195 706 l 1,4,-1
 195 456 l 1,5,-1
 246 486 l 1,6,-1
 287 414 l 1,7,-1
 195 360 l 1,8,-1
 195 0 l 1,9,-1
 80 0 l 1,10,-1
 80 303 l 1,11,-1
 29 272 l 1,0,-1
EndSplineSet
Validated: 1
EndChar

StartChar: Gamma
Encoding: 915 915 577
Width: 510
Flags: W
LayerCount: 2
Fore
SplineSet
83 0 m 1,0,-1
 83 654 l 1,1,-1
 478 654 l 1,2,-1
 478 556 l 1,3,-1
 199 556 l 1,4,-1
 199 0 l 1,5,-1
 83 0 l 1,0,-1
EndSplineSet
Validated: 1
Substitution2: "'c2sc' Capitals to Small Capitals lookup 17 subtable" Gamma.sc
Substitution2: "'aalt' Access All Alternates lookup 0 subtable" Gamma.sc
EndChar

StartChar: uni0394
Encoding: 916 916 578
Width: 614
Flags: W
LayerCount: 2
Fore
SplineSet
32 0 m 1,0,-1
 32 70 l 1,1,-1
 239 654 l 1,2,-1
 376 654 l 1,3,-1
 582 70 l 1,4,-1
 582 0 l 1,5,-1
 32 0 l 1,0,-1
157 98 m 1,6,-1
 455 98 l 1,7,-1
 370 357 l 1,8,-1
 307 560 l 1,9,-1
 303 560 l 1,10,-1
 241 357 l 1,11,-1
 157 98 l 1,6,-1
EndSplineSet
Validated: 1
Substitution2: "'c2sc' Capitals to Small Capitals lookup 17 subtable" uni0394.sc
Substitution2: "'aalt' Access All Alternates lookup 0 subtable" uni0394.sc
EndChar

StartChar: Theta
Encoding: 920 920 582
Width: 674
Flags: W
LayerCount: 2
Fore
SplineSet
232 290 m 1,0,-1
 232 391 l 1,1,-1
 442 391 l 1,2,-1
 442 290 l 1,3,-1
 232 290 l 1,0,-1
337 -12 m 256,4,5
 273 -12 273 -12 220 11.5 c 128,-1,6
 167 35 167 35 129 79.5 c 128,-1,7
 91 124 91 124 70 187 c 128,-1,8
 49 250 49 250 49 330 c 0,9,10
 49 409 49 409 70 471.5 c 128,-1,11
 91 534 91 534 129 577 c 128,-1,12
 167 620 167 620 220 643 c 128,-1,13
 273 666 273 666 337 666 c 256,14,15
 401 666 401 666 454 643 c 128,-1,16
 507 620 507 620 545.5 577 c 128,-1,17
 584 534 584 534 605 471.5 c 128,-1,18
 626 409 626 409 626 330 c 0,19,20
 626 250 626 250 605 187 c 128,-1,21
 584 124 584 124 545.5 79.5 c 128,-1,22
 507 35 507 35 454 11.5 c 128,-1,23
 401 -12 401 -12 337 -12 c 256,4,5
337 89 m 256,24,25
 376 89 376 89 407 106 c 128,-1,26
 438 123 438 123 460 154.5 c 128,-1,27
 482 186 482 186 494 230.5 c 128,-1,28
 506 275 506 275 506 330 c 0,29,30
 506 440 506 440 460.5 502.5 c 128,-1,31
 415 565 415 565 337 565 c 256,32,33
 259 565 259 565 213.5 502.5 c 128,-1,34
 168 440 168 440 168 330 c 0,35,36
 168 275 168 275 180 230.5 c 128,-1,37
 192 186 192 186 214 154.5 c 128,-1,38
 236 123 236 123 267 106 c 128,-1,39
 298 89 298 89 337 89 c 256,24,25
EndSplineSet
Validated: 1
Substitution2: "'c2sc' Capitals to Small Capitals lookup 17 subtable" Theta.sc
Substitution2: "'aalt' Access All Alternates lookup 0 subtable" Theta.sc
EndChar

StartChar: Lambda
Encoding: 923 923 585
Width: 536
Flags: W
LayerCount: 2
Fore
SplineSet
-4 0 m 1,0,-1
 199 654 l 1,1,-1
 336 654 l 1,2,-1
 540 0 l 1,3,-1
 417 0 l 1,4,-1
 325 329 l 2,5,6
 309 385 309 385 296.5 435 c 128,-1,7
 284 485 284 485 267 542 c 1,8,-1
 263 542 l 1,9,10
 246 485 246 485 233.5 435 c 128,-1,11
 221 385 221 385 206 329 c 2,12,-1
 115 0 l 1,13,-1
 -4 0 l 1,0,-1
EndSplineSet
Validated: 1
Substitution2: "'c2sc' Capitals to Small Capitals lookup 17 subtable" Lambda.sc
Substitution2: "'aalt' Access All Alternates lookup 0 subtable" Lambda.sc
EndChar

StartChar: Xi
Encoding: 926 926 588
Width: 552
Flags: W
LayerCount: 2
Fore
SplineSet
51 0 m 1,0,-1
 51 98 l 1,1,-1
 502 98 l 1,2,-1
 502 0 l 1,3,-1
 51 0 l 1,0,-1
122 291 m 1,4,-1
 122 389 l 1,5,-1
 430 389 l 1,6,-1
 430 291 l 1,7,-1
 122 291 l 1,4,-1
61 556 m 1,8,-1
 61 654 l 1,9,-1
 492 654 l 1,10,-1
 492 556 l 1,11,-1
 61 556 l 1,8,-1
EndSplineSet
Validated: 1
Substitution2: "'c2sc' Capitals to Small Capitals lookup 17 subtable" Xi.sc
Substitution2: "'aalt' Access All Alternates lookup 0 subtable" Xi.sc
EndChar

StartChar: Pi
Encoding: 928 928 590
Width: 654
Flags: W
LayerCount: 2
Fore
SplineSet
83 0 m 1,0,-1
 83 654 l 1,1,-1
 571 654 l 1,2,-1
 571 0 l 1,3,-1
 455 0 l 1,4,-1
 455 556 l 1,5,-1
 199 556 l 1,6,-1
 199 0 l 1,7,-1
 83 0 l 1,0,-1
EndSplineSet
Validated: 1
Substitution2: "'c2sc' Capitals to Small Capitals lookup 17 subtable" Pi.sc
Substitution2: "'aalt' Access All Alternates lookup 0 subtable" Pi.sc
EndChar

StartChar: Sigma
Encoding: 931 931 592
Width: 544
Flags: W
LayerCount: 2
Fore
SplineSet
41 0 m 1,0,-1
 41 70 l 1,1,-1
 254 331 l 1,2,-1
 44 584 l 1,3,-1
 44 654 l 1,4,-1
 480 654 l 1,5,-1
 480 556 l 1,6,-1
 190 556 l 1,7,-1
 371 334 l 1,8,-1
 187 98 l 1,9,-1
 508 98 l 1,10,-1
 508 0 l 1,11,-1
 41 0 l 1,0,-1
EndSplineSet
Validated: 1
Substitution2: "'c2sc' Capitals to Small Capitals lookup 17 subtable" Sigma.sc
Substitution2: "'aalt' Access All Alternates lookup 0 subtable" Sigma.sc
EndChar

